<svg xmlns="http://www.w3.org/2000/svg" xmlns:xlink="http://www.w3.org/1999/xlink" width="208" height="119.217" viewBox="0 0 208 119.217">
  <defs>
    <filter id="Rect치ngulo_415669" x="0" y="9.609" width="208" height="107" filterUnits="userSpaceOnUse">
      <feOffset dy="3" input="SourceAlpha"/>
      <feGaussianBlur stdDeviation="3" result="blur"/>
      <feFlood flood-opacity="0.161"/>
      <feComposite operator="in" in2="blur"/>
      <feComposite in="SourceGraphic"/>
    </filter>
  </defs>
  <g id="Grupo_1200163" data-name="Grupo 1200163" transform="translate(-171 -4534.391)">
    <g transform="matrix(1, 0, 0, 1, 171, 4534.39)" filter="url(#Rect치ngulo_415669)">
      <rect id="Rect치ngulo_415669-2" data-name="Rect치ngulo 415669" width="190" height="89" rx="10" transform="translate(9 15.61)" fill="#103d47"/>
    </g>
    <g id="netflix" transform="translate(237.745 4534.392)">
      <path id="Trazado_1044117" data-name="Trazado 1044117" d="M16,127.766H38.353V71.883L16,16Zm0,0" transform="translate(-12.274 -12.275)" fill="#fa748f"/>
      <path id="Trazado_1044118" data-name="Trazado 1044118" d="M38.353,16H16L60.706,127.766H83.059Zm0,0" transform="translate(-12.274 -12.275)" fill="#ff3f62"/>
      <path id="Trazado_1044119" data-name="Trazado 1044119" d="M230.353,16H208V71.883l22.353,55.883Zm0,0" transform="translate(-159.568 -12.275)" fill="#fa748f"/>
      <path id="Trazado_1044120" data-name="Trazado 1044120" d="M3.726,119.216H26.079a3.726,3.726,0,0,0,3.726-3.726V78.952l15.169,37.923a3.725,3.725,0,0,0,3.459,2.341H70.785a3.747,3.747,0,0,0,.7-.065.526.526,0,0,0,.121-.035c.073-.016.142-.039.213-.059a3.7,3.7,0,0,0,.587-.226c.061-.03.123-.055.186-.089a3.773,3.773,0,0,0,.653-.457c.03-.026.056-.057.085-.084a3.743,3.743,0,0,0,.463-.533c.023-.032.056-.054.076-.087s.028-.06.045-.087a3.734,3.734,0,0,0,.558-1.505c.009-.076.013-.155.018-.233s.021-.176.021-.265V3.725A3.726,3.726,0,0,0,70.785,0H48.432a3.726,3.726,0,0,0-3.726,3.726V40.264L29.538,2.341A3.725,3.725,0,0,0,26.079,0H3.709a3.787,3.787,0,0,0-.688.065C2.979.074,2.941.091,2.9.1,2.828.115,2.759.14,2.688.16A3.7,3.7,0,0,0,2.1.385c-.061.03-.123.055-.186.089a3.759,3.759,0,0,0-.649.457c-.03.026-.056.057-.085.084a3.807,3.807,0,0,0-.464.533C.695,1.58.661,1.6.641,1.635S.613,1.7.6,1.722A3.734,3.734,0,0,0,.037,3.228c0,.076-.013.155-.019.233S0,3.636,0,3.725V115.491a3.726,3.726,0,0,0,3.726,3.726Zm18.628-7.451H7.451V23.07l14.9,37.255ZM52.157,7.451h14.9v88.7l-14.9-37.255Zm-28.6,0L65.282,111.765H50.954L9.228,7.451Zm0,0" fill="#990612"/>
    </g>
  </g>
</svg>
