<svg xmlns="http://www.w3.org/2000/svg" xmlns:xlink="http://www.w3.org/1999/xlink" width="113" height="113" viewBox="0 0 113 113">
  <defs>
    <filter id="Trazado_982547" x="0" y="0" width="113" height="113" filterUnits="userSpaceOnUse">
      <feOffset dy="3" input="SourceAlpha"/>
      <feGaussianBlur stdDeviation="3" result="blur"/>
      <feFlood flood-opacity="0.161"/>
      <feComposite operator="in" in2="blur"/>
      <feComposite in="SourceGraphic"/>
    </filter>
  </defs>
  <g id="Grupo_1200173" data-name="Grupo 1200173" transform="translate(-155 -5031)">
    <g id="Grupo_1185978" data-name="Grupo 1185978" transform="translate(164 5037)">
      <g id="Grupo_1180760" data-name="Grupo 1180760">
        <g id="Grupo_1174888" data-name="Grupo 1174888">
          <g id="Grupo_1166845" data-name="Grupo 1166845">
            <g id="Grupo_1166720" data-name="Grupo 1166720">
              <g id="Grupo_1164305" data-name="Grupo 1164305">
                <g id="Grupo_1163948" data-name="Grupo 1163948">
                  <g id="Grupo_1158168" data-name="Grupo 1158168">
                    <g id="Grupo_1152576" data-name="Grupo 1152576">
                      <g id="Grupo_1148633" data-name="Grupo 1148633">
                        <g id="Grupo_1148525" data-name="Grupo 1148525">
                          <g transform="matrix(1, 0, 0, 1, -9, -6)" filter="url(#Trazado_982547)">
                            <g id="Trazado_982547-2" data-name="Trazado 982547" transform="translate(9 6)" fill="#e9f9fd">
                              <path d="M 47.5 93.5 C 41.28937149047852 93.5 35.26533508300781 92.28397369384766 29.59518623352051 89.88570404052734 C 24.11771965026855 87.56893157958984 19.19813346862793 84.25196075439453 14.97309303283691 80.02691650390625 C 10.74804019927979 75.80186462402344 7.431066513061523 70.88229370117188 5.114293098449707 65.40481567382812 C 2.716026782989502 59.73468017578125 1.5 53.71062850952148 1.5 47.5 C 1.5 41.28937149047852 2.716026782989502 35.26533508300781 5.114293098449707 29.59518623352051 C 7.431066513061523 24.11771965026855 10.74804019927979 19.19813346862793 14.97309303283691 14.97309303283691 C 19.19813346862793 10.74804019927979 24.11771965026855 7.431066513061523 29.59518623352051 5.114293098449707 C 35.26533508300781 2.716026782989502 41.28937149047852 1.5 47.5 1.5 C 53.71062850952148 1.5 59.73468017578125 2.716026782989502 65.40481567382812 5.114293098449707 C 70.88229370117188 7.431066513061523 75.80186462402344 10.74804019927979 80.02691650390625 14.97309303283691 C 84.25196075439453 19.19813346862793 87.56893157958984 24.11771965026855 89.88570404052734 29.59518623352051 C 92.28397369384766 35.26533508300781 93.5 41.28937149047852 93.5 47.5 C 93.5 53.71062850952148 92.28397369384766 59.73468017578125 89.88570404052734 65.40481567382812 C 87.56893157958984 70.88229370117188 84.25196075439453 75.80186462402344 80.02691650390625 80.02691650390625 C 75.80186462402344 84.25196075439453 70.88229370117188 87.56893157958984 65.40481567382812 89.88570404052734 C 59.73468017578125 92.28397369384766 53.71062850952148 93.5 47.5 93.5 Z" stroke="none"/>
                              <path d="M 47.5 3 C 41.49121475219727 3 35.66376876831055 4.176155090332031 30.17950439453125 6.495796203613281 C 24.88084411621094 8.736953735351562 20.12152099609375 11.94598388671875 16.03375244140625 16.03375244140625 C 11.94598388671875 20.12152099609375 8.736953735351562 24.88084411621094 6.495796203613281 30.17950439453125 C 4.176155090332031 35.66376876831055 3 41.49121475219727 3 47.5 C 3 53.50878524780273 4.176155090332031 59.33623123168945 6.495796203613281 64.82049560546875 C 8.736953735351562 70.11915588378906 11.94598388671875 74.87847900390625 16.03375244140625 78.96624755859375 C 20.12152099609375 83.05401611328125 24.88084411621094 86.26304626464844 30.17950439453125 88.50419616699219 C 35.66376876831055 90.82384490966797 41.49121475219727 92 47.5 92 C 53.50878524780273 92 59.33623123168945 90.82384490966797 64.82049560546875 88.50419616699219 C 70.11915588378906 86.26304626464844 74.87847900390625 83.05401611328125 78.96624755859375 78.96624755859375 C 83.05401611328125 74.87847900390625 86.26304626464844 70.11915588378906 88.50419616699219 64.82049560546875 C 90.82384490966797 59.33623123168945 92 53.50878524780273 92 47.5 C 92 41.49121475219727 90.82384490966797 35.66376876831055 88.50419616699219 30.17950439453125 C 86.26304626464844 24.88084411621094 83.05401611328125 20.12152099609375 78.96624755859375 16.03375244140625 C 74.87847900390625 11.94598388671875 70.11915588378906 8.736953735351562 64.82049560546875 6.495796203613281 C 59.33623123168945 4.176155090332031 53.50878524780273 3 47.5 3 M 47.5 0 C 73.7335205078125 0 95 21.2664794921875 95 47.5 C 95 73.7335205078125 73.7335205078125 95 47.5 95 C 21.2664794921875 95 0 73.7335205078125 0 47.5 C 0 21.2664794921875 21.2664794921875 0 47.5 0 Z" stroke="none" fill="#1d7083"/>
                            </g>
                          </g>
                        </g>
                      </g>
                    </g>
                  </g>
                </g>
              </g>
            </g>
          </g>
        </g>
      </g>
    </g>
    <g id="analisis_1_" data-name="analisis (1)" transform="translate(183 5050.442)">
      <g id="Grupo_1200171" data-name="Grupo 1200171" transform="translate(0.828 7.386)">
        <g id="Grupo_1200169" data-name="Grupo 1200169">
          <path id="Trazado_1044121" data-name="Trazado 1044121" d="M7.5,49.129V83.273a1.513,1.513,0,0,0,1.514,1.513H53.628a1.514,1.514,0,0,0,1.514-1.513V49.129a1.514,1.514,0,0,0-1.514-1.514H9.014A1.514,1.514,0,0,0,7.5,49.129Z" transform="translate(-7.5 -43.912)" fill="#ebeef2"/>
          <path id="Trazado_1044122" data-name="Trazado 1044122" d="M403.429,47.616h-2.74A1.513,1.513,0,0,1,402.2,49.13V83.273a1.514,1.514,0,0,1-1.513,1.514h2.74a1.514,1.514,0,0,0,1.514-1.514V49.129A1.513,1.513,0,0,0,403.429,47.616Z" transform="translate(-357.301 -43.913)" fill="#d1d6de"/>
          <g id="Grupo_1200168" data-name="Grupo 1200168" transform="translate(10.496 8.442)">
            <g id="Grupo_1200164" data-name="Grupo 1200164" transform="translate(0 10.612)">
              <circle id="Elipse_13413" data-name="Elipse 13413" cx="1.931" cy="1.931" r="1.931" fill="#5c9cee"/>
            </g>
            <g id="Grupo_1200165" data-name="Grupo 1200165" transform="translate(7.596 6.299)">
              <circle id="Elipse_13414" data-name="Elipse 13414" cx="1.931" cy="1.931" r="1.931" fill="#f2df33"/>
            </g>
            <g id="Grupo_1200166" data-name="Grupo 1200166" transform="translate(15.192 10.612)">
              <circle id="Elipse_13415" data-name="Elipse 13415" cx="1.931" cy="1.931" r="1.931" fill="#ed5575"/>
            </g>
            <g id="Grupo_1200167" data-name="Grupo 1200167" transform="translate(22.788)">
              <circle id="Elipse_13416" data-name="Elipse 13416" cx="1.931" cy="1.931" r="1.931" fill="#9fd479"/>
            </g>
          </g>
          <path id="Trazado_1044123" data-name="Trazado 1044123" d="M80.428,387.114v-2.649h31.547v2.649a1.054,1.054,0,0,1-1.054,1.054H81.482A1.054,1.054,0,0,1,80.428,387.114Z" transform="translate(-72.38 -343.591)" fill="#f2df33"/>
          <path id="Trazado_1044124" data-name="Trazado 1044124" d="M333.561,384.465v2.649a1.054,1.054,0,0,1-1.054,1.054h2.676a1.054,1.054,0,0,0,1.054-1.054v-2.649Z" transform="translate(-296.643 -343.591)" fill="#fcab29"/>
          <path id="Trazado_1044125" data-name="Trazado 1044125" d="M189.243,17.76V15.306a1.249,1.249,0,0,1,1.249-1.249h5.034a1.249,1.249,0,0,1,1.249,1.249V17.76h-7.532Z" transform="translate(-169.188 -14.057)" fill="#f2df33"/>
          <path id="Trazado_1044126" data-name="Trazado 1044126" d="M224.451,14.058h-2.695A1.249,1.249,0,0,1,223,15.307v2.454H225.7V15.307A1.249,1.249,0,0,0,224.451,14.058Z" transform="translate(-198.113 -14.058)" fill="#fcab29"/>
          <rect id="Rectángulo_415741" data-name="Rectángulo 415741" width="3.358" height="7.313" transform="translate(10.748 28.803)" fill="#48cfb7"/>
          <rect id="Rectángulo_415742" data-name="Rectángulo 415742" width="3.358" height="11.542" transform="translate(18.344 24.574)" fill="#48cfb7"/>
          <rect id="Rectángulo_415743" data-name="Rectángulo 415743" width="3.358" height="7.313" transform="translate(25.94 28.803)" fill="#48cfb7"/>
          <rect id="Rectángulo_415744" data-name="Rectángulo 415744" width="3.358" height="14.841" transform="translate(33.536 21.276)" fill="#48cfb7"/>
        </g>
        <g id="Grupo_1200170" data-name="Grupo 1200170" transform="translate(32.61 15.217)">
          <path id="Trazado_1044127" data-name="Trazado 1044127" d="M409.456,293.379l6.161,10.671a2.319,2.319,0,0,0,3.167.849h0a2.319,2.319,0,0,0,.849-3.167l-6.161-10.671Z" transform="translate(-397.71 -275.711)" fill="#ed5575"/>
          <path id="Trazado_1044128" data-name="Trazado 1044128" d="M413.472,291.06l-4.016,2.319,2.4,4.16a12.629,12.629,0,0,0,4.016-2.319Z" transform="translate(-397.71 -275.71)" fill="#cc3a60"/>
          <circle id="Elipse_13417" data-name="Elipse 13417" cx="9.99" cy="9.99" r="9.99" fill="#f2df33"/>
          <circle id="Elipse_13418" data-name="Elipse 13418" cx="7.03" cy="7.03" r="7.03" transform="translate(2.959 2.959)" fill="#5c9cee"/>
        </g>
      </g>
      <g id="Grupo_1200172" data-name="Grupo 1200172" transform="translate(0 6.558)">
        <path id="Trazado_1044129" data-name="Trazado 1044129" d="M120.664,88.579a2.762,2.762,0,1,0-2.2-1.1l-4.533,6.334a2.751,2.751,0,0,0-2.737.6L108.169,92.7a2.759,2.759,0,1,0-5.394,0l-3.021,1.714a2.755,2.755,0,1,0,.819,1.439l3.021-1.714a2.752,2.752,0,0,0,3.756,0l3.021,1.714a2.759,2.759,0,1,0,4.9-1.077l4.533-6.334A2.75,2.75,0,0,0,120.664,88.579Zm0-3.862a1.1,1.1,0,1,1-1.1,1.1A1.1,1.1,0,0,1,120.664,84.716ZM97.876,97.535a1.1,1.1,0,1,1,1.1-1.1A1.1,1.1,0,0,1,97.876,97.535Zm7.6-4.313a1.1,1.1,0,1,1,1.1-1.1A1.1,1.1,0,0,1,105.472,93.222Zm7.6,4.313a1.1,1.1,0,1,1,1.1-1.1A1.1,1.1,0,0,1,113.068,97.535Z" transform="translate(-84.622 -74.619)"/>
        <path id="Trazado_1044130" data-name="Trazado 1044130" d="M46.214,77.287H2.341a.687.687,0,0,1-.686-.686V42.457a.687.687,0,0,1,.686-.686h3.9a.828.828,0,0,0,0-1.655h-3.9A2.344,2.344,0,0,0,0,42.457V76.6a2.344,2.344,0,0,0,2.341,2.341H8.048v1.821a1.884,1.884,0,0,0,1.882,1.882h8.284l-3.9,7.614a.828.828,0,1,0,1.473.755l4.286-8.368h9.15l4.286,8.368a.828.828,0,1,0,1.473-.755l-3.9-7.614h8.284a1.884,1.884,0,0,0,1.882-1.882V78.942h4.964a.828.828,0,0,0,0-1.655Zm-6.619,3.477a.227.227,0,0,1-.227.227H9.929a.227.227,0,0,1-.227-.227V78.942H39.594Z" transform="translate(0 -36.413)"/>
        <path id="Trazado_1044131" data-name="Trazado 1044131" d="M79.9,11.916h37.4a.687.687,0,0,1,.686.686v7.869a.828.828,0,0,0,1.655,0V12.6a2.344,2.344,0,0,0-2.341-2.341H99.587V8.634a2.079,2.079,0,0,0-2.076-2.076H92.477A2.079,2.079,0,0,0,90.4,8.634v1.627H79.9a.828.828,0,0,0,0,1.655ZM92.056,8.634a.422.422,0,0,1,.421-.421h5.034a.422.422,0,0,1,.421.421v1.627H92.056V8.634Z" transform="translate(-70.346 -6.558)"/>
        <path id="Trazado_1044132" data-name="Trazado 1044132" d="M98.23,267.576a.828.828,0,0,0-.828.828v7.313a.828.828,0,0,0,.828.828h3.358a.828.828,0,0,0,.828-.828V268.4a.828.828,0,0,0-.828-.828Zm2.53,7.313h-1.7v-5.658h1.7Z" transform="translate(-86.654 -238.773)"/>
        <path id="Trazado_1044133" data-name="Trazado 1044133" d="M167.065,229.248a.828.828,0,0,0-.828.828v11.543a.828.828,0,0,0,.828.828h3.358a.828.828,0,0,0,.828-.828V230.076a.828.828,0,0,0-.828-.828Zm2.53,11.543h-1.7V230.9h1.7Z" transform="translate(-147.893 -204.674)"/>
        <path id="Trazado_1044134" data-name="Trazado 1044134" d="M235.9,267.576a.828.828,0,0,0-.828.828v7.313a.828.828,0,0,0,.828.828h3.358a.828.828,0,0,0,.828-.828V268.4a.828.828,0,0,0-.828-.828Zm2.53,7.313h-1.7v-5.658h1.7Z" transform="translate(-209.133 -238.773)"/>
        <path id="Trazado_1044135" data-name="Trazado 1044135" d="M304.737,311.832a.828.828,0,0,0-.828.828v2.43a.828.828,0,0,0,.828.828h3.358a.828.828,0,0,0,0-1.655h-2.53v-1.6A.828.828,0,0,0,304.737,311.832Z" transform="translate(-270.373 -278.145)"/>
        <path id="Trazado_1044136" data-name="Trazado 1044136" d="M319,170.908l-4.748-8.224a10.823,10.823,0,1,0-10.7,3.054,10.877,10.877,0,0,0,2.817.373,10.681,10.681,0,0,0,2.436-.281l4.747,8.224A3.146,3.146,0,1,0,319,170.908Zm-15.021-6.769a9.162,9.162,0,1,1,6.952-.915A9.1,9.1,0,0,1,303.977,164.139Zm13.042,9.633a1.492,1.492,0,0,1-2.037-.545l-4.567-7.912A10.864,10.864,0,0,0,313,163.822l4.568,7.913a1.489,1.489,0,0,1-.545,2.037Z" transform="translate(-262.921 -129.255)"/>
        <path id="Trazado_1044137" data-name="Trazado 1044137" d="M337.665,181.434a7.832,7.832,0,0,0-.392-5.674.828.828,0,1,0-1.5.705,6.2,6.2,0,1,1-1.869-2.309.828.828,0,1,0,1-1.32,7.859,7.859,0,1,0,2.759,8.6Z" transform="translate(-286.735 -153.069)"/>
      </g>
    </g>
  </g>
</svg>
