<svg xmlns="http://www.w3.org/2000/svg" xmlns:xlink="http://www.w3.org/1999/xlink" width="110" height="110" viewBox="0 0 110 110">
  <defs>
    <filter id="Trazado_982547" x="0" y="0" width="110" height="110" filterUnits="userSpaceOnUse">
      <feOffset dy="3" input="SourceAlpha"/>
      <feGaussianBlur stdDeviation="3" result="blur"/>
      <feFlood flood-opacity="0.161"/>
      <feComposite operator="in" in2="blur"/>
      <feComposite in="SourceGraphic"/>
    </filter>
  </defs>
  <g id="Grupo_1200150" data-name="Grupo 1200150" transform="translate(-798 -2702)">
    <g id="Grupo_1185951" data-name="Grupo 1185951" transform="translate(-0.461 1748.71)">
      <g id="Grupo_1184083" data-name="Grupo 1184083" transform="translate(-32.778 -1471.71)">
        <g id="Grupo_1183743" data-name="Grupo 1183743" transform="translate(459.195 -389)">
          <g id="Grupo_1181545" data-name="Grupo 1181545" transform="translate(-5.417 -130)">
            <g id="Grupo_1177562" data-name="Grupo 1177562" transform="translate(0 -12113)">
              <g id="Grupo_1173147" data-name="Grupo 1173147" transform="translate(386.461 15063)">
                <g id="Grupo_1163801" data-name="Grupo 1163801" transform="translate(0 0)">
                  <g id="Grupo_1163014" data-name="Grupo 1163014">
                    <g id="Grupo_1157015" data-name="Grupo 1157015" transform="translate(0 0)">
                      <g id="Grupo_1155792" data-name="Grupo 1155792" transform="translate(0 0)">
                        <g id="Grupo_1154703" data-name="Grupo 1154703">
                          <g id="Grupo_1150789" data-name="Grupo 1150789">
                            <g id="Grupo_1154212" data-name="Grupo 1154212">
                              <g id="Grupo_1152583" data-name="Grupo 1152583">
                                <g id="Grupo_1146973" data-name="Grupo 1146973" transform="translate(0 0)">
                                  <g id="Grupo_1146954" data-name="Grupo 1146954">
                                    <g transform="matrix(1, 0, 0, 1, -9, -6)" filter="url(#Trazado_982547)">
                                      <g id="Trazado_982547-2" data-name="Trazado 982547" transform="translate(9 6)" fill="#f2f7e5">
                                        <path d="M 46.00000381469727 90.49988555908203 C 39.99188232421875 90.49988555908203 34.16427230834961 89.32352447509766 28.67905807495117 87.00347137451172 C 23.38020324707031 84.76226043701172 18.62103080749512 81.55342864990234 14.53375053405762 77.46615600585938 C 10.44645690917969 73.37887573242188 7.237643718719482 68.61971282958984 4.996417045593262 63.32085800170898 C 2.676363706588745 57.83565902709961 1.500003814697266 52.00806045532227 1.500003814697266 45.99993896484375 C 1.500003814697266 39.99181747436523 2.676363706588745 34.16421890258789 4.996417045593262 28.67901802062988 C 7.237643718719482 23.38017845153809 10.44645690917969 18.62101936340332 14.53375053405762 14.53373908996582 C 18.62103080749512 10.44645881652832 23.38020324707031 7.237632274627686 28.67905807495117 4.996418952941895 C 34.16427230834961 2.676365613937378 39.99188232421875 1.500005602836609 46.00000381469727 1.500005602836609 C 52.00812530517578 1.500005602836609 57.83573532104492 2.676365613937378 63.32094955444336 4.996418952941895 C 68.61980438232422 7.237632274627686 73.37896728515625 10.44645881652832 77.46625518798828 14.53373908996582 C 81.55353546142578 18.62101936340332 84.76236724853516 23.38017845153809 87.00359344482422 28.67901802062988 C 89.32364654541016 34.16421890258789 90.5 39.99181747436523 90.5 45.99993896484375 C 90.5 52.00806045532227 89.32364654541016 57.83565902709961 87.00359344482422 63.32085800170898 C 84.76236724853516 68.61971282958984 81.55353546142578 73.37887573242188 77.46625518798828 77.46615600585938 C 73.37896728515625 81.55342864990234 68.61980438232422 84.76226043701172 63.32094955444336 87.00347137451172 C 57.83573532104492 89.32352447509766 52.00812530517578 90.49988555908203 46.00000381469727 90.49988555908203 Z" stroke="none"/>
                                        <path d="M 46.00000381469727 2.999992370605469 C 40.19371795654297 2.999992370605469 34.56270217895508 4.136497497558594 29.26338958740234 6.377906799316406 C 24.14333343505859 8.543510437011719 19.54441833496094 11.64437866210938 15.59440612792969 15.59439849853516 C 11.64440155029297 19.54439544677734 8.54351806640625 24.14329528808594 6.377914428710938 29.26335144042969 C 4.136505126953125 34.56266784667969 3.000007629394531 40.19366836547852 3.000007629394531 45.99993896484375 C 3.000007629394531 51.80620956420898 4.136505126953125 57.43722534179688 6.377914428710938 62.73654174804688 C 8.54351806640625 67.85658264160156 11.64440155029297 72.45548248291016 15.59440612792969 76.40549468994141 C 19.54441833496094 80.35549926757812 24.14333343505859 83.45636749267578 29.26337432861328 85.62196350097656 C 34.56270217895508 87.86338043212891 40.19371795654297 88.9998779296875 46.00000381469727 88.9998779296875 C 51.80628967285156 88.9998779296875 57.43730545043945 87.86338043212891 62.73663330078125 85.62196350097656 C 67.85667419433594 83.45636749267578 72.45558929443359 80.35549926757812 76.40560150146484 76.40549468994141 C 80.35560607910156 72.45548248291016 83.45648956298828 67.85658264160156 85.62208557128906 62.73654174804688 C 87.86350250244141 57.43722534179688 89 51.80620956420898 89 45.99993896484375 C 89 40.19366836547852 87.86350250244141 34.56266784667969 85.62208557128906 29.26335144042969 C 83.45648956298828 24.14329528808594 80.35560607910156 19.54439544677734 76.40560150146484 15.59439849853516 C 72.45558929443359 11.64437866210938 67.85667419433594 8.543510437011719 62.73661804199219 6.377906799316406 C 57.43730545043945 4.136497497558594 51.80628967285156 2.999992370605469 46.00000381469727 2.999992370605469 M 46.00000381469727 -7.62939453125e-06 C 71.40510559082031 -7.62939453125e-06 92 20.59487915039062 92 45.99993896484375 C 92 71.40501403808594 71.40510559082031 91.99988555908203 46.00000381469727 91.99988555908203 C 20.59490203857422 91.99988555908203 7.62939453125e-06 71.40501403808594 7.62939453125e-06 45.99993896484375 C 7.62939453125e-06 20.59487915039062 20.59490203857422 -7.62939453125e-06 46.00000381469727 -7.62939453125e-06 Z" stroke="none" fill="#86b60c"/>
                                      </g>
                                    </g>
                                  </g>
                                </g>
                              </g>
                            </g>
                          </g>
                        </g>
                      </g>
                    </g>
                  </g>
                </g>
              </g>
            </g>
          </g>
        </g>
      </g>
    </g>
    <g id="ley" transform="translate(821.001 2711.807)">
      <g id="Grupo_1200141" data-name="Grupo 1200141" transform="translate(12.707 47.737)">
        <g id="Grupo_1200136" data-name="Grupo 1200136" transform="translate(0 3.115)">
          <path id="Trazado_1044008" data-name="Trazado 1044008" d="M147.372,357.116a9.917,9.917,0,0,0,2.381,6.531H113.866a1.135,1.135,0,0,1-.927-.474,11.561,11.561,0,0,1,0-12.114,1.136,1.136,0,0,1,.927-.474h35.887A9.918,9.918,0,0,0,147.372,357.116Z" transform="translate(-111.226 -350.585)" fill="#fb3a82"/>
          <path id="Trazado_1044009" data-name="Trazado 1044009" d="M122.178,350.587l-10.12,10.962a11.468,11.468,0,0,1-.828-4.43,10.365,10.365,0,0,1,1.714-6.057,1.134,1.134,0,0,1,.927-.474Z" transform="translate(-111.23 -350.587)" fill="#fb1466"/>
          <path id="Trazado_1044010" data-name="Trazado 1044010" d="M181.937,357.116a9.917,9.917,0,0,0,2.381,6.531H147.885s-2.094-2.121-2.094-6.531,2.094-6.531,2.094-6.531h36.433A9.918,9.918,0,0,0,181.937,357.116Z" transform="translate(-141.842 -350.585)" fill="#e0d3ce"/>
          <g id="Grupo_1200135" data-name="Grupo 1200135" transform="translate(3.949 0)">
            <path id="Trazado_1044011" data-name="Trazado 1044011" d="M152.79,350.587l-6.962,7.541c-.024-.322-.038-.659-.038-1.01,0-4.411,2.094-6.531,2.094-6.531Z" transform="translate(-145.79 -350.587)" fill="#cdbfbb"/>
            <path id="Trazado_1044012" data-name="Trazado 1044012" d="M428.716,357.123a9.916,9.916,0,0,0,2.381,6.531H426.78a10.147,10.147,0,0,1,0-13.061H431.1A9.913,9.913,0,0,0,428.716,357.123Z" transform="translate(-392.569 -350.591)" fill="#cdbfbb"/>
          </g>
        </g>
        <g id="Grupo_1200140" data-name="Grupo 1200140" transform="translate(4.916)">
          <g id="Grupo_1200138" data-name="Grupo 1200138" transform="translate(0)">
            <path id="Trazado_1044013" data-name="Trazado 1044013" d="M194.272,325.214a1.9,1.9,0,0,1-1.9,1.9H156.155a1.9,1.9,0,0,1,0-3.792h36.221A1.9,1.9,0,0,1,194.272,325.214Z" transform="translate(-154.26 -323.317)" fill="#fb3a82"/>
            <g id="Grupo_1200137" data-name="Grupo 1200137">
              <path id="Trazado_1044014" data-name="Trazado 1044014" d="M163.168,323.317l-3.5,3.792h-3.513a1.9,1.9,0,0,1,0-3.792Z" transform="translate(-154.26 -323.317)" fill="#fb1466"/>
              <path id="Trazado_1044015" data-name="Trazado 1044015" d="M461.287,325.216a1.9,1.9,0,0,1-1.9,1.9h-3.677a1.9,1.9,0,0,0,0-3.792h3.677A1.9,1.9,0,0,1,461.287,325.216Z" transform="translate(-421.273 -323.321)" fill="#fb1466"/>
            </g>
          </g>
          <g id="Grupo_1200139" data-name="Grupo 1200139" transform="translate(0 15.501)">
            <path id="Trazado_1044016" data-name="Trazado 1044016" d="M192.374,462.788H156.153a1.9,1.9,0,0,1,0-3.792h36.221a1.9,1.9,0,0,1,0,3.792Z" transform="translate(-154.257 -458.996)" fill="#fb3a82"/>
            <path id="Trazado_1044017" data-name="Trazado 1044017" d="M461.287,460.9a1.895,1.895,0,0,1-1.9,1.9h-3.677a1.9,1.9,0,0,0,0-3.79h3.677A1.9,1.9,0,0,1,461.287,460.9Z" transform="translate(-421.273 -459)" fill="#fb1466"/>
          </g>
        </g>
      </g>
      <g id="Grupo_1200149" data-name="Grupo 1200149" transform="translate(-0.001 12.193)">
        <g id="Grupo_1200144" data-name="Grupo 1200144" transform="translate(0.857 22.642)">
          <g id="Grupo_1200142" data-name="Grupo 1200142" transform="translate(0 7.252)">
            <path id="Trazado_1044018" data-name="Trazado 1044018" d="M32.456,276.917l-3.061-3.06L8.562,293.09a3.3,3.3,0,1,0,4.662,4.662Z" transform="translate(-7.5 -273.857)" fill="#873f30"/>
            <path id="Trazado_1044019" data-name="Trazado 1044019" d="M14.387,305.146a3.3,3.3,0,0,1-4.665,0,3.267,3.267,0,0,1-.8-1.315,3.294,3.294,0,0,0,3.348-.8c.032-.032.063-.065.094-.1L31.593,282.1l2.119,2.119L14.479,305.05C14.449,305.082,14.418,305.115,14.387,305.146Z" transform="translate(-8.756 -281.155)" fill="#6c3328"/>
          </g>
          <path id="Trazado_1044020" data-name="Trazado 1044020" d="M197.683,210.382l-7.047,8.407,2.879,2.879,8.407-7.047Z" transform="translate(-169.714 -210.382)" fill="#873f30"/>
          <path id="Trazado_1044021" data-name="Trazado 1044021" d="M206.475,210.382,204.2,213.1l.683.683a1.288,1.288,0,0,1,0,1.821l-4.319,4.32,1.745,1.745,8.407-7.047Z" transform="translate(-178.506 -210.382)" fill="#6c3328"/>
          <g id="Grupo_1200143" data-name="Grupo 1200143" transform="translate(18.59 6.685)">
            <path id="Trazado_1044022" data-name="Trazado 1044022" d="M173.623,275.225l-2.795-2.795a2.069,2.069,0,0,1,2.926-2.926l2.795,2.795a2.069,2.069,0,1,1-2.926,2.926Z" transform="translate(-170.222 -268.899)" fill="#ba5d4f"/>
            <path id="Trazado_1044023" data-name="Trazado 1044023" d="M186.485,285.167a2.069,2.069,0,0,1-2.926,0l-2.118-2.118a2.069,2.069,0,0,0,2.926-2.926l2.118,2.118A2.068,2.068,0,0,1,186.485,285.167Z" transform="translate(-180.159 -278.841)" fill="#a34f41"/>
          </g>
        </g>
        <g id="Grupo_1200145" data-name="Grupo 1200145" transform="translate(22.736 3.428)">
          <path id="Trazado_1044024" data-name="Trazado 1044024" d="M0,0H8.777V13.779H0Z" transform="translate(9.742 0) rotate(45)" fill="#ba5d4f"/>
          <path id="Trazado_1044025" data-name="Trazado 1044025" d="M0,0H8.777V13.779H0Z" transform="translate(19.798 29.548) rotate(-135)" fill="#a34f41"/>
        </g>
        <g id="Grupo_1200148" data-name="Grupo 1200148">
          <path id="Trazado_1044026" data-name="Trazado 1044026" d="M177.308,34.146l-.216-.216a2.093,2.093,0,0,1,0-2.96l10.663-10.663a2.093,2.093,0,0,1,2.96,0l.216.216a2.093,2.093,0,0,1,0,2.96L180.268,34.146a2.093,2.093,0,0,1-2.96,0Z" transform="translate(-156.318 -18.837)" fill="#873f30"/>
          <path id="Trazado_1044027" data-name="Trazado 1044027" d="M348.857,205.693l.216.216a2.093,2.093,0,0,0,2.96,0L362.7,195.245a2.093,2.093,0,0,0,0-2.96l-.216-.216a2.093,2.093,0,0,0-2.96,0l-10.663,10.663A2.093,2.093,0,0,0,348.857,205.693Z" transform="translate(-308.458 -170.977)" fill="#6c3328"/>
          <g id="Grupo_1200147" data-name="Grupo 1200147">
            <path id="Trazado_1044028" data-name="Trazado 1044028" d="M0,0H9.856V20.811H0Z" transform="translate(41.377 7.354) rotate(45)" fill="#fcc16d"/>
            <path id="Trazado_1044029" data-name="Trazado 1044029" d="M0,0H20.811V4.989H0Z" transform="translate(30.1 25.517) rotate(-45)" fill="#fca62f"/>
            <path id="Trazado_1044030" data-name="Trazado 1044030" d="M239.511,67.681l-1.707-.7a1.57,1.57,0,0,0-1.7.343L224.112,79.314a1.57,1.57,0,0,0-.343,1.7l.7,1.707a1.046,1.046,0,0,0,1.709.344l13.68-13.68A1.047,1.047,0,0,0,239.511,67.681Z" transform="translate(-198.101 -60.62)" fill="#873f30"/>
            <path id="Trazado_1044031" data-name="Trazado 1044031" d="M304.116,132.286l.7,1.707a1.57,1.57,0,0,1-.343,1.7l-11.988,11.988a1.57,1.57,0,0,1-1.7.343l-1.707-.7a1.046,1.046,0,0,1-.344-1.709l13.68-13.68A1.047,1.047,0,0,1,304.116,132.286Z" transform="translate(-255.47 -117.99)" fill="#6c3328"/>
            <g id="Grupo_1200146" data-name="Grupo 1200146">
              <path id="Trazado_1044032" data-name="Trazado 1044032" d="M55.74,62.381H55.1a8.862,8.862,0,0,1-.738-1.407.857.857,0,0,0-1.583.656c.106.256.224.506.349.751H19.518a2.741,2.741,0,0,0-.747.1,9.961,9.961,0,0,1-1.259-5.1c0-.374.017-.742.049-1.1H33.978a.857.857,0,0,0,0-1.714H18.283L20.3,52.386H53.125a10.7,10.7,0,0,0-.825,2.181H41.038a.857.857,0,0,0,0,1.714H52c-.034.348-.053.7-.054,1.054a.857.857,0,0,0,.853.861h0a.857.857,0,0,0,.857-.853A9.168,9.168,0,0,1,55.1,52.386h.639a2.753,2.753,0,0,0,0-5.505H45.029l9.813-9.814a2.95,2.95,0,0,0,0-4.172l-.216-.216a2.948,2.948,0,0,0-4.02-.14L49.09,31.023l.516-.516a2.421,2.421,0,0,0,.53-2.634l-.7-1.707a1.9,1.9,0,0,0-1.378-1.144L46.869,23.83a.857.857,0,0,0-1.212,1.212l.586.586-13.5,13.5L28.768,35.16l13.5-13.5.526.526a.857.857,0,1,0,1.212-1.212l-1.131-1.131a1.9,1.9,0,0,0-1.144-1.379h0l-1.707-.7a2.422,2.422,0,0,0-2.634.53l-.516.516L35.36,17.293a2.948,2.948,0,0,0-.14-4.02L35,13.057a2.95,2.95,0,0,0-4.172,0L20.169,23.72a2.95,2.95,0,0,0,0,4.172l.215.216a2.948,2.948,0,0,0,4.02.14l1.517,1.517-.517.517a2.421,2.421,0,0,0-.53,2.634l.7,1.707a1.9,1.9,0,0,0,1.359,1.139l-4.3,5.125A2.927,2.927,0,0,0,18.768,44.6l-1.948,1.8a.857.857,0,0,0,1.162,1.259l1.8-1.662,2.123,2.123L5.95,65.4A2.442,2.442,0,1,1,2.5,61.949L15.014,50.4a.857.857,0,0,0-1.162-1.259L1.336,60.69A4.156,4.156,0,0,0,4.152,67.9h.086a4.121,4.121,0,0,0,2.971-1.336L12.344,61a9.875,9.875,0,0,0,1.378,2.937,2,2,0,0,0,1.625.834H16.79a2.748,2.748,0,0,0,2.728,3.115H55.74a2.753,2.753,0,1,0,0-5.505Zm1.039-12.747a1.04,1.04,0,0,1-1.039,1.039H21.878L23.3,49.13a2.928,2.928,0,0,0,2.923-.535H55.74a1.04,1.04,0,0,1,1.039,1.039ZM30.929,39.745,25.968,43.9,24,41.932l4.159-4.961Zm-3.738,7.136a2.942,2.942,0,0,0-.179-1.617l5.125-4.3a1.9,1.9,0,0,0,1.139,1.359l1.707.7a2.422,2.422,0,0,0,2.634-.53l.517-.517L39.652,43.5a2.955,2.955,0,0,0-.341,3.386H27.191ZM52.541,33.53a1.228,1.228,0,0,1,.874.362l.216.216a1.236,1.236,0,0,1,0,1.748L42.967,46.519a1.236,1.236,0,0,1-1.748,0L41,46.3a1.238,1.238,0,0,1,0-1.748L51.667,33.892a1.227,1.227,0,0,1,.874-.362Zm-3.152.216-8.532,8.532-1.511-1.511,8.532-8.532ZM33.863,40.431l13.68-13.68a.18.18,0,0,1,.131-.056.209.209,0,0,1,.041,0,.182.182,0,0,1,.138.114l.7,1.707a.711.711,0,0,1-.156.774L36.406,41.283a.711.711,0,0,1-.774.156l-1.707-.7a.19.19,0,0,1-.062-.31ZM22.47,27.258A1.228,1.228,0,0,1,21.6,26.9l-.216-.216a1.236,1.236,0,0,1,0-1.748L32.044,14.269a1.236,1.236,0,0,1,1.748,0l.216.216a1.236,1.236,0,0,1,0,1.748L23.344,26.9A1.229,1.229,0,0,1,22.47,27.258Zm3.152-.216,8.532-8.532,1.511,1.511-8.532,8.532Zm.995,4.451L38.6,19.5a.711.711,0,0,1,.774-.156l1.707.7a.19.19,0,0,1,.062.31l-13.68,13.68a.19.19,0,0,1-.31-.062l-.7-1.707a.711.711,0,0,1,.156-.774ZM20.3,43.589a1.212,1.212,0,0,1,2.069-.857l2.795,2.795a1.212,1.212,0,0,1-1.714,1.714l-2.794-2.795a1.2,1.2,0,0,1-.355-.857ZM15.118,62.944a8.644,8.644,0,0,1-1.372-3.463L15.8,57.257c0,.042,0,.085,0,.127a11.888,11.888,0,0,0,1.329,5.674H15.347A.279.279,0,0,1,15.118,62.944ZM55.74,66.173H19.518a1.039,1.039,0,1,1,0-2.078H55.74a1.039,1.039,0,1,1,0,2.078Z" transform="translate(0.001 -12.193)"/>
              <path id="Trazado_1044033" data-name="Trazado 1044033" d="M203.184,417.166a.857.857,0,1,0,0,1.714h19.962a.857.857,0,1,0,0-1.714Z" transform="translate(-179.212 -370.9)"/>
            </g>
          </g>
        </g>
      </g>
    </g>
  </g>
</svg>
