<svg xmlns="http://www.w3.org/2000/svg" xmlns:xlink="http://www.w3.org/1999/xlink" width="400" height="264" viewBox="0 0 400 264">
  <defs>
    <clipPath id="clip-path">
      <rect id="Rectángulo_415736" data-name="Rectángulo 415736" width="400" height="264" transform="translate(1020 3086)" fill="#fff" stroke="#707070" stroke-width="1" opacity="0.84"/>
    </clipPath>
  </defs>
  <g id="Enmascarar_grupo_1098859" data-name="Enmascarar grupo 1098859" transform="translate(-1020 -3086)" clip-path="url(#clip-path)">
    <g id="Grupo_1200302" data-name="Grupo 1200302">
      <path id="Trazado_1043891" data-name="Trazado 1043891" d="M501.564,331.494q-13.752,25.8-27.58,51.559c-1.235,2.315-2.551,4.721-4.722,6.2-2.8,1.9-6.441,1.876-9.827,1.78q-27.52-.783-54.994-1.023l-126.723-1.156-56.859-.518c-12.4-.113-24.73.361-37.1.4-6.29.018-12.968-1.185-17.619-5.42-3.868-3.523-5.806-8.64-7.488-13.594a316.251,316.251,0,0,1-16.182-82.677c-1.44-24.117,3.927-48.476,23.241-64.7,7.2-6.048,15.734-10.435,22.484-16.978,20.729-20.092,21.02-56.52,44.81-72.873,10.961-7.535,25-9.145,38.269-8.269,12.4.819,24.846,3.686,35.575,9.952,11.205,6.543,19.992,16.417,29.3,25.454,18.664,18.114,41.331,33.85,67.165,36.863,16.432,1.916,33.063-1.441,49.576-.432a94.55,94.55,0,0,1,50.2,18.29c9.291,6.885,17.46,15.775,21.494,26.612,8.813,23.679-.794,48.523-11.915,69.609Q507.142,321.038,501.564,331.494Z" transform="translate(877.752 2962.185)" fill="#e2dacc" opacity="0.47"/>
      <g id="Grupo_1200301" data-name="Grupo 1200301" transform="translate(-4098.755 92.696)">
        <g id="Decor_3_" transform="translate(5118.755 2996.879)">
          <g id="Grupo_1200212" data-name="Grupo 1200212" transform="translate(0 48.387)">
            <path id="Trazado_1044260" data-name="Trazado 1044260" d="M408.474,830.7l-10.42-9.5a2.271,2.271,0,0,0-3.208.149l-6.63,7.276a2.273,2.273,0,0,1-2.7.5,40.319,40.319,0,0,0-10.319-3.518,2.276,2.276,0,0,1-1.842-2.125l-.417-8.981a2.271,2.271,0,0,0-2.374-2.163l-14.083.654a2.271,2.271,0,0,0-2.163,2.374l.453,9.751a2.266,2.266,0,0,1-1.477,2.233,40.259,40.259,0,0,0-7.023,3.389,2.274,2.274,0,0,1-2.715-.258l-7.048-6.423a2.271,2.271,0,0,0-3.208.149l-9.5,10.421a2.271,2.271,0,0,0,.149,3.208l6.867,6.258a2.274,2.274,0,0,1,.487,2.722,40.267,40.267,0,0,0-3.289,8.792,2.274,2.274,0,0,1-2.1,1.731l-10.284.477a2.271,2.271,0,0,0-2.163,2.374l.653,14.083a2.271,2.271,0,0,0,2.374,2.163l9.939-.461a2.272,2.272,0,0,1,2.272,1.591,40.314,40.314,0,0,0,4.247,9.243,2.27,2.27,0,0,1-.249,2.729l-6.046,6.635a2.271,2.271,0,0,0,.149,3.208l10.42,9.5a2.271,2.271,0,0,0,3.208-.149l6.046-6.634a2.274,2.274,0,0,1,2.7-.5,40.285,40.285,0,0,0,8.642,3.153,2.268,2.268,0,0,1,1.735,2.1l.428,9.22a2.271,2.271,0,0,0,2.374,2.163l14.083-.654a2.271,2.271,0,0,0,2.163-2.374l-.418-9.007a2.271,2.271,0,0,1,1.577-2.268,40.289,40.289,0,0,0,9.39-4.4,2.269,2.269,0,0,1,2.749.237l6.867,6.258a2.271,2.271,0,0,0,3.208-.149l9.5-10.421a2.271,2.271,0,0,0-.149-3.208l-7.048-6.423a2.269,2.269,0,0,1-.512-2.672,40.3,40.3,0,0,0,2.968-8.262,2.27,2.27,0,0,1,2.1-1.738l8.454-.392a2.271,2.271,0,0,0,2.163-2.374L418.8,856.3a2.271,2.271,0,0,0-2.374-2.163l-8.242.382a2.273,2.273,0,0,1-2.269-1.58,40.3,40.3,0,0,0-4.176-9.026,2.271,2.271,0,0,1,.248-2.731l6.63-7.276A2.271,2.271,0,0,0,408.474,830.7Zm-25.269,49.11A21.452,21.452,0,1,1,381.8,849.5,21.452,21.452,0,0,1,383.205,879.809Z" transform="translate(-312.635 -812.336)" fill="#7b776f"/>
            <g id="Grupo_1200211" data-name="Grupo 1200211" transform="translate(0 0.082)">
              <path id="Trazado_1044261" data-name="Trazado 1044261" d="M667.863,1312.737a.55.55,0,0,0-.344-.494,20.9,20.9,0,0,1-11-28.086.548.548,0,0,0-.783-.7l-.018.011a.551.551,0,0,0-.214.24,22.007,22.007,0,0,0,11.609,29.558.549.549,0,0,0,.755-.522S667.863,1312.742,667.863,1312.737Z" transform="translate(-621.051 -1239.676)" fill="#302626"/>
              <path id="Trazado_1044262" data-name="Trazado 1044262" d="M308.058,876.988a1.719,1.719,0,0,1-1.8-1.636l-.653-14.083a1.719,1.719,0,0,1,1.636-1.8L317.529,859a2.844,2.844,0,0,0,2.613-2.152,39.774,39.774,0,0,1,3.244-8.671,2.833,2.833,0,0,0-.606-3.384l-6.868-6.259a1.716,1.716,0,0,1-.112-2.424l9.5-10.422a1.716,1.716,0,0,1,2.424-.112L334.77,832a2.843,2.843,0,0,0,3.375.322,39.82,39.82,0,0,1,6.926-3.342,2.809,2.809,0,0,0,1.839-2.778l-.452-9.751a1.719,1.719,0,0,1,1.636-1.8l7.051-.327a.553.553,0,0,0,.527-.523h0a.553.553,0,0,0-.578-.582l-7.051.327a2.828,2.828,0,0,0-2.69,2.952l.453,9.751a1.705,1.705,0,0,1-1.116,1.688,40.925,40.925,0,0,0-7.119,3.435,1.731,1.731,0,0,1-2.055-.194l-7.049-6.424a2.823,2.823,0,0,0-3.988.185l-9.5,10.422a2.823,2.823,0,0,0,.185,3.988l6.868,6.259a1.724,1.724,0,0,1,.368,2.06,40.881,40.881,0,0,0-3.334,8.913,1.71,1.71,0,0,1-1.589,1.311l-10.284.477a2.828,2.828,0,0,0-2.69,2.952l.653,14.083a2.828,2.828,0,0,0,2.952,2.69l7.2-.334.907-1.15Z" transform="translate(-304.501 -813.217)" fill="#302626"/>
            </g>
          </g>
          <g id="Grupo_1200214" data-name="Grupo 1200214" transform="translate(158.881)">
            <path id="Trazado_1044263" data-name="Trazado 1044263" d="M2090.147,332.841l-1.579-9.973a1.626,1.626,0,0,0-1.861-1.352l-6.963,1.1a1.628,1.628,0,0,1-1.732-.928,28.868,28.868,0,0,0-4.2-6.584,1.63,1.63,0,0,1-.079-2.013l3.785-5.209a1.626,1.626,0,0,0-.36-2.272l-8.168-5.936a1.626,1.626,0,0,0-2.272.36l-4.11,5.656a1.623,1.623,0,0,1-1.825.588,28.831,28.831,0,0,0-5.443-1.247,1.628,1.628,0,0,1-1.4-1.359l-1.068-6.745a1.627,1.627,0,0,0-1.861-1.352l-9.973,1.579a1.626,1.626,0,0,0-1.352,1.861l1.041,6.572a1.629,1.629,0,0,1-.946,1.74,28.839,28.839,0,0,0-5.773,3.445,1.628,1.628,0,0,1-1.949.028l-5.965-4.334a1.626,1.626,0,0,0-2.271.36L2017.888,315a1.626,1.626,0,0,0,.359,2.272l5.765,4.189a1.627,1.627,0,0,1,.559,1.906,28.882,28.882,0,0,0-1.76,7.069,1.625,1.625,0,0,1-1.36,1.415l-6.35,1.005a1.626,1.626,0,0,0-1.352,1.861l1.579,9.973a1.626,1.626,0,0,0,1.861,1.352l6.349-1.005a1.629,1.629,0,0,1,1.733.93,28.846,28.846,0,0,0,3.422,5.63,1.625,1.625,0,0,1,.03,1.951l-3.886,5.347a1.627,1.627,0,0,0,.359,2.272l8.168,5.936a1.626,1.626,0,0,0,2.272-.359l3.8-5.224a1.626,1.626,0,0,1,1.9-.563,28.857,28.857,0,0,0,7.222,1.738,1.625,1.625,0,0,1,1.431,1.362l1.04,6.572a1.627,1.627,0,0,0,1.861,1.352l9.973-1.579a1.626,1.626,0,0,0,1.352-1.861l-1.068-6.745a1.625,1.625,0,0,1,.909-1.723,28.849,28.849,0,0,0,5.356-3.293,1.626,1.626,0,0,1,1.953-.031l4.9,3.563a1.626,1.626,0,0,0,2.271-.36l5.936-8.168a1.627,1.627,0,0,0-.36-2.272l-4.78-3.474a1.628,1.628,0,0,1-.562-1.9,28.87,28.87,0,0,0,1.7-6.916,1.626,1.626,0,0,1,1.361-1.416l6.963-1.1A1.626,1.626,0,0,0,2090.147,332.841ZM2054.044,349a15.363,15.363,0,1,1,12.772-17.577A15.364,15.364,0,0,1,2054.044,349Z" transform="translate(-2013.728 -295.207)" fill="#7b776f"/>
            <g id="Grupo_1200213" data-name="Grupo 1200213" transform="translate(3.16)">
              <path id="Trazado_1044264" data-name="Trazado 1044264" d="M2251.507,577.491a.394.394,0,0,0,.029-.43,14.968,14.968,0,0,1,6.412-20.63.392.392,0,0,0-.127-.739l-.015,0a.4.4,0,0,0-.227.038,15.76,15.76,0,0,0-6.733,21.724.393.393,0,0,0,.656.046Z" transform="translate(-2230.176 -531.156)" fill="#302626"/>
              <path id="Trazado_1044265" data-name="Trazado 1044265" d="M2049.024,313.578a1.231,1.231,0,0,1-.272-1.718l5.936-8.168a1.231,1.231,0,0,1,1.718-.272l5.965,4.334a2.037,2.037,0,0,0,2.424-.034,28.478,28.478,0,0,1,5.694-3.4,2.029,2.029,0,0,0,1.175-2.164l-1.04-6.573a1.229,1.229,0,0,1,1.021-1.406l9.975-1.579a1.229,1.229,0,0,1,1.406,1.022l1.068,6.746a2.037,2.037,0,0,0,1.744,1.69,28.52,28.52,0,0,1,5.369,1.23,2.011,2.011,0,0,0,2.271-.731l4.11-5.656a1.231,1.231,0,0,1,1.718-.272l4.09,2.972a.4.4,0,0,0,.529-.057h0a.4.4,0,0,0-.063-.584l-4.09-2.972a2.025,2.025,0,0,0-2.825.447l-4.11,5.656a1.222,1.222,0,0,1-1.379.445,29.314,29.314,0,0,0-5.518-1.264,1.239,1.239,0,0,1-1.062-1.028l-1.068-6.746a2.021,2.021,0,0,0-2.313-1.681l-9.975,1.579a2.021,2.021,0,0,0-1.681,2.313l1.041,6.573a1.235,1.235,0,0,1-.716,1.316,29.281,29.281,0,0,0-5.852,3.492,1.225,1.225,0,0,1-1.475.022l-5.964-4.334a2.025,2.025,0,0,0-2.825.447l-5.935,8.168a2.025,2.025,0,0,0,.447,2.825l4.173,3.033,1.022-.237Z" transform="translate(-2047.726 -291.791)" fill="#302626"/>
            </g>
          </g>
          <g id="Grupo_1200216" data-name="Grupo 1200216" transform="translate(284.053 137.51)">
            <path id="Trazado_1044266" data-name="Trazado 1044266" d="M3396.121,1874.792l13.814,2.817a2.271,2.271,0,0,0,2.679-1.771l1.967-9.645a2.272,2.272,0,0,1,2.062-1.811,40.311,40.311,0,0,0,10.665-2.265,2.275,2.275,0,0,1,2.67.881l4.959,7.5a2.271,2.271,0,0,0,3.146.642l11.76-7.776a2.271,2.271,0,0,0,.642-3.147l-5.384-8.143a2.267,2.267,0,0,1,.125-2.675,40.266,40.266,0,0,0,4.295-6.508,2.274,2.274,0,0,1,2.464-1.169l9.343,1.905a2.271,2.271,0,0,0,2.679-1.771l2.817-13.814a2.271,2.271,0,0,0-1.771-2.679l-9.1-1.856a2.275,2.275,0,0,1-1.813-2.088,40.252,40.252,0,0,0-1.679-9.235,2.274,2.274,0,0,1,.917-2.563l8.587-5.678a2.271,2.271,0,0,0,.642-3.147l-7.776-11.76a2.271,2.271,0,0,0-3.146-.642l-8.3,5.488a2.272,2.272,0,0,1-2.766-.2,40.317,40.317,0,0,0-8.382-5.762,2.269,2.269,0,0,1-1.185-2.472l1.793-8.8a2.271,2.271,0,0,0-1.771-2.679l-13.814-2.817a2.271,2.271,0,0,0-2.679,1.771l-1.793,8.795a2.274,2.274,0,0,1-2.065,1.811,40.29,40.29,0,0,0-9.037,1.719,2.268,2.268,0,0,1-2.566-.916l-5.09-7.7a2.271,2.271,0,0,0-3.146-.642l-11.76,7.776a2.271,2.271,0,0,0-.642,3.146l4.974,7.522a2.27,2.27,0,0,1-.193,2.755,40.3,40.3,0,0,0-5.807,8.593,2.27,2.27,0,0,1-2.482,1.205l-9.1-1.857a2.271,2.271,0,0,0-2.679,1.771l-2.817,13.814a2.27,2.27,0,0,0,1.771,2.679l9.343,1.905a2.269,2.269,0,0,1,1.809,2.032,40.305,40.305,0,0,0,1.684,8.616,2.27,2.27,0,0,1-.915,2.569l-7.06,4.668a2.271,2.271,0,0,0-.642,3.147l7.776,11.76a2.271,2.271,0,0,0,3.146.642l6.882-4.551a2.272,2.272,0,0,1,2.758.195,40.3,40.3,0,0,0,8.21,5.612,2.27,2.27,0,0,1,1.186,2.472l-1.967,9.645A2.272,2.272,0,0,0,3396.121,1874.792Zm-3.458-55.121a21.452,21.452,0,1,1,16.733,25.306A21.452,21.452,0,0,1,3392.663,1819.67Z" transform="translate(-3360.321 -1771.108)" fill="#7b776f"/>
            <g id="Grupo_1200215" data-name="Grupo 1200215" transform="translate(49.75 15.95)">
              <path id="Trazado_1044267" data-name="Trazado 1044267" d="M3895.618,2099.61a.548.548,0,0,0,.549.248,20.9,20.9,0,0,1,23.839,18.483.547.547,0,0,0,1.029.2l.01-.019a.55.55,0,0,0,.061-.315,22.006,22.006,0,0,0-25.112-19.438.549.549,0,0,0-.381.835Z" transform="translate(-3895.527 -2084.041)" fill="#302626"/>
              <path id="Trazado_1044268" data-name="Trazado 1044268" d="M4263.569,1944.09a1.72,1.72,0,0,1,2.38.485l7.776,11.76a1.719,1.719,0,0,1-.485,2.38l-8.587,5.678a2.844,2.844,0,0,0-1.142,3.187,39.782,39.782,0,0,1,1.656,9.109,2.834,2.834,0,0,0,2.254,2.6l9.1,1.857a1.716,1.716,0,0,1,1.339,2.024l-2.818,13.817a1.715,1.715,0,0,1-2.024,1.339l-9.344-1.906a2.844,2.844,0,0,0-3.064,1.453,39.8,39.8,0,0,1-4.236,6.418,2.808,2.808,0,0,0-.156,3.328l5.384,8.143a1.719,1.719,0,0,1-.485,2.38l-5.888,3.893a.554.554,0,0,0-.184.719h0a.553.553,0,0,0,.795.2l5.888-3.893a2.827,2.827,0,0,0,.8-3.914l-5.384-8.143a1.705,1.705,0,0,1,.093-2.021,40.9,40.9,0,0,0,4.354-6.6,1.731,1.731,0,0,1,1.864-.885l9.344,1.906a2.823,2.823,0,0,0,3.33-2.2l2.817-13.817a2.822,2.822,0,0,0-2.2-3.33l-9.1-1.857a1.724,1.724,0,0,1-1.371-1.581,40.879,40.879,0,0,0-1.7-9.362,1.71,1.71,0,0,1,.694-1.94l8.587-5.678a2.828,2.828,0,0,0,.8-3.913l-7.776-11.76a2.828,2.828,0,0,0-3.914-.8l-6.008,3.973-.19,1.452Z" transform="translate(-4221.571 -1942.7)" fill="#302626"/>
            </g>
          </g>
        </g>
        <g id="Graphic" transform="translate(5139.426 3030.49)">
          <g id="Grupo_1200226" data-name="Grupo 1200226" transform="translate(36.96 12.351)">
            <g id="Graph_3_1_" transform="translate(0.355)">
              <g id="Grupo_1200218" data-name="Grupo 1200218" transform="translate(0 0.372)">
                <path id="Trazado_1044269" data-name="Trazado 1044269" d="M1160.871,983.376H933.413a5.105,5.105,0,0,1-5.105-5.105V795.347a5.105,5.105,0,0,1,5.105-5.105h227.458a5.105,5.105,0,0,1,5.105,5.105V978.271A5.105,5.105,0,0,1,1160.871,983.376Z" transform="translate(-928.308 -790.242)" fill="#ffeed6"/>
                <g id="Grupo_1200217" data-name="Grupo 1200217">
                  <path id="Trazado_1044270" data-name="Trazado 1044270" d="M1165.976,805.388H928.308V794.27a4.028,4.028,0,0,1,4.028-4.028h229.612a4.028,4.028,0,0,1,4.028,4.028v11.118Z" transform="translate(-928.308 -790.242)" fill="#273603"/>
                </g>
              </g>
              <g id="Grupo_1200219" data-name="Grupo 1200219" transform="translate(121.203)">
                <path id="Trazado_1044271" data-name="Trazado 1044271" d="M2348.665,893.566a.372.372,0,0,1-.372-.372V792.045a5.065,5.065,0,0,0-5.059-5.06H2232.572a.372.372,0,0,1,0-.744h110.662a5.81,5.81,0,0,1,5.8,5.8V893.193A.372.372,0,0,1,2348.665,893.566Z" transform="translate(-2232.2 -786.242)" fill="#302626"/>
              </g>
            </g>
            <g id="Grupo_1200220" data-name="Grupo 1200220" transform="translate(0 0)">
              <path id="Trazado_1044272" data-name="Trazado 1044272" d="M924.857,831.957a.372.372,0,0,1-.372-.372V791.643a5.4,5.4,0,0,1,5.4-5.4h28.3a.372.372,0,1,1,0,.744h-28.3a4.66,4.66,0,0,0-4.655,4.655v39.942A.372.372,0,0,1,924.857,831.957Z" transform="translate(-924.485 -786.245)" fill="#302626"/>
            </g>
            <rect id="Rectángulo_415785" data-name="Rectángulo 415785" width="15.554" height="15.554" transform="translate(16.652 26.548)" fill="#736d6d"/>
            <rect id="Rectángulo_415786" data-name="Rectángulo 415786" width="15.554" height="15.554" transform="translate(16.652 57.891)" fill="#f2ab63"/>
            <g id="Grupo_1200221" data-name="Grupo 1200221" transform="translate(16.28 85.933)">
              <rect id="Rectángulo_415787" data-name="Rectángulo 415787" width="15.554" height="15.554" transform="translate(0.373 0.372)" fill="#4a6c62"/>
              <path id="Trazado_1044273" data-name="Trazado 1044273" d="M1115.92,1727h-16.3v-16.3h16.3Zm-15.553-.743h14.81v-14.811h-14.81Z" transform="translate(-1099.622 -1710.702)" fill="#210000"/>
            </g>
            <g id="Grupo_1200222" data-name="Grupo 1200222" transform="translate(39.907 32.657)">
              <path id="Trazado_1044274" data-name="Trazado 1044274" d="M1353.8,1141.56h0Z" transform="translate(-1353.8 -1141.188)" fill="#4a6c62"/>
              <rect id="Rectángulo_415788" data-name="Rectángulo 415788" width="150.632" height="0.744" fill="#210000"/>
            </g>
            <g id="Grupo_1200223" data-name="Grupo 1200223" transform="translate(39.903 37.729)">
              <path id="Trazado_1044275" data-name="Trazado 1044275" d="M1353.8,1196.913l150.632-.909Z" transform="translate(-1353.796 -1195.644)" fill="#4a6c62"/>
              <rect id="Rectángulo_415789" data-name="Rectángulo 415789" width="150.634" height="0.744" transform="translate(0 0.904) rotate(-0.344)" fill="#210000"/>
            </g>
            <g id="Grupo_1200224" data-name="Grupo 1200224" transform="translate(36.434 61.536)">
              <path id="Trazado_1044276" data-name="Trazado 1044276" d="M1316.44,1452.24h0Z" transform="translate(-1316.44 -1451.868)" fill="#4a6c62"/>
              <rect id="Rectángulo_415790" data-name="Rectángulo 415790" width="154.104" height="0.744" fill="#210000"/>
            </g>
            <g id="Grupo_1200225" data-name="Grupo 1200225" transform="translate(36.434 67.372)">
              <path id="Trazado_1044277" data-name="Trazado 1044277" d="M1316.44,1515.02h0Z" transform="translate(-1316.44 -1514.648)" fill="#4a6c62"/>
              <rect id="Rectángulo_415791" data-name="Rectángulo 415791" width="154.104" height="0.744" fill="#210000"/>
            </g>
          </g>
          <g id="Schedule_2_" transform="translate(176.622 91.643)">
            <g id="Graph_3_3_" transform="translate(0 0)">
              <g id="Grupo_1200228" data-name="Grupo 1200228" transform="translate(0 0.372)">
                <path id="Trazado_1044278" data-name="Trazado 1044278" d="M2583.763,1774.832H2432.074a5.105,5.105,0,0,1-5.1-5.105V1648.374a5.105,5.105,0,0,1,5.1-5.105h151.689a5.1,5.1,0,0,1,5.1,5.105v121.353A5.105,5.105,0,0,1,2583.763,1774.832Z" transform="translate(-2426.968 -1643.269)" fill="#ffeed6"/>
                <g id="Grupo_1200227" data-name="Grupo 1200227" transform="translate(0 0)">
                  <path id="Trazado_1044279" data-name="Trazado 1044279" d="M2588.86,1657.882h-161.9V1647.3a4.028,4.028,0,0,1,4.028-4.028h153.843a4.028,4.028,0,0,1,4.028,4.028v10.585Z" transform="translate(-2426.96 -1643.27)" fill="#273603"/>
                </g>
              </g>
              <g id="Grupo_1200229" data-name="Grupo 1200229" transform="translate(82.445)">
                <path id="Trazado_1044280" data-name="Trazado 1044280" d="M3375.344,1771.417a.372.372,0,0,1-.008-.744l13.06-.28a4.706,4.706,0,0,0,4.579-4.678V1643.662a3.657,3.657,0,0,0-3.653-3.654h-75.057a.372.372,0,0,1,0-.744h75.057a4.4,4.4,0,0,1,4.4,4.4v122.053a5.423,5.423,0,0,1-5.307,5.422l-13.06.28Z" transform="translate(-3313.892 -1639.265)" fill="#302626"/>
              </g>
              <g id="Decor" transform="translate(35.023 23.755)">
                <g id="Grupo_1200232" data-name="Grupo 1200232">
                  <g id="Grupo_1200231" data-name="Grupo 1200231">
                    <g id="Grupo_1200230" data-name="Grupo 1200230">
                      <path id="Trazado_1044281" data-name="Trazado 1044281" d="M2874.828,1901.988l-6.869,11.545a33.056,33.056,0,0,0-48.881,34.9c-5.31,1.065-10.327,2.079-14.154,2.873a47.326,47.326,0,0,1-.255-19.933c5.143-25.452,30.093-41.253,55.73-35.291A48.726,48.726,0,0,1,2874.828,1901.988Z" transform="translate(-2803.73 -1894.822)" fill="#7b776f"/>
                      <path id="Trazado_1044282" data-name="Trazado 1044282" d="M3038.468,2663.559a45.814,45.814,0,0,1-13.9,8.965,46.467,46.467,0,0,1-28.38,2.245,48.39,48.39,0,0,1-21.9-11.615l9.343-10.259a33.068,33.068,0,0,0,35.206,6.443,33.221,33.221,0,0,0,11.146-7.568C3032.971,2655.584,3035.7,2659.587,3038.468,2663.559Z" transform="translate(-2958.434 -2581.409)" fill="#36ceef"/>
                    </g>
                    <path id="Trazado_1044283" data-name="Trazado 1044283" d="M3567.288,1971.372l-21.01-2.483a33.115,33.115,0,0,0-13.009-25l10.852-18.218A48.6,48.6,0,0,1,3567.288,1971.372Z" transform="translate(-3465.454 -1922.802)" fill="#86b60c"/>
                    <path id="Trazado_1044284" data-name="Trazado 1044284" d="M3459.269,2486.073l-.048.016-5.687-13.2a33.226,33.226,0,0,0,11.145-7.568,33.108,33.108,0,0,0,9.068-19.108l13.656,1.613C3485.569,2468.141,3471.981,2481.608,3459.269,2486.073Z" transform="translate(-3393.131 -2394.958)" fill="#ff9d1c"/>
                  </g>
                </g>
                <g id="Grupo_1200233" data-name="Grupo 1200233" transform="translate(24.825 50.882)">
                  <path id="Trazado_1044285" data-name="Trazado 1044285" d="M3095.084,2472.726a31.234,31.234,0,0,1-6.592-.718,41.9,41.9,0,0,1-17.559-8.91.372.372,0,0,1,.47-.576c10.8,8.82,22.565,11.6,33.133,7.822,10.837-3.872,18.944-14.279,21.687-27.84a.372.372,0,1,1,.729.148c-2.795,13.818-11.081,24.432-22.166,28.393A28.676,28.676,0,0,1,3095.084,2472.726Z" transform="translate(-3070.796 -2442.205)" fill="#302626"/>
                </g>
              </g>
            </g>
          </g>
          <g id="Graph_3_7_" transform="translate(198.955)">
            <g id="Grupo_1200235" data-name="Grupo 1200235" transform="translate(0 0.372)">
              <path id="Trazado_1044286" data-name="Trazado 1044286" d="M2768.7,744h-96.384a5.1,5.1,0,0,1-5.1-5.105v-76.41a5.1,5.1,0,0,1,5.1-5.105H2768.7a5.105,5.105,0,0,1,5.105,5.105v76.41A5.106,5.106,0,0,1,2768.7,744Z" transform="translate(-2667.209 -657.376)" fill="#fff7ed"/>
              <g id="Grupo_1200234" data-name="Grupo 1200234" transform="translate(0)">
                <path id="Trazado_1044287" data-name="Trazado 1044287" d="M2773.8,667H2667.21V661.4a4.028,4.028,0,0,1,4.028-4.028h98.539a4.028,4.028,0,0,1,4.027,4.028Z" transform="translate(-2667.21 -657.376)" fill="#273603"/>
              </g>
            </g>
            <g id="Grupo_1200241" data-name="Grupo 1200241" transform="translate(6.946 14.776)">
              <g id="Grupo_1200240" data-name="Grupo 1200240">
                <g id="Grupo_1200239" data-name="Grupo 1200239">
                  <g id="Grupo_1200238" data-name="Grupo 1200238">
                    <g id="Grupo_1200236" data-name="Grupo 1200236" transform="translate(6.679)">
                      <path id="Trazado_1044288" data-name="Trazado 1044288" d="M2814.017,812.336a.234.234,0,0,0-.234.234v68.947a.234.234,0,0,0,.468,0V812.57A.234.234,0,0,0,2814.017,812.336Z" transform="translate(-2813.783 -812.336)" fill="#ccc0c0"/>
                      <path id="Trazado_1044289" data-name="Trazado 1044289" d="M2920.508,812.336a.234.234,0,0,0-.234.234v68.947a.234.234,0,0,0,.468,0V812.57A.234.234,0,0,0,2920.508,812.336Z" transform="translate(-2910.375 -812.336)" fill="#ccc0c0"/>
                      <path id="Trazado_1044290" data-name="Trazado 1044290" d="M3027,812.336a.234.234,0,0,0-.234.234v68.947a.234.234,0,0,0,.468,0V812.57A.234.234,0,0,0,3027,812.336Z" transform="translate(-3006.966 -812.336)" fill="#ccc0c0"/>
                      <path id="Trazado_1044291" data-name="Trazado 1044291" d="M3133.488,812.336a.234.234,0,0,0-.234.234v68.947a.234.234,0,0,0,.468,0V812.57A.234.234,0,0,0,3133.488,812.336Z" transform="translate(-3103.557 -812.336)" fill="#ccc0c0"/>
                      <path id="Trazado_1044292" data-name="Trazado 1044292" d="M3239.978,812.336a.234.234,0,0,0-.234.234v68.947a.234.234,0,0,0,.468,0V812.57A.234.234,0,0,0,3239.978,812.336Z" transform="translate(-3200.149 -812.336)" fill="#ccc0c0"/>
                      <path id="Trazado_1044293" data-name="Trazado 1044293" d="M3346.468,812.336a.234.234,0,0,0-.234.234v68.947a.234.234,0,0,0,.468,0V812.57A.234.234,0,0,0,3346.468,812.336Z" transform="translate(-3296.74 -812.336)" fill="#ccc0c0"/>
                      <path id="Trazado_1044294" data-name="Trazado 1044294" d="M3452.958,812.336a.234.234,0,0,0-.234.234v68.947a.234.234,0,0,0,.468,0V812.57A.234.234,0,0,0,3452.958,812.336Z" transform="translate(-3393.331 -812.336)" fill="#ccc0c0"/>
                      <path id="Trazado_1044295" data-name="Trazado 1044295" d="M3559.448,812.336a.234.234,0,0,0-.234.234v68.947a.234.234,0,1,0,.468,0V812.57A.234.234,0,0,0,3559.448,812.336Z" transform="translate(-3489.923 -812.336)" fill="#ccc0c0"/>
                      <path id="Trazado_1044296" data-name="Trazado 1044296" d="M3661.2,812.336a.234.234,0,0,0-.234.234v68.947a.234.234,0,0,0,.468,0V812.57A.234.234,0,0,0,3661.2,812.336Z" transform="translate(-3582.214 -812.336)" fill="#ccc0c0"/>
                    </g>
                    <g id="Grupo_1200237" data-name="Grupo 1200237" transform="translate(0 6.605)">
                      <path id="Trazado_1044297" data-name="Trazado 1044297" d="M2834.62,883.393H2742.2a.271.271,0,1,0,0,.542h92.417a.271.271,0,1,0,0-.542Z" transform="translate(-2741.932 -883.393)" fill="#ccc0c0"/>
                      <path id="Trazado_1044298" data-name="Trazado 1044298" d="M2834.62,989.883H2742.2a.271.271,0,0,0,0,.542h92.417a.271.271,0,0,0,0-.542Z" transform="translate(-2741.932 -979.984)" fill="#ccc0c0"/>
                      <path id="Trazado_1044299" data-name="Trazado 1044299" d="M2834.62,1096.37H2742.2a.271.271,0,1,0,0,.542h92.417a.271.271,0,1,0,0-.542Z" transform="translate(-2741.932 -1076.573)" fill="#ccc0c0"/>
                      <path id="Trazado_1044300" data-name="Trazado 1044300" d="M2834.62,1202.86H2742.2a.271.271,0,1,0,0,.542h92.417a.271.271,0,1,0,0-.542Z" transform="translate(-2741.932 -1173.164)" fill="#ccc0c0"/>
                      <path id="Trazado_1044301" data-name="Trazado 1044301" d="M2834.62,1309.35H2742.2a.271.271,0,1,0,0,.542h92.417a.271.271,0,1,0,0-.542Z" transform="translate(-2741.932 -1269.755)" fill="#ccc0c0"/>
                      <path id="Trazado_1044302" data-name="Trazado 1044302" d="M2834.62,1415.84H2742.2a.271.271,0,0,0,0,.542h92.417a.271.271,0,0,0,0-.542Z" transform="translate(-2741.932 -1366.346)" fill="#ccc0c0"/>
                      <path id="Trazado_1044303" data-name="Trazado 1044303" d="M2834.62,1522.33H2742.2a.271.271,0,0,0,0,.542h92.417a.271.271,0,0,0,0-.542Z" transform="translate(-2741.932 -1462.938)" fill="#ccc0c0"/>
                    </g>
                  </g>
                </g>
              </g>
            </g>
            <g id="Grupo_1200242" data-name="Grupo 1200242" transform="translate(54.154)">
              <path id="Trazado_1044304" data-name="Trazado 1044304" d="M3261.238,740.74a.372.372,0,0,1,0-.744l34.966-.384a5.746,5.746,0,0,0,5.663-5.726V659.321a5.207,5.207,0,0,0-5.2-5.2h-46.494a.372.372,0,0,1,0-.744h46.494a5.952,5.952,0,0,1,5.946,5.945v74.565a6.492,6.492,0,0,1-6.4,6.469l-34.967.385Z" transform="translate(-3249.796 -653.376)" fill="#302626"/>
            </g>
            <g id="Grupo_1200245" data-name="Grupo 1200245" transform="translate(10.554 21.305)">
              <g id="Grupo_1200243" data-name="Grupo 1200243" transform="translate(59.902)">
                <path id="Trazado_1044305" data-name="Trazado 1044305" d="M3519.327,917.357l-3.206,5.012-18.061-10.306,3.205-5.012Z" transform="translate(-3491.284 -904.776)" fill="#ff9d1c"/>
                <path id="Trazado_1044306" data-name="Trazado 1044306" d="M3425.16,882.573l7.421,12.718,7.948-12.43Z" transform="translate(-3425.16 -882.573)" fill="#ff9d1c"/>
              </g>
              <path id="Trazado_1044307" data-name="Trazado 1044307" d="M3626.633,1091.2l8.041-.033-.076,28.562-8.037.064Z" transform="translate(-3547.938 -1071.78)" fill="#36ceef"/>
              <path id="Trazado_1044308" data-name="Trazado 1044308" d="M3488.72,1031.8l8.041-.027-.083,34.417-8.037.064Z" transform="translate(-3422.838 -1017.901)" fill="#e2dacc"/>
              <path id="Trazado_1044309" data-name="Trazado 1044309" d="M3351.836,950.38l8.042-.022-.091,42.212-8.037.067Z" transform="translate(-3298.672 -944.057)" fill="#86b60c"/>
              <g id="Grupo_1200244" data-name="Grupo 1200244" transform="translate(0 0.939)">
                <ellipse id="Elipse_13421" data-name="Elipse 13421" cx="2.876" cy="2.716" rx="2.876" ry="2.716" transform="translate(0.227)" fill="#ff9d1c"/>
                <ellipse id="Elipse_13422" data-name="Elipse 13422" cx="2.876" cy="2.716" rx="2.876" ry="2.716" transform="translate(0.152 15.071)" fill="#ff9d1c"/>
                <ellipse id="Elipse_13423" data-name="Elipse 13423" cx="2.876" cy="2.716" rx="2.876" ry="2.716" transform="translate(0.076 30.143)" fill="#ff9d1c"/>
                <ellipse id="Elipse_13424" data-name="Elipse 13424" cx="2.876" cy="2.716" rx="2.876" ry="2.716" transform="translate(0 45.213)" fill="#ff9d1c"/>
              </g>
            </g>
            <g id="Grupo_1200246" data-name="Grupo 1200246" transform="translate(20.842 24.589)">
              <path id="Trazado_1044310" data-name="Trazado 1044310" d="M2891.43,921.9h0Z" transform="translate(-2891.43 -921.526)" fill="#4a6c62"/>
              <rect id="Rectángulo_415792" data-name="Rectángulo 415792" width="36.643" height="0.744" fill="#210000"/>
            </g>
            <g id="Grupo_1200247" data-name="Grupo 1200247" transform="translate(19.232 39.66)">
              <path id="Trazado_1044311" data-name="Trazado 1044311" d="M2874.11,1084.03h0Z" transform="translate(-2874.11 -1083.658)" fill="#4a6c62"/>
              <rect id="Rectángulo_415793" data-name="Rectángulo 415793" width="38.925" height="0.744" fill="#210000"/>
            </g>
            <g id="Grupo_1200248" data-name="Grupo 1200248" transform="translate(19.224 54.633)">
              <path id="Trazado_1044312" data-name="Trazado 1044312" d="M2874.11,1245.15l38.925.094Z" transform="translate(-2874.102 -1244.774)" fill="#4a6c62"/>
              <rect id="Rectángulo_415794" data-name="Rectángulo 415794" width="0.744" height="38.925" transform="translate(0 0.744) rotate(-89.862)" fill="#210000"/>
            </g>
            <g id="Grupo_1200249" data-name="Grupo 1200249" transform="translate(20.842 69.802)">
              <path id="Trazado_1044313" data-name="Trazado 1044313" d="M2891.43,1408.3h0Z" transform="translate(-2891.43 -1407.928)" fill="#4a6c62"/>
              <rect id="Rectángulo_415795" data-name="Rectángulo 415795" width="37.315" height="0.744" fill="#210000"/>
            </g>
          </g>
          <g id="Schedule_3_" transform="translate(0 98.027)">
            <g id="Graph_3_4_" transform="translate(0 0)">
              <g id="Grupo_1200251" data-name="Grupo 1200251" transform="translate(0.372 0.372)">
                <path id="Trazado_1044314" data-name="Trazado 1044314" d="M657.962,1819.362H535.98a5.105,5.105,0,0,1-5.105-5.105v-97.212a5.105,5.105,0,0,1,5.105-5.105H657.962a5.105,5.105,0,0,1,5.105,5.105v97.212A5.106,5.106,0,0,1,657.962,1819.362Z" transform="translate(-530.875 -1711.939)" fill="#fff7ed"/>
                <g id="Grupo_1200250" data-name="Grupo 1200250" transform="translate(0 0)">
                  <path id="Trazado_1044315" data-name="Trazado 1044315" d="M663.067,1723.875H530.875v-8.553a3.378,3.378,0,0,1,3.378-3.378H659.689a3.378,3.378,0,0,1,3.378,3.378v8.553Z" transform="translate(-530.875 -1711.944)" fill="#273603"/>
                </g>
              </g>
              <g id="Grupo_1200257" data-name="Grupo 1200257" transform="translate(8.986 18.236)">
                <g id="Grupo_1200256" data-name="Grupo 1200256">
                  <g id="Grupo_1200255" data-name="Grupo 1200255">
                    <g id="Grupo_1200254" data-name="Grupo 1200254">
                      <g id="Grupo_1200252" data-name="Grupo 1200252" transform="translate(8.283)">
                        <path id="Trazado_1044316" data-name="Trazado 1044316" d="M712.938,1904.12a.29.29,0,0,0-.29.29v85.5a.29.29,0,0,0,.58,0v-85.5A.29.29,0,0,0,712.938,1904.12Z" transform="translate(-712.648 -1904.12)" fill="#ccc0c0"/>
                        <path id="Trazado_1044317" data-name="Trazado 1044317" d="M845,1904.12a.29.29,0,0,0-.29.29v85.5a.29.29,0,0,0,.58,0v-85.5A.29.29,0,0,0,845,1904.12Z" transform="translate(-832.435 -1904.12)" fill="#ccc0c0"/>
                        <path id="Trazado_1044318" data-name="Trazado 1044318" d="M977.062,1904.12a.29.29,0,0,0-.29.29v85.5a.29.29,0,0,0,.58,0v-85.5A.289.289,0,0,0,977.062,1904.12Z" transform="translate(-952.22 -1904.12)" fill="#ccc0c0"/>
                        <path id="Trazado_1044319" data-name="Trazado 1044319" d="M1109.129,1904.12a.29.29,0,0,0-.29.29v85.5a.29.29,0,0,0,.58,0v-85.5A.29.29,0,0,0,1109.129,1904.12Z" transform="translate(-1072.011 -1904.12)" fill="#ccc0c0"/>
                        <path id="Trazado_1044320" data-name="Trazado 1044320" d="M1241.189,1904.12a.29.29,0,0,0-.29.29v85.5a.29.29,0,0,0,.58,0v-85.5A.29.29,0,0,0,1241.189,1904.12Z" transform="translate(-1191.795 -1904.12)" fill="#ccc0c0"/>
                        <path id="Trazado_1044321" data-name="Trazado 1044321" d="M1373.249,1904.12a.29.29,0,0,0-.29.29v85.5a.29.29,0,0,0,.58,0v-85.5A.289.289,0,0,0,1373.249,1904.12Z" transform="translate(-1311.58 -1904.12)" fill="#ccc0c0"/>
                        <path id="Trazado_1044322" data-name="Trazado 1044322" d="M1505.309,1904.12a.29.29,0,0,0-.29.29v85.5a.29.29,0,1,0,.58,0v-85.5A.289.289,0,0,0,1505.309,1904.12Z" transform="translate(-1431.364 -1904.12)" fill="#ccc0c0"/>
                        <path id="Trazado_1044323" data-name="Trazado 1044323" d="M1637.369,1904.12a.29.29,0,0,0-.29.29v85.5a.29.29,0,0,0,.58,0v-85.5A.289.289,0,0,0,1637.369,1904.12Z" transform="translate(-1551.149 -1904.12)" fill="#ccc0c0"/>
                        <path id="Trazado_1044324" data-name="Trazado 1044324" d="M1763.559,1904.12a.29.29,0,0,0-.29.29v85.5a.29.29,0,0,0,.58,0v-85.5A.289.289,0,0,0,1763.559,1904.12Z" transform="translate(-1665.609 -1904.12)" fill="#ccc0c0"/>
                      </g>
                      <g id="Grupo_1200253" data-name="Grupo 1200253" transform="translate(0 8.191)">
                        <path id="Trazado_1044325" data-name="Trazado 1044325" d="M738.488,1992.24H623.877a.336.336,0,1,0,0,.672H738.488a.336.336,0,0,0,0-.672Z" transform="translate(-623.541 -1992.24)" fill="#ccc0c0"/>
                        <path id="Trazado_1044326" data-name="Trazado 1044326" d="M738.488,2124.3H623.877a.336.336,0,1,0,0,.672H738.488a.336.336,0,0,0,0-.672Z" transform="translate(-623.541 -2112.024)" fill="#ccc0c0"/>
                        <path id="Trazado_1044327" data-name="Trazado 1044327" d="M738.488,2256.36H623.877a.336.336,0,1,0,0,.672H738.488a.336.336,0,0,0,0-.672Z" transform="translate(-623.541 -2231.809)" fill="#ccc0c0"/>
                        <path id="Trazado_1044328" data-name="Trazado 1044328" d="M738.488,2388.43H623.877a.336.336,0,1,0,0,.672H738.488a.336.336,0,0,0,0-.672Z" transform="translate(-623.541 -2351.602)" fill="#ccc0c0"/>
                        <path id="Trazado_1044329" data-name="Trazado 1044329" d="M738.488,2520.49H623.877a.336.336,0,1,0,0,.672H738.488a.336.336,0,0,0,0-.672Z" transform="translate(-623.541 -2471.386)" fill="#ccc0c0"/>
                        <path id="Trazado_1044330" data-name="Trazado 1044330" d="M738.488,2652.55H623.877a.336.336,0,1,0,0,.672H738.488a.336.336,0,0,0,0-.672Z" transform="translate(-623.541 -2591.171)" fill="#ccc0c0"/>
                        <path id="Trazado_1044331" data-name="Trazado 1044331" d="M738.488,2784.61H623.877a.336.336,0,1,0,0,.672H738.488a.336.336,0,0,0,0-.672Z" transform="translate(-623.541 -2710.955)" fill="#ccc0c0"/>
                      </g>
                    </g>
                  </g>
                </g>
              </g>
              <g id="Grupo_1200258" data-name="Grupo 1200258" transform="translate(67.621)">
                <path id="Trazado_1044332" data-name="Trazado 1044332" d="M1304.575,1815.982a.372.372,0,0,1-.008-.744l10.664-.228a3.774,3.774,0,0,0,3.672-3.752V1711.6a2.918,2.918,0,0,0-2.915-2.915H1254.7a.372.372,0,0,1,0-.744h61.285a3.663,3.663,0,0,1,3.659,3.658v99.658a4.5,4.5,0,0,1-4.4,4.5l-10.663.228Z" transform="translate(-1254.331 -1707.942)" fill="#302626"/>
              </g>
              <path id="Trazado_1044333" data-name="Trazado 1044333" d="M1573.8,2172.911l16.051-.061-.151,53.7-16.045.119Z" transform="translate(-1476.356 -2129.635)" fill="#f2ab63"/>
              <path id="Trazado_1044334" data-name="Trazado 1044334" d="M1298.469,2065.7l16.052-.051-.167,63.853-16.045.119Z" transform="translate(-1226.601 -2032.399)" fill="#ff9d1c"/>
              <path id="Trazado_1044335" data-name="Trazado 1044335" d="M739.5,2129.688l16.052-.058-.128,58.292-16.045.12Z" transform="translate(-719.628 -2090.432)" fill="#86b60c"/>
              <path id="Trazado_1044336" data-name="Trazado 1044336" d="M1025.183,1941.368l16.054-.038-.182,75.6-16.045.12Z" transform="translate(-978.706 -1919.635)" fill="#36ceef"/>
              <g id="Grupo_1200259" data-name="Grupo 1200259" transform="translate(0 77.845)">
                <path id="Trazado_1044337" data-name="Trazado 1044337" d="M531.61,2576a4.737,4.737,0,0,1-4.736-4.737v-25.5a.372.372,0,0,1,.744,0v25.5a3.993,3.993,0,0,0,4.03,3.993l31.15-.289h0a.372.372,0,0,1,0,.744l-31.15.289Z" transform="translate(-526.874 -2545.388)" fill="#302626"/>
              </g>
            </g>
          </g>
        </g>
        <g id="Person" transform="translate(5196.135 3064.2)">
          <g id="Grupo_1200296" data-name="Grupo 1200296" transform="translate(21.445)">
            <path id="Trazado_1044338" data-name="Trazado 1044338" d="M1552.562,2266.46l-11.4,10.858,2.345,22.683s17.78-.493,34.395-26.751C1578.207,2272.551,1552.562,2266.46,1552.562,2266.46Z" transform="translate(-1525.033 -2150.226)" fill="#f79b79"/>
            <path id="Trazado_1044339" data-name="Trazado 1044339" d="M1592.7,1885.08s-10.485,9.8-21.272,43.841c0,2.6,4.426,11.175,19.862,17.582C1593.392,1943.872,1635.8,1913.01,1592.7,1885.08Z" transform="translate(-1552.481 -1804.297)" fill="#86b60c"/>
            <g id="Grupo_1200262" data-name="Grupo 1200262" transform="translate(4.236 82.097)">
              <g id="Grupo_1200260" data-name="Grupo 1200260">
                <path id="Trazado_1044340" data-name="Trazado 1044340" d="M1428.463,1899.22c.117.52.55.4.675,1.027,2.2,16.376,13.753,56.594,5.136,63.18-4.373,3.343-8.166,5.486-13.146.782-12.206-11.531-6.649-56.559-6.629-62.8C1416.2,1900.016,1427.941,1899.35,1428.463,1899.22Z" transform="translate(-1413.219 -1899.22)" fill="#f79b79"/>
              </g>
              <g id="Grupo_1200261" data-name="Grupo 1200261" transform="translate(20.291 25.499)">
                <path id="Trazado_1044341" data-name="Trazado 1044341" d="M1634.836,2202.034h-.013a.372.372,0,0,1-.359-.385c.006-.172.542-17.292-2.938-27.624a.372.372,0,1,1,.7-.237c3.522,10.46,2.982,27.713,2.976,27.886A.372.372,0,0,1,1634.836,2202.034Z" transform="translate(-1631.507 -2173.535)" fill="#302626"/>
              </g>
            </g>
            <g id="Grupo_1200276" data-name="Grupo 1200276" transform="translate(40.215)">
              <g id="Grupo_1200274" data-name="Grupo 1200274" transform="translate(16.874)">
                <path id="Trazado_1044342" data-name="Trazado 1044342" d="M2024.754,1045.707a29.524,29.524,0,0,0,2.718,6.6c4.138,5.522,9.326,9.13,16.242,9.13a21.708,21.708,0,0,0,14.645-5.95c1.962-1.8,1.609-2.056,2.787-4.452a40.232,40.232,0,0,0,2.949-12.373c.143-6.24.02-13.145-5.026-16.325a19.893,19.893,0,0,1-1.665-1.474c-4-4.834-8.712-4.834-13.69-4.834-7.407,0-17.067,3.314-19.277,12.667A40.693,40.693,0,0,0,2024.754,1045.707Z" transform="translate(-2019.799 -1016.027)" fill="#3a2b2e"/>
                <path id="Trazado_1044343" data-name="Trazado 1044343" d="M2097.2,1413.571l-.2-29.93-19.86,9.249.23,22.467a4.074,4.074,0,0,1-2.187,3.653l-4.1,4.891s7.615,24.28,35.186,0c-3.542-1.006-3.373-5.552-6.249-6.479A4.072,4.072,0,0,1,2097.2,1413.571Z" transform="translate(-2062.783 -1349.469)" fill="#f79b79"/>
                <path id="Trazado_1044344" data-name="Trazado 1044344" d="M2156.206,1442.747c-7.69,1.73-17.1-.01-19.917-3.141l-.079-7.687,19.887-5.25Z" transform="translate(-2121.857 -1388.499)" fill="#ef8564"/>
                <path id="Trazado_1044345" data-name="Trazado 1044345" d="M2108.839,1116.394c-.877,13.21-4.9,22.232-14.056,22.43-13.765.3-16.7-10.484-16.868-24.5-.158-13.238,8.1-20.941,17.232-20.334S2109.716,1103.185,2108.839,1116.394Z" transform="translate(-2068.979 -1086.714)" fill="#f79b79"/>
                <ellipse id="Elipse_13425" data-name="Elipse 13425" cx="0.832" cy="1.614" rx="0.832" ry="1.614" transform="translate(30.547 27.11)" fill="#3a2b2e"/>
                <ellipse id="Elipse_13426" data-name="Elipse 13426" cx="0.832" cy="1.614" rx="0.832" ry="1.614" transform="translate(17.098 27.11)" fill="#3a2b2e"/>
                <g id="Grupo_1200266" data-name="Grupo 1200266" transform="translate(0 27.627)">
                  <path id="Trazado_1044346" data-name="Trazado 1044346" d="M1990.88,1315.978s-4.877-5.212-7.957-1.255a5.433,5.433,0,0,0-1.091,3.871c.293,2.921,2.209,7.5,9.5,6.9C1991.3,1325.816,1990.88,1315.978,1990.88,1315.978Z" transform="translate(-1981.805 -1313.239)" fill="#f79b79"/>
                  <g id="Grupo_1200265" data-name="Grupo 1200265" transform="translate(1.866 3.603)">
                    <g id="Grupo_1200263" data-name="Grupo 1200263">
                      <path id="Trazado_1044347" data-name="Trazado 1044347" d="M2007.687,1357.423a.372.372,0,0,1-.341-.224,7.772,7.772,0,0,0-5.166-4.458.372.372,0,0,1,.141-.73,8.378,8.378,0,0,1,5.708,4.893.372.372,0,0,1-.193.489A.377.377,0,0,1,2007.687,1357.423Z" transform="translate(-2001.879 -1352.004)" fill="#302626"/>
                    </g>
                    <g id="Grupo_1200264" data-name="Grupo 1200264" transform="translate(1.61 1.933)">
                      <path id="Trazado_1044348" data-name="Trazado 1044348" d="M2019.57,1374.938a.372.372,0,0,1-.239-.657l1.669-1.4a.372.372,0,0,1,.478.57l-1.67,1.4A.371.371,0,0,1,2019.57,1374.938Z" transform="translate(-2019.198 -1372.795)" fill="#302626"/>
                    </g>
                  </g>
                </g>
                <g id="Grupo_1200270" data-name="Grupo 1200270" transform="translate(36.861 27.731)">
                  <path id="Trazado_1044349" data-name="Trazado 1044349" d="M2378.35,1317.655s4.279-5.714,7.772-2.117a5.434,5.434,0,0,1,1.507,3.728c.028,2.935-1.377,7.693-8.688,7.893C2379.007,1327.482,2378.35,1317.655,2378.35,1317.655Z" transform="translate(-2378.35 -1314.35)" fill="#f79b79"/>
                  <g id="Grupo_1200269" data-name="Grupo 1200269" transform="translate(1.668 3.416)">
                    <g id="Grupo_1200267" data-name="Grupo 1200267">
                      <path id="Trazado_1044350" data-name="Trazado 1044350" d="M2396.67,1357.08a.372.372,0,0,1-.355-.481,8.377,8.377,0,0,1,5.139-5.487.372.372,0,0,1,.219.71h0a7.773,7.773,0,0,0-4.648,5A.372.372,0,0,1,2396.67,1357.08Z" transform="translate(-2396.298 -1351.096)" fill="#302626"/>
                    </g>
                    <g id="Grupo_1200268" data-name="Grupo 1200268" transform="translate(1.844 2.28)">
                      <path id="Trazado_1044351" data-name="Trazado 1044351" d="M2418.322,1377.578a.37.37,0,0,1-.206-.062l-1.812-1.208a.372.372,0,0,1,.412-.619l1.813,1.208a.372.372,0,0,1-.207.681Z" transform="translate(-2416.138 -1375.626)" fill="#302626"/>
                    </g>
                  </g>
                </g>
                <g id="Grupo_1200271" data-name="Grupo 1200271" transform="translate(13.683 23.05)">
                  <path id="Trazado_1044352" data-name="Trazado 1044352" d="M2129.38,1265.892a.372.372,0,0,1-.239-.657c2.928-2.445,7.258-.53,7.441-.447a.372.372,0,0,1-.306.678h0c-.041-.018-4.091-1.8-6.658.34A.365.365,0,0,1,2129.38,1265.892Z" transform="translate(-2129.008 -1263.996)" fill="#302626"/>
                </g>
                <path id="Trazado_1044353" data-name="Trazado 1044353" d="M2056.98,1082.581c.412-2.368.5-4.781,1-7.137a7.064,7.064,0,0,1,.976-3.047,5.848,5.848,0,0,1,2.572-1.709,15.975,15.975,0,0,1,4.235-.692l3.975-.287c2.446-.177,5.106-.444,6.876-2.142.989-.948,1.728-2.851,3.25-2.792s2.65,1.343,3.682,2.346c4.4,4.278,3.678,12.252,4.368,14.5,2.587-3.456,3.928-8.843,2.388-12.886a20.225,20.225,0,0,0-8.352-9.591,16.169,16.169,0,0,0-4.735-2.13,15.042,15.042,0,0,0-7.851.443,41.942,41.942,0,0,0-7.273,3.224,14.384,14.384,0,0,0-3.466,2.283,11.1,11.1,0,0,0-2.3,3.593C2054.381,1071.066,2056.328,1081.688,2056.98,1082.581Z" transform="translate(-2048.636 -1052.901)" fill="#3a2b2e"/>
                <g id="Grupo_1200272" data-name="Grupo 1200272" transform="translate(23.074 26.499)">
                  <path id="Trazado_1044354" data-name="Trazado 1044354" d="M2231.874,1312.522a5.4,5.4,0,0,1-1.583-.284.372.372,0,0,1,.223-.71c1.106.347,1.876.335,2.225-.034.432-.456.265-1.475-.036-2.276a8.626,8.626,0,0,1-.573-2.323,9.183,9.183,0,0,1,1.149-5.627.372.372,0,0,1,.617.416,8.619,8.619,0,0,0-1.024,5.149,7.918,7.918,0,0,0,.529,2.124c.236.629.7,2.186-.12,3.049A1.846,1.846,0,0,1,2231.874,1312.522Z" transform="translate(-2230.031 -1301.105)" fill="#302626"/>
                </g>
                <g id="Grupo_1200273" data-name="Grupo 1200273" transform="translate(28.258 23.099)">
                  <path id="Trazado_1044355" data-name="Trazado 1044355" d="M2293.335,1266.361a.37.37,0,0,1-.191-.053,6.834,6.834,0,0,0-6.784-.26.372.372,0,0,1-.38-.639,7.576,7.576,0,0,1,7.546.261.372.372,0,0,1-.192.691Z" transform="translate(-2285.8 -1264.527)" fill="#302626"/>
                </g>
                <path id="Trazado_1044356" data-name="Trazado 1044356" d="M2204.77,1465.65l7.981-.119S2210.731,1471.61,2204.77,1465.65Z" transform="translate(-2184.044 -1423.748)" fill="#fff"/>
              </g>
              <path id="Trazado_1044357" data-name="Trazado 1044357" d="M1856.064,1752.53s-13.476,13.37-27.176,1.282c-.264.081-20.922,4.361-28.611,11.04.638,2.724,7.259,64.348,1.476,95.761,5.6,2.964,37.783,18.288,77.741,3.82-1.385-34.42-1.376-77.816,8.419-98.853A67.978,67.978,0,0,0,1856.064,1752.53Z" transform="translate(-1800.277 -1684.068)" fill="#86b60c"/>
              <g id="Grupo_1200275" data-name="Grupo 1200275" transform="translate(28.898 68.089)">
                <path id="Trazado_1044358" data-name="Trazado 1044358" d="M2122.955,1755.235a16.347,16.347,0,0,1-2.359-.169,16.565,16.565,0,0,1-9.322-4.829.372.372,0,0,1,.522-.53c4.779,4.706,10.6,5.959,17.3,3.724a29,29,0,0,0,8.714-4.82.372.372,0,1,1,.485.564,29.253,29.253,0,0,1-8.964,4.962A20.141,20.141,0,0,1,2122.955,1755.235Z" transform="translate(-2111.163 -1748.521)" fill="#302626"/>
              </g>
            </g>
            <g id="Grupo_1200283" data-name="Grupo 1200283" transform="translate(0 46.384)">
              <path id="Trazado_1044359" data-name="Trazado 1044359" d="M1378.155,1730.268c-2.653-3.8-4.481-10.7-5-14.374a8.1,8.1,0,0,1,1.816-1.285c4.6-2.895,12.439-3.422,16.4-4.064,1.035,5.59,1.847,15.815,1.847,15.815s-.2,1.727-.74,4.462C1387.548,1729.1,1383.252,1731.41,1378.155,1730.268Z" transform="translate(-1372.639 -1692.37)" fill="#f79b79"/>
              <path id="Trazado_1044360" data-name="Trazado 1044360" d="M1367.7,1531.558c.051-.713,4.43,1.607,4.382.891a6.276,6.276,0,0,0-.122-1.15,3.611,3.611,0,0,0,3.546-.414c2.685-1.956,3.833-.713,4.789-.357.244.091.352.375.566.225l.006,0c.117-.083.472.54.48.4.538-10.007.156-16.29,2.311-16.123,2.614.117,2.889,19.374,2.889,19.374l-17.871,6.961A34.694,34.694,0,0,1,1367.7,1531.558Z" transform="translate(-1367.645 -1515.02)" fill="#f79b79"/>
              <path id="Trazado_1044361" data-name="Trazado 1044361" d="M1519.8,1622.9c-.085,1.464-.337,6.165-.316,10.112a43.4,43.4,0,0,1-.2,4.351c-.363,3.8-1.292,11.573-5.485,12.338-.3.054-6.958-3.165-4.823-11.1a9.53,9.53,0,0,1,2.851-4.524,15.369,15.369,0,0,0,3.622-5.95c.131-1.309,1.612-6.625,3.687-6.081A.852.852,0,0,1,1519.8,1622.9Z" transform="translate(-1495.458 -1612.064)" fill="#f79b79"/>
              <g id="Grupo_1200278" data-name="Grupo 1200278" transform="translate(8.458 11.551)">
                <path id="Trazado_1044362" data-name="Trazado 1044362" d="M1458.661,1641.733a26.3,26.3,0,0,0,1.774,5.745c.151.394.82,2.709,1.923,2.456,1.009-.24,1.639-1.87.51-8.531a2.535,2.535,0,0,0-1.373-1.893C1459.621,1638.633,1458.472,1640.561,1458.661,1641.733Z" transform="translate(-1458.641 -1639.289)" fill="#f79b79"/>
                <g id="Grupo_1200277" data-name="Grupo 1200277" transform="translate(0.254 2.367)">
                  <path id="Trazado_1044363" data-name="Trazado 1044363" d="M1464.008,1673.208a1.475,1.475,0,0,1-.894-.344,6.045,6.045,0,0,1-1.739-4.063.372.372,0,1,1,.74-.073,5.4,5.4,0,0,0,1.454,3.548.724.724,0,0,0,.481.186c.613-.146,2.168-.578,1.033-7.278a.372.372,0,0,1,.733-.124c.512,3.02.552,5.126.123,6.438a2.268,2.268,0,0,1-1.734,1.691l-.029.006A1.155,1.155,0,0,1,1464.008,1673.208Z" transform="translate(-1461.374 -1664.75)" fill="#302626"/>
                </g>
              </g>
              <g id="Grupo_1200279" data-name="Grupo 1200279" transform="translate(13.124 18.059)">
                <path id="Trazado_1044364" data-name="Trazado 1044364" d="M1509.466,1723.64a.372.372,0,0,1-.364-.3,13.717,13.717,0,0,1,2.013-10.223,15.53,15.53,0,0,1,3.312-3.743.372.372,0,0,1,.449.593h0a15.086,15.086,0,0,0-3.149,3.574,12.762,12.762,0,0,0-1.9,9.653.372.372,0,0,1-.292.438A.389.389,0,0,1,1509.466,1723.64Z" transform="translate(-1508.833 -1709.3)" fill="#302626"/>
              </g>
              <g id="Grupo_1200282" data-name="Grupo 1200282" transform="translate(0.001 12.523)">
                <path id="Trazado_1044365" data-name="Trazado 1044365" d="M1414.342,1652.08a26.293,26.293,0,0,0,1.44,5.837c.128.4.663,2.752,1.778,2.563,1.021-.181,1.744-1.772,1-8.487a2.536,2.536,0,0,0-1.262-1.969C1415.48,1649.041,1414.221,1650.9,1414.342,1652.08Z" transform="translate(-1409.995 -1649.747)" fill="#f79b79"/>
                <path id="Trazado_1044366" data-name="Trazado 1044366" d="M1371.143,1664.846a26.311,26.311,0,0,0,2.285,5.562c.186.379,1.061,2.624,2.136,2.273.984-.33,1.464-2.01-.261-8.542a2.537,2.537,0,0,0-1.538-1.762C1371.82,1661.672,1370.849,1663.695,1371.143,1664.846Z" transform="translate(-1370.772 -1661.071)" fill="#f79b79"/>
                <g id="Grupo_1200280" data-name="Grupo 1200280" transform="translate(5.168 1.874)">
                  <path id="Trazado_1044367" data-name="Trazado 1044367" d="M1425.531,1679.151c-.85,0-1.582-1.034-2.236-3.15l-.025-.081a.372.372,0,1,1,.709-.226l.027.088c.807,2.613,1.459,2.641,1.582,2.621a1.067,1.067,0,0,0,.679-.511c.459-.68,1.072-2.563.021-7.532a.372.372,0,1,1,.728-.154c1.053,4.975.509,7.152-.131,8.1a1.784,1.784,0,0,1-1.168.828A1.03,1.03,0,0,1,1425.531,1679.151Z" transform="translate(-1423.252 -1669.91)" fill="#302626"/>
                </g>
                <g id="Grupo_1200281" data-name="Grupo 1200281" transform="translate(0 2.695)">
                  <path id="Trazado_1044368" data-name="Trazado 1044368" d="M1372.106,1687.6c-.924,0-1.837-.981-2.781-2.987a29.055,29.055,0,0,1-1.66-4.693.372.372,0,0,1,.721-.184,28.224,28.224,0,0,0,1.613,4.561c.81,1.72,1.613,2.649,2.206,2.551.7-.254,1.272-1.381-.378-7.633a.372.372,0,0,1,.719-.19,23.852,23.852,0,0,1,1.085,6.485c-.063,1.143-.448,1.795-1.212,2.051l-.044.012A1.294,1.294,0,0,1,1372.106,1687.6Z" transform="translate(-1367.653 -1678.744)" fill="#302626"/>
                </g>
              </g>
            </g>
            <g id="Grupo_1200284" data-name="Grupo 1200284" transform="translate(41.296 97.431)">
              <path id="Trazado_1044369" data-name="Trazado 1044369" d="M1814.963,2104.947h0a.371.371,0,0,1-.371-.373c0-.275.049-27.631-2.681-39.938a.372.372,0,1,1,.726-.161c2.748,12.387,2.7,39.825,2.7,40.1A.372.372,0,0,1,1814.963,2104.947Z" transform="translate(-1811.901 -2064.184)" fill="#302626"/>
            </g>
            <g id="Grupo_1200285" data-name="Grupo 1200285" transform="translate(64.642 9.6)">
              <path id="Trazado_1044370" data-name="Trazado 1044370" d="M2063.429,1129.5a.372.372,0,0,1-.18-.7,13.345,13.345,0,0,1,7.249-1.187c.718.047,1.444.116,2.146.184a28.467,28.467,0,0,0,5.018.187,8.108,8.108,0,0,0,6.031-2.92,11.46,11.46,0,0,0,1.1-2.082c.133-.3.27-.607.416-.908a5.8,5.8,0,0,1,2.338-2.731.372.372,0,0,1,.343.66,4.929,4.929,0,0,0-2.011,2.4c-.141.29-.275.593-.406.886a12.164,12.164,0,0,1-1.175,2.214,8.839,8.839,0,0,1-6.573,3.227,29.062,29.062,0,0,1-5.15-.188c-.7-.067-1.417-.137-2.123-.182a12.66,12.66,0,0,0-6.84,1.1A.367.367,0,0,1,2063.429,1129.5Z" transform="translate(-2063.057 -1119.302)" fill="#3a2b2e"/>
            </g>
            <g id="Grupo_1200287" data-name="Grupo 1200287" transform="translate(100.109 142.44)">
              <g id="Grupo_1200286" data-name="Grupo 1200286">
                <path id="Trazado_1044371" data-name="Trazado 1044371" d="M2445.226,2588.943c-1.047-.982-.564-8.914-.041-9.288,10.884-9.575,41.351-35.6,51.21-30.649,5,2.511,7.428,6.264,5.041,12.844-5.568,15.345-41.694,28.946-50.619,32.613C2449.036,2592.493,2447.161,2590.758,2445.226,2588.943Z" transform="translate(-2444.605 -2548.386)" fill="#f79b79"/>
              </g>
            </g>
            <path id="Trazado_1044372" data-name="Trazado 1044372" d="M2682.58,2210.2s7.127,17.788,14.695,29.5c-.491-.782,20.9-6.324,20.9-6.324s-.37-10.152-12.795-41.094C2704.973,2191.775,2682.58,2210.2,2682.58,2210.2Z" transform="translate(-2560.351 -2082.94)" fill="#f79b79"/>
            <path id="Trazado_1044373" data-name="Trazado 1044373" d="M2559.374,1889.99s11.4,7.054,28.827,51.483c.479,2.552-11.879,10.563-29.225,14.133C2551.045,1946.12,2522.971,1920.909,2559.374,1889.99Z" transform="translate(-2432.076 -1808.751)" fill="#86b60c"/>
            <g id="Grupo_1200292" data-name="Grupo 1200292" transform="translate(66.58 171.26)">
              <g id="Grupo_1200291" data-name="Grupo 1200291">
                <g id="Grupo_1200290" data-name="Grupo 1200290">
                  <g id="Grupo_1200289" data-name="Grupo 1200289">
                    <path id="Trazado_1044374" data-name="Trazado 1044374" d="M2304.984,2862.34s-14.956-3.985-20.8-3.917c.114.087,4.478,15.726,8.1,20.477,3.425.078,5.93,1.277,13.027-3.221C2304.961,2873.771,2304.984,2862.34,2304.984,2862.34Z" transform="translate(-2265.566 -2858.422)" fill="#f79b79"/>
                    <path id="Trazado_1044375" data-name="Trazado 1044375" d="M2100.214,2864.875a.419.419,0,0,1,.409.157l0,.007a.406.406,0,0,1-.224.635c-4.5,1.2-16.52,4.64-16.246,6.982.187.662.929,1.143,3.093,1.064-1.333.6-2.171,1.223-2.135,1.836.312,1.406,3.074,2.164,16.479-.748a6.857,6.857,0,0,1,1.258-.193.893.893,0,0,1,.81,1.435l-.02.025h0c-2.155,1.151-4.438,2.452-6.253,3.676h9.658l3.574-.849-8.1-20.477s-18.948,4.193-18.612,7.075C2084.3,2866.875,2088.961,2867.051,2100.214,2864.875Z" transform="translate(-2083.91 -2858.425)" fill="#f79b79"/>
                    <g id="Grupo_1200288" data-name="Grupo 1200288" transform="translate(2.969 10.523)">
                      <path id="Trazado_1044376" data-name="Trazado 1044376" d="M2116.222,2976.774a.372.372,0,0,1-.106-.728l14.829-4.4a.372.372,0,0,1,.211.712l-14.828,4.4A.346.346,0,0,1,2116.222,2976.774Z" transform="translate(-2115.851 -2971.63)" fill="#302626"/>
                    </g>
                  </g>
                </g>
              </g>
            </g>
            <g id="Grupo_1200293" data-name="Grupo 1200293" transform="translate(131.988 147.631)">
              <path id="Trazado_1044377" data-name="Trazado 1044377" d="M2787.936,2605.924a.372.372,0,0,1-.034-.742l10.186-.955a.372.372,0,0,1,.069.74l-10.186.955Z" transform="translate(-2787.564 -2604.225)" fill="#302626"/>
            </g>
            <g id="Grupo_1200294" data-name="Grupo 1200294" transform="translate(100.316 173.337)">
              <path id="Trazado_1044378" data-name="Trazado 1044378" d="M2449.84,2884.167a.37.37,0,0,1-.264-.11l-2.631-2.657a.372.372,0,1,1,.528-.523l2.631,2.657a.372.372,0,0,1,0,.526A.366.366,0,0,1,2449.84,2884.167Z" transform="translate(-2446.838 -2880.767)" fill="#302626"/>
            </g>
            <g id="Grupo_1200295" data-name="Grupo 1200295" transform="translate(117.484 112.146)">
              <path id="Trazado_1044379" data-name="Trazado 1044379" d="M2631.979,2246.429a.372.372,0,0,1-.372-.361c-.322-11.3.264-19.152,1.741-23.339a.372.372,0,1,1,.7.247c-1.447,4.1-2.018,11.863-1.7,23.071a.371.371,0,0,1-.361.382Z" transform="translate(-2631.522 -2222.48)" fill="#302626"/>
            </g>
          </g>
          <path id="Trazado_1044380" data-name="Trazado 1044380" d="M1483.281,3029H1356.345a1.481,1.481,0,0,1-1.4-1l-1.059-3.069a1.481,1.481,0,0,1,1.4-1.964h127.994a1.481,1.481,0,0,1,1.481,1.481v3.068A1.481,1.481,0,0,1,1483.281,3029Z" transform="translate(-1333.645 -2836.413)" fill="#736d6d"/>
          <g id="Grupo_1200297" data-name="Grupo 1200297" transform="translate(0.584 129.862)">
            <path id="Trazado_1044381" data-name="Trazado 1044381" d="M1164.286,2475.8h89.606l-20.243-61.365a2.066,2.066,0,0,0-1.92-1.359l-87.022.055a1.386,1.386,0,0,0-1.39,1.882Z" transform="translate(-1143.227 -2413.072)" fill="#999090"/>
          </g>
          <g id="Grupo_1200298" data-name="Grupo 1200298" transform="translate(56.42 129.491)">
            <path id="Trazado_1044382" data-name="Trazado 1044382" d="M1790.455,2447.467a.371.371,0,0,1-.353-.255l-12.131-36.631a1.111,1.111,0,0,0-1.057-.763l-32.646.02h0a.372.372,0,1,1,0-.744l32.646-.02a1.854,1.854,0,0,1,1.763,1.273l12.131,36.631a.372.372,0,0,1-.236.47A.392.392,0,0,1,1790.455,2447.467Z" transform="translate(-1743.897 -2409.074)" fill="#302626"/>
          </g>
          <g id="Grupo_1200299" data-name="Grupo 1200299" transform="translate(14.628 172.956)">
            <path id="Trazado_1044383" data-name="Trazado 1044383" d="M1354,2896.673h-51.549a1.949,1.949,0,0,1-1.842-1.313l-6.277-18.2a.372.372,0,1,1,.7-.243l6.277,18.2a1.206,1.206,0,0,0,1.139.812H1354a.372.372,0,1,1,0,.744Z" transform="translate(-1294.309 -2876.671)" fill="#302626"/>
          </g>
          <g id="Grupo_1200300" data-name="Grupo 1200300" transform="translate(0 129.49)">
            <path id="Trazado_1044384" data-name="Trazado 1044384" d="M1142.763,2427.778a.372.372,0,0,1-.353-.256l-5.389-16.39a1.572,1.572,0,0,1,1.494-2.063h13.426a.372.372,0,0,1,0,.744h-13.426a.829.829,0,0,0-.787,1.087l5.389,16.39a.372.372,0,0,1-.237.469A.359.359,0,0,1,1142.763,2427.778Z" transform="translate(-1136.94 -2409.068)" fill="#302626"/>
          </g>
        </g>
      </g>
    </g>
  </g>
</svg>
