<svg xmlns="http://www.w3.org/2000/svg" xmlns:xlink="http://www.w3.org/1999/xlink" width="190" height="244.294" viewBox="0 0 190 244.294">
  <defs>
    <clipPath id="clip-path">
      <rect id="Rect치ngulo_415796" data-name="Rect치ngulo 415796" width="172" height="222" fill="#fff" stroke="#707070" stroke-width="1" opacity="0.78"/>
    </clipPath>
  </defs>
  <g id="Grupo_1200310" data-name="Grupo 1200310" transform="translate(-1410 -5322.69)">
    <rect id="Rect치ngulo_415688" data-name="Rect치ngulo 415688" width="190" height="195" rx="10" transform="translate(1410 5349.69)" fill="#103d47"/>
    <g id="Grupo_1200303" data-name="Grupo 1200303" transform="translate(1415 5322.69)">
      <g id="Enmascarar_grupo_1098860" data-name="Enmascarar grupo 1098860" clip-path="url(#clip-path)">
        <g id="Grupo_1199861" data-name="Grupo 1199861" transform="translate(-5.735 3.545)">
          <path id="Trazado_1043696" data-name="Trazado 1043696" d="M147.739,304.908c14.364,7.375,7.856,27.918,18.726,33.05,3.145,1.485,6.575,2.328,9.637,3.974s5.853,4.39,6.242,7.846c.471,4.194-2.646,7.981-3.039,12.182-.63,6.722,5.608,11.962,11.52,15.222s12.751,6.5,14.993,12.871c2.186,6.214-1.143,13.292-6.244,17.46s-11.631,6.069-17.968,7.87c-13.415,3.815-27.124,7.666-41.054,6.976-12.363-.612-24.279-4.778-36.569-6.252-13.844-1.659-28.01.117-41.711-2.471-4.942-.934-9.93-2.514-13.732-5.806s-6.176-8.605-4.843-13.454c2.4-8.749,14.835-11.878,16.831-20.729,1.043-4.625-1.177-9.268-2.782-13.729s-2.431-9.986.759-13.493c2.418-2.658,6.56-3.395,8.615-6.341,2.405-3.449.891-8.1.315-12.268A25.128,25.128,0,0,1,97.9,299.876" transform="translate(-31.029 -218.366)" fill="#b54e00"/>
          <path id="Trazado_1043697" data-name="Trazado 1043697" d="M86.742,378.066c1.076.59,4.957,2.08,6.8,1.185,1.819-.882-.26-5.261-1.423-6.914q-7.414-10.539-15.4-20.662c-1.659-2.1-7.569-7.873-9.044-4.788-.813,1.7.73,9.685,1.333,11.8,1.816,6.382,4.447,8.128,9.111,12.846A37.478,37.478,0,0,0,86.742,378.066Z" transform="translate(54.516 -213.391)" fill="#c78350"/>
          <path id="Trazado_1043698" data-name="Trazado 1043698" d="M159.7,247.236c.791-3.275-10.549-22.309-13.669-20.27-.424.277,3.072,9.506,3.072,9.506s-7.852-11.448-9.635-10.229,4.292,11.708,4.292,11.708-12.18-10.5-14.044-9.789c-2.555.975,9.558,13.6,9.558,13.6s-9.106-6.387-10.471-4.615,10.826,12.166,10.826,12.166-11.9-1.254-5.506,2.242a87.812,87.812,0,0,0,14.945,5.975c42.207,81.788,9.517,108.962-17.72,122.59-3.475,1.739-8.877.406-10.056-1.173-4.79-6.6-6.6-12.963-7.821-21.211-3.825,4.085-14.043,9.383-24.667,7.649,5.747,4.2,13.647,24.47-4.449,36.773-13.49,9.172-25.556,48.886-29.846,67.5a95.077,95.077,0,0,0,23.016,7.512c7.715-14.85,10.826-32.706,14.952-44.221a79.5,79.5,0,0,0,2.765-9.464c17.293.921,33.818,1.725,39.533-4.9a4.206,4.206,0,0,0,.759-1.481l10.417.1C217.862,373.58,201.006,278.6,159.7,247.236Z" transform="translate(-32.203 -226.152)" fill="#f49c8e"/>
          <path id="Trazado_1043699" data-name="Trazado 1043699" d="M131.787,360.528a33.41,33.41,0,0,0,21.591-4.083,60.413,60.413,0,0,1-2.627-11.369c-3.825,4.085-14.043,9.383-24.667,7.649A17.674,17.674,0,0,1,131.787,360.528Z" transform="translate(-69.481 -213.489)" fill="#f49074" opacity="0.23"/>
          <g id="Grupo_1199860" data-name="Grupo 1199860" transform="translate(44.167 54.098)">
            <path id="Trazado_1043700" data-name="Trazado 1043700" d="M157.79,347.379c-11.331,15.354-24.585,17.021-33.818,14.063-14.578-4.672-22.522-26.309-8.091-47.65a31.5,31.5,0,0,1,19.38-13.046C153.256,296.965,183.38,312.707,157.79,347.379Z" transform="translate(-108.216 -272.366)" fill="#fda894"/>
            <path id="Trazado_1043701" data-name="Trazado 1043701" d="M129.26,284.607c9.666,1.922,18.389,4.008,27,11.341,19.533,16.64,14.516,65.475-24.685,63.438,11.278-9.285,15.74-24.689,8.992-19.823-4.666,3.365-5.6,7.9-6.813,6.866-3.545-3.038,11.173-14.537,2.525-25.462-3.109-3.928-8.852-4.857-13.855-5.754s-10.138-1.3-14.942-2.935a21.665,21.665,0,0,1-11.212-9.4C84.636,284.171,106.418,261.991,129.26,284.607Z" transform="translate(-91.071 -275.044)" fill="#b54e00"/>
            <path id="Trazado_1043702" data-name="Trazado 1043702" d="M108.506,339.947c6.536-10.4,11.1-8.605,13.17-6.753a7.393,7.393,0,0,1,1.771,7.608,10.058,10.058,0,0,1-6.106,6.389,10.448,10.448,0,0,1-8.912-.9" transform="translate(-64.548 -269.004)" fill="#fda894"/>
            <path id="Trazado_1043703" data-name="Trazado 1043703" d="M155,336.477a7.388,7.388,0,0,1-6.093,5.131c-2.486.315-4.44-2.463-4.846-5.631C143.9,334.711,155.085,336.187,155,336.477Z" transform="translate(-135.16 -268.61)" fill="#fff"/>
            <path id="Trazado_1043704" data-name="Trazado 1043704" d="M146.6,332a6.751,6.751,0,0,1,.468-3.814,6.986,6.986,0,0,1,1.984-3.24c.574-.481,1.661-.164,1.586.681a19.454,19.454,0,0,1-.81,3.346q-.208.785-.341,1.586a7.026,7.026,0,0,1-.686,1.776A1.224,1.224,0,0,1,146.6,332Z" transform="translate(-133.493 -269.754)" fill="#fd8177"/>
            <g id="Grupo_1199859" data-name="Grupo 1199859" transform="translate(0 55.877)">
              <path id="Trazado_1043705" data-name="Trazado 1043705" d="M125.531,342.65a9.225,9.225,0,0,1-.8-7.1,9.75,9.75,0,0,1,4.586-5.57,10.1,10.1,0,0,1,7.285-.772,9.7,9.7,0,0,1,5.715,4.478,9.234,9.234,0,0,1,.8,7.1,9.747,9.747,0,0,1-4.587,5.57,10.1,10.1,0,0,1-7.285.771A9.7,9.7,0,0,1,125.531,342.65Z" transform="translate(-101.85 -325.192)" fill="#fd8177"/>
              <path id="Trazado_1043706" data-name="Trazado 1043706" d="M157.7,325.544a9.54,9.54,0,0,1,4.363,4.6c.876,2.267,1.224,10.046-4.247,12.542A32.228,32.228,0,0,1,157.7,325.544Z" transform="translate(-156.585 -325.544)" fill="#fd8177"/>
            </g>
            <path id="Trazado_1043707" data-name="Trazado 1043707" d="M149.151,313.736c-.424.393.144,1.163.628.814a3.185,3.185,0,0,1,5.117,2.2c.134.906,1.719.7,1.613-.218A4.335,4.335,0,0,0,149.151,313.736Z" transform="translate(-142.145 -271.057)" fill="#a8541b"/>
            <path id="Trazado_1043708" data-name="Trazado 1043708" d="M139.47,321.751c-1.3-4.86-7.281-7.066-10.656-2.779a.346.346,0,0,0,.489.489,5.519,5.519,0,0,1,5.863-.942c1.571.786,2.22,2.328,3.119,3.731A.651.651,0,0,0,139.47,321.751Z" transform="translate(-102.689 -270.61)" fill="#a8541b"/>
            <path id="Trazado_1043709" data-name="Trazado 1043709" d="M155.883,318.7a4.863,4.863,0,0,0-.754,1.255,14.759,14.759,0,0,0-.441,1.437c-.253.989,1.349,1.383,1.5.414.077-.5.176-.988.3-1.475a11.812,11.812,0,0,0,.2-1.412C156.752,318.434,156.1,318.405,155.883,318.7Z" transform="translate(-148.584 -270.416)" fill="#a8541b"/>
            <path id="Trazado_1043710" data-name="Trazado 1043710" d="M136.084,323.183a9.61,9.61,0,0,0-.885.968,7.145,7.145,0,0,0-.573,1.266.938.938,0,0,0,.325,1.241.916.916,0,0,0,1.241-.325,7.926,7.926,0,0,0,.668-1.353,10.388,10.388,0,0,0,.18-1.4C137.105,323.089,136.392,322.851,136.084,323.183Z" transform="translate(-106.653 -269.935)" fill="#a8541b"/>
          </g>
          <path id="Trazado_1043711" data-name="Trazado 1043711" d="M108.544,466.025a95.539,95.539,0,0,0,73.1-33.91c-5.189-12.911-10.534-26.5-10.534-26.5s12.318-18.234,22.177-26.446c-11.57-8.23-26.907-24.734-25.865-32.366-4.863,8.978-29.958,20.919-29.958,20.919-4.947,19.7-29.718,19.97-30.255,9.578,0,0-15.548,5.9-25.132,24.261C75.685,413.8,71.826,423.9,68.1,443.4c6.7,5.495,19.138,10.184,28.818,8.774a59.617,59.617,0,0,0,5.524-15.285c.656,9.693-.671,19.244-.552,28.9C104.086,465.942,106.306,466.025,108.544,466.025Z" transform="translate(-45.227 -213.306)" fill="#fff"/>
          <path id="Trazado_1043712" data-name="Trazado 1043712" d="M78.619,457.581c2.2.152,4.42.235,6.659.235a95.539,95.539,0,0,0,73.1-33.91" transform="translate(-21.961 -205.096)" fill="none" stroke="#fee3cb" stroke-linecap="round" stroke-miterlimit="10" stroke-width="1"/>
          <path id="Trazado_1043713" data-name="Trazado 1043713" d="M150.2,409.881c.085,5.929.085,10.147.085,20.3" transform="translate(-93.077 -206.589)" fill="none" stroke="#fee3cb" stroke-linecap="round" stroke-miterlimit="10" stroke-width="1"/>
          <path id="Trazado_1043714" data-name="Trazado 1043714" d="M88.139,389.313c2.891,4.974,4.486,6.8,7.376,11.772" transform="translate(30.367 -208.779)" fill="none" stroke="#fee3cb" stroke-linecap="round" stroke-miterlimit="10" stroke-width="1"/>
          <path id="Trazado_1043715" data-name="Trazado 1043715" d="M127.662,386.969a24.676,24.676,0,0,0,13.26-2.633c7.558-3.919,11.341-11.982,11.955-20.178-2.1,1.079-3.43,1.714-3.43,1.714-4.947,19.7-29.718,19.97-30.255,9.578a31.2,31.2,0,0,0-3.745,1.845C115.739,382.756,122.856,386.508,127.662,386.969Z" transform="translate(-57.212 -211.458)" fill="#b54e00"/>
          <path id="Trazado_1043716" data-name="Trazado 1043716" d="M68.1,350.446c.236,3.7,2.412,7.26,4.488,10.2a71.029,71.029,0,0,0,8.1,9.3,51.183,51.183,0,0,0,14.679,10.493c.489-.443.975-.872,1.453-1.27-11.57-8.23-26.907-24.734-25.865-32.366A16.8,16.8,0,0,1,68.1,350.446Z" transform="translate(51.244 -213.306)" fill="#b54e00"/>
          <path id="Trazado_1043717" data-name="Trazado 1043717" d="M167.628,436.568c-3-1.09-5.86-2.442-8.76-3.759a17.56,17.56,0,0,1-4.163-2.294c-.264,1.285-.529,2.6-.791,3.974,6.7,5.495,19.138,10.184,28.818,8.774.5-.929.97-1.889,1.416-2.86A62.617,62.617,0,0,1,167.628,436.568Z" transform="translate(-131.045 -204.392)" fill="#b54e00"/>
          <path id="Trazado_1043718" data-name="Trazado 1043718" d="M191.875,431.929c-16.81-5.632-19.42,11.12-14.144,12.325,3.552.812,1.319-5.405,4.366-7.548-2.327,4.487-2.936,16.33.809,15.841,2.334-.3.406-8.916,3.958-11.06-1.147,3.94-1.863,12.782.812,14s3.5-6.449,5.426-9.057c-1.568,3.418-1,12.518,1.407,12.518s2.034-7.9,4.174-9.5c1.16-.87,2.924,1.7,4.763.97C206.553,449.192,204.586,436.187,191.875,431.929Z" transform="translate(-175.282 -204.365)" fill="#f49c8e"/>
          <path id="Trazado_1043719" data-name="Trazado 1043719" d="M93.453,247.433a22.1,22.1,0,0,0,4.25-.729,9.13,9.13,0,0,1,4.275-.131,3.86,3.86,0,0,1,2.908,2.87" transform="translate(15.115 -223.999)" fill="none" stroke="#e88b7d" stroke-miterlimit="10" stroke-width="1"/>
        </g>
      </g>
      <path id="Trazado_1043718-2" data-name="Trazado 1043718" d="M12.867,27.022C29.677,32.654,32.287,15.9,27.011,14.7c-3.552-.812-1.319,5.405-4.366,7.548,2.327-4.487,2.936-16.33-.809-15.841-2.334.3-.406,8.916-3.958,11.06,1.147-3.94,1.863-12.782-.812-14s-3.5,6.449-5.426,9.057C13.208,9.1,12.643,0,10.233,0S8.2,7.9,6.059,9.5c-1.16.87-2.924-1.7-4.763-.97C-1.811,9.759.156,22.765,12.867,27.022Z" transform="matrix(-0.875, 0.485, -0.485, -0.875, 54.708, 230.012)" fill="#f49c8e"/>
    </g>
  </g>
</svg>
