<svg xmlns="http://www.w3.org/2000/svg" xmlns:xlink="http://www.w3.org/1999/xlink" width="400" height="317" viewBox="0 0 400 317">
  <defs>
    <clipPath id="clip-path">
      <rect id="Rectángulo_415783" data-name="Rectángulo 415783" width="400" height="317" transform="translate(1020 272)" fill="#fff" stroke="#707070" stroke-width="1"/>
    </clipPath>
  </defs>
  <g id="Enmascarar_grupo_1098858" data-name="Enmascarar grupo 1098858" transform="translate(-1020 -272)" clip-path="url(#clip-path)">
    <g id="Grupo_1200209" data-name="Grupo 1200209">
      <ellipse id="Elipse_13419" data-name="Elipse 13419" cx="183.5" cy="187.5" rx="183.5" ry="187.5" transform="translate(1030 299)" fill="#e9f9fd" opacity="0.45"/>
      <g id="_369042285_3139a7a5-0f00-45f8-a5b9-08a742c8724e" data-name="369042285_3139a7a5-0f00-45f8-a5b9-08a742c8724e" transform="translate(995 197.049)">
        <g id="Grupo_1200197" data-name="Grupo 1200197" transform="translate(54.824 118.005)">
          <g id="Grupo_1200182" data-name="Grupo 1200182" transform="translate(0)">
            <g id="Grupo_1200178" data-name="Grupo 1200178">
              <g id="Grupo_1200176" data-name="Grupo 1200176">
                <g id="Grupo_1200174" data-name="Grupo 1200174">
                  <path id="Trazado_1044138" data-name="Trazado 1044138" d="M386.864,129.646V353.469a8.645,8.645,0,0,1-8.68,8.681H65.816a8.676,8.676,0,0,1-8.681-8.681V129.646a8.707,8.707,0,0,1,8.681-8.681H378.184A8.675,8.675,0,0,1,386.864,129.646Z" transform="translate(-54.753 -117.998)" fill="#8d95d1"/>
                  <path id="Trazado_1044139" data-name="Trazado 1044139" d="M76.713,120.978v21.478a2.974,2.974,0,0,1-2.974,2.974H57.732a2.974,2.974,0,0,1-2.974-2.974V132.069A14.064,14.064,0,0,1,68.822,118h4.917A2.972,2.972,0,0,1,76.713,120.978Z" transform="translate(-54.758 -118.005)" fill="#3b3a38"/>
                  <path id="Trazado_1044140" data-name="Trazado 1044140" d="M365.465,120.978v21.478a2.974,2.974,0,0,0,2.974,2.974h16.008a2.973,2.973,0,0,0,2.974-2.974V132.069A14.064,14.064,0,0,0,373.356,118H368.44A2.973,2.973,0,0,0,365.465,120.978Z" transform="translate(-54.067 -118.005)" fill="#3b3a38"/>
                  <path id="Trazado_1044141" data-name="Trazado 1044141" d="M76.721,341.844v21.509a2.964,2.964,0,0,1-2.99,2.942h-4.92A14.017,14.017,0,0,1,54.777,352.26V341.843a2.948,2.948,0,0,1,2.363-2.893,2.351,2.351,0,0,1,.578-.048H73.73A2.965,2.965,0,0,1,76.721,341.844Z" transform="translate(-54.758 -117.514)" fill="#3b3a38"/>
                  <path id="Trazado_1044142" data-name="Trazado 1044142" d="M387.433,341.844v10.417a14.086,14.086,0,0,1-9.453,13.262,14.8,14.8,0,0,1-4.63.772h-4.919a2.963,2.963,0,0,1-2.99-2.941V341.845a3.052,3.052,0,0,1,1.109-2.315,3.146,3.146,0,0,1,1.881-.627h16.012a3.075,3.075,0,0,1,1.736.531A2.879,2.879,0,0,1,387.433,341.844Z" transform="translate(-54.068 -117.514)" fill="#3b3a38"/>
                  <path id="Trazado_1044143" data-name="Trazado 1044143" d="M372.111,355.1H68.641a3.387,3.387,0,0,1-3.388-3.388V135.464a3.387,3.387,0,0,1,3.388-3.388H372.111a3.387,3.387,0,0,1,3.388,3.388V351.709A3.387,3.387,0,0,1,372.111,355.1Z" transform="translate(-54.735 -117.974)" fill="#fffcf5" opacity="0.4"/>
                  <path id="Trazado_1044144" data-name="Trazado 1044144" d="M373.718,353.057H70.248a3.387,3.387,0,0,1-3.388-3.388V133.425a3.387,3.387,0,0,1,3.388-3.388H373.718a3.387,3.387,0,0,1,3.388,3.388V349.67A3.387,3.387,0,0,1,373.718,353.057Z" transform="translate(-54.731 -117.978)" fill="#fffcf5"/>
                  <path id="Trazado_1044145" data-name="Trazado 1044145" d="M369,130.037H74.966a8.079,8.079,0,0,0-8,7.108c.151-.008.294-.045.447-.045H361.443a8.105,8.105,0,0,1,8.105,8.1v206.81a7.989,7.989,0,0,1-.1,1,8.083,8.083,0,0,0,7.658-8.06V138.142A8.105,8.105,0,0,0,369,130.037Z" transform="translate(-54.731 -117.978)" fill="#8a5c00" opacity="0.2"/>
                </g>
                <g id="Grupo_1200175" data-name="Grupo 1200175" transform="translate(92.337 29.404)">
                  <rect id="Rectángulo_415745" data-name="Rectángulo 415745" width="1.652" height="189.98" fill="#8a5c00" opacity="0.2"/>
                  <rect id="Rectángulo_415746" data-name="Rectángulo 415746" width="1.652" height="189.98" transform="translate(147.028)" fill="#8a5c00" opacity="0.2"/>
                </g>
              </g>
              <g id="Grupo_1200177" data-name="Grupo 1200177" transform="translate(12.129 12.059)" opacity="0.2">
                <path id="Trazado_1044146" data-name="Trazado 1044146" d="M377.106,230.2,66.99,346.016a8.085,8.085,0,0,0,7.976,6.818H177.777c65.244-17.943,136.246-37.461,199.33-54.8V230.2Z" transform="translate(-66.86 -129.814)" fill="#fff"/>
                <path id="Trazado_1044147" data-name="Trazado 1044147" d="M66.86,273.829v45c87.063-40.193,211.853-98.071,310.246-143.167V138.142a8.105,8.105,0,0,0-8.1-8.1H232.179C185.318,170.723,121.037,226.582,66.86,273.829Z" transform="translate(-66.86 -130.037)" fill="#fff"/>
              </g>
            </g>
            <g id="Grupo_1200179" data-name="Grupo 1200179" transform="translate(35.713 37.82)">
              <path id="Trazado_1044148" data-name="Trazado 1044148" d="M129.389,161.853H91.041a.649.649,0,0,1-.649-.649V156.39a.649.649,0,0,1,.649-.649h38.348a.649.649,0,0,1,.649.649V161.2A.649.649,0,0,1,129.389,161.853Z" transform="translate(-90.392 -155.741)" fill="#958ed4"/>
              <path id="Trazado_1044149" data-name="Trazado 1044149" d="M122.637,166.809H97.764a.284.284,0,0,1-.284-.284v-1.25a.284.284,0,0,1,.284-.284h24.873a.284.284,0,0,1,.284.284v1.25A.284.284,0,0,1,122.637,166.809Z" transform="translate(-90.376 -155.72)" fill="#8885a8" opacity="0.4"/>
            </g>
            <g id="Grupo_1200180" data-name="Grupo 1200180" transform="translate(258.899 37.82)">
              <path id="Trazado_1044150" data-name="Trazado 1044150" d="M352.08,161.853H313.732a.649.649,0,0,1-.649-.649V156.39a.649.649,0,0,1,.649-.649H352.08a.649.649,0,0,1,.649.649V161.2A.649.649,0,0,1,352.08,161.853Z" transform="translate(-313.083 -155.741)" fill="#958ed4"/>
              <path id="Trazado_1044151" data-name="Trazado 1044151" d="M345.327,166.809H320.454a.284.284,0,0,1-.284-.284v-1.25a.284.284,0,0,1,.284-.284h24.873a.284.284,0,0,1,.284.284v1.25A.284.284,0,0,1,345.327,166.809Z" transform="translate(-313.067 -155.72)" fill="#8885a8" opacity="0.4"/>
            </g>
            <g id="Grupo_1200181" data-name="Grupo 1200181" transform="translate(132.791 37.819)">
              <path id="Trazado_1044152" data-name="Trazado 1044152" d="M255.448,161.853H188.113a.858.858,0,0,1-.858-.858v-4.4a.858.858,0,0,1,.858-.858h67.335a.858.858,0,0,1,.858.858v4.4A.859.859,0,0,1,255.448,161.853Z" transform="translate(-187.255 -155.74)" fill="#958ed4"/>
              <path id="Trazado_1044153" data-name="Trazado 1044153" d="M243.532,166.809H199.974a.375.375,0,0,1-.375-.375v-1.068a.375.375,0,0,1,.375-.375h43.559a.375.375,0,0,1,.375.375v1.068A.376.376,0,0,1,243.532,166.809Z" transform="translate(-187.228 -155.719)" fill="#8885a8" opacity="0.4"/>
            </g>
          </g>
          <rect id="Rectángulo_415747" data-name="Rectángulo 415747" width="17.283" height="4.681" transform="translate(245.428 141.047)" fill="#ada1cc"/>
          <g id="Grupo_1200183" data-name="Grupo 1200183" transform="translate(26.78 63.261)">
            <rect id="Rectángulo_415748" data-name="Rectángulo 415748" width="31.109" height="22.344" transform="translate(1.183 5.574)" fill="#cc526d" opacity="0.2"/>
            <rect id="Rectángulo_415749" data-name="Rectángulo 415749" width="31.109" height="22.344" transform="translate(3.231 3.693)" fill="#cc526d"/>
            <rect id="Rectángulo_415750" data-name="Rectángulo 415750" width="10.51" height="3.123" transform="translate(0 8.426) rotate(-53.294)" fill="#fff0cf"/>
            <rect id="Rectángulo_415751" data-name="Rectángulo 415751" width="10.51" height="3.123" transform="translate(34.184 10.301) rotate(-126.706)" fill="#fff0cf"/>
          </g>
          <g id="Grupo_1200184" data-name="Grupo 1200184" transform="translate(247.655 166.967)">
            <rect id="Rectángulo_415752" data-name="Rectángulo 415752" width="31.109" height="22.344" transform="translate(2.793 5.525)" fill="#cc526d" opacity="0.2"/>
            <rect id="Rectángulo_415753" data-name="Rectángulo 415753" width="31.109" height="22.344" transform="translate(3.235 3.681)" fill="#cc526d"/>
            <rect id="Rectángulo_415754" data-name="Rectángulo 415754" width="10.51" height="3.123" transform="translate(0 8.426) rotate(-53.294)" fill="#fff0cf"/>
            <rect id="Rectángulo_415755" data-name="Rectángulo 415755" width="10.51" height="3.123" transform="translate(34.178 10.293) rotate(-126.706)" fill="#fff0cf"/>
          </g>
          <g id="Grupo_1200185" data-name="Grupo 1200185" transform="translate(127.847 63.261)">
            <rect id="Rectángulo_415756" data-name="Rectángulo 415756" width="31.108" height="22.344" transform="translate(1.762 7.112)" fill="#ada1cc" opacity="0.3"/>
            <rect id="Rectángulo_415757" data-name="Rectángulo 415757" width="31.108" height="22.344" transform="translate(3.234 3.692)" fill="#ada1cc"/>
            <rect id="Rectángulo_415758" data-name="Rectángulo 415758" width="10.51" height="3.123" transform="translate(0 8.426) rotate(-53.294)" fill="#fff0cf"/>
            <rect id="Rectángulo_415759" data-name="Rectángulo 415759" width="10.51" height="3.123" transform="translate(34.185 10.301) rotate(-126.706)" fill="#fff0cf"/>
          </g>
          <g id="Grupo_1200186" data-name="Grupo 1200186" transform="translate(102.479 108.819)">
            <rect id="Rectángulo_415760" data-name="Rectángulo 415760" width="31.109" height="22.344" transform="translate(1.761 7.109)" fill="#ada1cc" opacity="0.3"/>
            <rect id="Rectángulo_415761" data-name="Rectángulo 415761" width="31.109" height="22.344" transform="translate(3.234 3.689)" fill="#a1c5cc"/>
            <rect id="Rectángulo_415762" data-name="Rectángulo 415762" width="10.51" height="3.123" transform="translate(0 8.426) rotate(-53.294)" fill="#fff0cf"/>
            <rect id="Rectángulo_415763" data-name="Rectángulo 415763" width="10.51" height="3.123" transform="translate(34.184 10.298) rotate(-126.706)" fill="#fff0cf"/>
          </g>
          <g id="Grupo_1200187" data-name="Grupo 1200187" transform="translate(47.78 179.974)">
            <rect id="Rectángulo_415764" data-name="Rectángulo 415764" width="31.109" height="22.344" transform="translate(1.186 6.457)" fill="#ada1cc" opacity="0.2"/>
            <rect id="Rectángulo_415765" data-name="Rectángulo 415765" width="31.109" height="22.344" transform="translate(3.234 3.69)" fill="#ada1cc"/>
            <rect id="Rectángulo_415766" data-name="Rectángulo 415766" width="10.51" height="3.123" transform="translate(0 8.426) rotate(-53.294)" fill="#fff0cf"/>
            <rect id="Rectángulo_415767" data-name="Rectángulo 415767" width="10.51" height="3.123" transform="translate(34.182 10.3) rotate(-126.706)" fill="#fff0cf"/>
          </g>
          <rect id="Rectángulo_415768" data-name="Rectángulo 415768" width="30.471" height="4.786" transform="translate(108.95 143.533)" fill="#ada1cc" opacity="0.4"/>
          <rect id="Rectángulo_415769" data-name="Rectángulo 415769" width="30.471" height="4.786" transform="translate(108.95 151.191)" fill="#ada1cc" opacity="0.4"/>
          <rect id="Rectángulo_415770" data-name="Rectángulo 415770" width="30.471" height="4.786" transform="translate(108.95 158.848)" fill="#ada1cc" opacity="0.4"/>
          <g id="Grupo_1200190" data-name="Grupo 1200190" transform="translate(69.86 83.313)">
            <g id="Grupo_1200188" data-name="Grupo 1200188" transform="translate(1.035 1.039)">
              <path id="Trazado_1044154" data-name="Trazado 1044154" d="M134.432,286.184a.9.9,0,0,1-.278-.044.879.879,0,0,1-.555-1.11c.14-.423,13.825-42.792-7.989-81.552a.876.876,0,0,1,1.527-.86c22.205,39.452,8.268,82.536,8.126,82.967A.877.877,0,0,1,134.432,286.184Z" transform="translate(-125.497 -202.171)" fill="#ada1cc"/>
            </g>
            <g id="Grupo_1200189" data-name="Grupo 1200189">
              <path id="Trazado_1044155" data-name="Trazado 1044155" d="M125.925,220.141a.879.879,0,0,1-.877-.848l-.584-17.252a.881.881,0,0,1,.348-.73.86.86,0,0,1,.8-.133l13.06,4.191a.877.877,0,0,1-.534,1.671l-11.874-3.81.543,16.006a.88.88,0,0,1-.848.907A.156.156,0,0,0,125.925,220.141Z" transform="translate(-124.464 -201.134)" fill="#ada1cc"/>
            </g>
          </g>
          <g id="Grupo_1200193" data-name="Grupo 1200193" transform="translate(265.748 91.178)">
            <g id="Grupo_1200191" data-name="Grupo 1200191" transform="translate(1.183)">
              <path id="Trazado_1044156" data-name="Trazado 1044156" d="M343.268,209a1.034,1.034,0,0,0-.28-.017.714.714,0,0,0-.724.8c.07.374,6.672,37.749-20.976,65.322a.672.672,0,0,0,.135,1.043.974.974,0,0,0,1.226-.044c28.144-28.065,21.408-66.075,21.338-66.456A.883.883,0,0,0,343.268,209Z" transform="translate(-321.097 -208.981)" fill="#ada1cc"/>
            </g>
            <g id="Grupo_1200192" data-name="Grupo 1200192" transform="translate(0 52.508)">
              <path id="Trazado_1044157" data-name="Trazado 1044157" d="M324.283,261.393a.822.822,0,0,0-1,.526l-3.352,14.032a.7.7,0,0,0,.223.665,1.006,1.006,0,0,0,.761.264l13.49-.918a.716.716,0,0,0,.735-.8.916.916,0,0,0-.989-.677l-12.265.835L325,262.305a.8.8,0,0,0-.685-.906Z" transform="translate(-319.917 -261.373)" fill="#ada1cc"/>
            </g>
          </g>
          <g id="Grupo_1200194" data-name="Grupo 1200194" transform="translate(253.2 73.767)">
            <path id="Trazado_1044158" data-name="Trazado 1044158" d="M330.293,194.116v13.86a23.127,23.127,0,0,1-6.2,6.318H307.4V194.116Z" transform="translate(-307.397 -191.602)" fill="#f59e44" opacity="0.3"/>
            <path id="Trazado_1044159" data-name="Trazado 1044159" d="M331.169,191.609v13.86a23.109,23.109,0,0,1-6.2,6.317H308.273V191.608h22.9Z" transform="translate(-307.395 -191.608)" fill="#f59e44"/>
            <path id="Trazado_1044160" data-name="Trazado 1044160" d="M331.132,205.44a23.11,23.11,0,0,1-6.2,6.317,11.537,11.537,0,0,0,1.712-6.581A7.938,7.938,0,0,0,331.132,205.44Z" transform="translate(-307.358 -191.578)" fill="#ffbc47"/>
          </g>
          <g id="Grupo_1200195" data-name="Grupo 1200195" transform="translate(141.869 179.696)">
            <path id="Trazado_1044161" data-name="Trazado 1044161" d="M219.208,299.81v13.86a23.11,23.11,0,0,1-6.2,6.317H196.312V299.81Z" transform="translate(-196.312 -297.297)" fill="#f59e44" opacity="0.3"/>
            <path id="Trazado_1044162" data-name="Trazado 1044162" d="M220.083,297.3v13.86a23.126,23.126,0,0,1-6.2,6.318H197.187V297.3Z" transform="translate(-196.31 -297.303)" fill="#f59e44"/>
            <path id="Trazado_1044163" data-name="Trazado 1044163" d="M220.046,311.134a23.126,23.126,0,0,1-6.2,6.318,11.537,11.537,0,0,0,1.712-6.581A7.941,7.941,0,0,0,220.046,311.134Z" transform="translate(-196.273 -297.273)" fill="#ffbc47"/>
          </g>
          <g id="Grupo_1200196" data-name="Grupo 1200196" transform="translate(47.186 96.773)">
            <path id="Trazado_1044164" data-name="Trazado 1044164" d="M124.735,217.071v13.86a23.124,23.124,0,0,1-6.2,6.317H101.839V217.07h22.9Z" transform="translate(-101.839 -214.557)" fill="#f59e44" opacity="0.3"/>
            <path id="Trazado_1044165" data-name="Trazado 1044165" d="M125.61,214.564v13.86a23.11,23.11,0,0,1-6.2,6.317H102.713V214.563h22.9Z" transform="translate(-101.837 -214.563)" fill="#f59e44"/>
            <path id="Trazado_1044166" data-name="Trazado 1044166" d="M125.573,228.394a23.11,23.11,0,0,1-6.2,6.317,11.537,11.537,0,0,0,1.712-6.581A7.928,7.928,0,0,0,125.573,228.394Z" transform="translate(-101.8 -214.533)" fill="#ffbc47"/>
          </g>
          <rect id="Rectángulo_415771" data-name="Rectángulo 415771" width="45.08" height="3.723" transform="translate(169.388 106.646)" fill="#ada1cc" opacity="0.4"/>
          <rect id="Rectángulo_415772" data-name="Rectángulo 415772" width="20.194" height="4.631" transform="translate(28.772 143.687)" fill="#ada1cc" opacity="0.3"/>
          <rect id="Rectángulo_415773" data-name="Rectángulo 415773" width="15.474" height="3.099" transform="translate(293.275 173.762)" fill="#ada1cc" opacity="0.3"/>
          <rect id="Rectángulo_415774" data-name="Rectángulo 415774" width="5.265" height="1.838" transform="translate(294.712 180.371)" fill="#ada1cc" opacity="0.3"/>
          <rect id="Rectángulo_415775" data-name="Rectángulo 415775" width="24.249" height="4.945" transform="translate(193.409 166.492)" fill="#ada1cc" opacity="0.3"/>
          <rect id="Rectángulo_415776" data-name="Rectángulo 415776" width="5.265" height="1.549" transform="translate(197.397 175.312)" fill="#ada1cc" opacity="0.3"/>
        </g>
        <path id="Trazado_1044167" data-name="Trazado 1044167" d="M106.332,265.513c-.724,1.061-3.425,4.967-5.546,6.559h-.048a.047.047,0,0,1-.048.048c-2.171,2.218-4.967,4.051-7.476,6.414-1.013.965-1.977,1.881-2.893,2.8a55.369,55.369,0,0,0-5.354,6.174c.868,1.012,1.3,1.881,1.013,2.459-.241.386-1.013,1.64-2.074,3.376.578.868.82,1.592.53,2.122-1.109,1.833-9.693,16.012-17.555,29.178-.53.916-1.061,1.785-1.592,2.653-2.556,4.341-4.967,8.44-6.944,11.863-.434.724-.82,1.4-1.206,2.025-.916,1.64-1.737,3.086-2.363,4.2V342.1A2.948,2.948,0,0,1,57.14,339.2V291.6c4.341-5.836,7.475-9.983,7.764-10.225a.475.475,0,0,1,.386-.145,2.387,2.387,0,0,1,1.013,0c.193-.29.386-.53.578-.772A30.546,30.546,0,0,1,69,277.809c.338-.29,1.109-.193,2.171.192.193-2.893-.868-6.607-.868-9.645-.82-1.832.145-9.694,2.218-12.877,2.17-3.327,2.7-4.775,3.809-6.414a1.948,1.948,0,0,1,.82-.482,3.483,3.483,0,0,1,3.473,1.012c5.4-7.764,14.372-20.737,16.831-23.39,3.521-3.858,8.536-.144,6.222,4-1.4,2.508-7.668,12.057-13.166,19.918a4.087,4.087,0,0,1,3.665.53A3.772,3.772,0,0,1,96.01,254.8,3.978,3.978,0,0,1,100.3,255c1.832,1.206,2.556,3.375,1.592,4.871-.048,0-.048.048-.1.048a4.609,4.609,0,0,1,2.99.724C106.621,261.848,107.3,264.017,106.332,265.513Z" transform="translate(0.066 0.237)" fill="#87430f" opacity="0.6"/>
        <g id="Grupo_1200198" data-name="Grupo 1200198" transform="translate(25 214.333)">
          <path id="Trazado_1044168" data-name="Trazado 1044168" d="M98.664,261.564a.068.068,0,0,1-.048.038c-2.179,2.237-4.979,4.07-7.488,6.419-1.034.98-2,1.889-2.909,2.786A53.925,53.925,0,0,0,80.2,280.864a3.5,3.5,0,0,1-4.352,1.567,8.435,8.435,0,0,1-2.865-1.68c-3.387-2.811-6.106-8.076-4.581-10.739,1.663-2.947-.179-8.128-.217-12.182a7.8,7.8,0,0,1,.429-2.911,40.814,40.814,0,0,1,2.9-5.747,43.231,43.231,0,0,1,4.212-5.967l.021-.032a17.444,17.444,0,0,1,3.354-3.149,2.852,2.852,0,0,1,.381-.264c1.462-.957,4.6-.38,8.078,1.114a33.282,33.282,0,0,1,11.881,8.576c2.046,2.473,3.091,5.087,2.272,7.418A12.906,12.906,0,0,1,98.664,261.564Z" transform="translate(-24.905 -214.063)" fill="#ffa961"/>
          <path id="Trazado_1044169" data-name="Trazado 1044169" d="M74.587,244.948s17.255-25.355,20.762-29.215,8.55-.105,6.226,4S83.921,246.85,80.429,250.528,65.829,255.033,74.587,244.948Z" transform="translate(-24.897 -214.119)" fill="#ffa961"/>
          <path id="Trazado_1044170" data-name="Trazado 1044170" d="M93.627,244.987c-.968,1.486-3.24,1.723-5.074.528s-2.538-3.368-1.569-4.855,3.24-1.723,5.074-.528S94.595,243.5,93.627,244.987Z" transform="translate(-24.864 -214.063)" fill="#ffa961"/>
          <path id="Trazado_1044171" data-name="Trazado 1044171" d="M99.722,249.343c-.968,1.486-3.24,1.723-5.074.528s-2.537-3.368-1.568-4.855,3.24-1.723,5.074-.528S100.69,247.857,99.722,249.343Z" transform="translate(-24.85 -214.053)" fill="#ffa961"/>
          <path id="Trazado_1044172" data-name="Trazado 1044172" d="M104.179,254.955c-.968,1.486-5.751,8.335-7.586,7.141s-.026-9.981.942-11.467,3.24-1.723,5.074-.528S105.146,253.469,104.179,254.955Z" transform="translate(-24.843 -214.041)" fill="#ffa961"/>
          <path id="Trazado_1044173" data-name="Trazado 1044173" d="M73.032,252.863c-.582.716-1.139,1.355-1.663,1.945-1.743,2.033-3.034,3.264-3.034,3.264a.955.955,0,0,1-.149-.237c-.777-1.81.183-9.686,2.249-12.858,2.173-3.336,2.671-4.782,3.822-6.407a1.5,1.5,0,0,1,.785-.49,3.558,3.558,0,0,1,3.5,1.023,3,3,0,0,1,.562.925c.456,1.159.35,2.86-.908,5.185A51.329,51.329,0,0,1,73.032,252.863Z" transform="translate(-24.905 -214.066)" fill="#ffa961"/>
          <path id="Trazado_1044174" data-name="Trazado 1044174" d="M97.132,215.127c1.542-.3,4.285,1.985,4.358,2.826s-1.694,3.5-2.773,3.192-3.468-2.052-3.4-2.694S95.892,215.367,97.132,215.127Z" transform="translate(-24.844 -214.117)" fill="#ffcca1" opacity="0.5"/>
          <path id="Trazado_1044175" data-name="Trazado 1044175" d="M88.219,270.811A53.924,53.924,0,0,0,80.2,280.867a3.5,3.5,0,0,1-4.352,1.567c-.969-.514-1.922-1.088-2.865-1.68-3.387-2.811-6.106-8.076-4.581-10.739,1.663-2.947-.179-8.128-.217-12.182-.777-1.81.183-9.686,2.249-12.858,2.173-3.336,2.671-4.782,3.822-6.407a1.5,1.5,0,0,1,.785-.49,33.816,33.816,0,0,0-3.524,11.1c-.014.2-.039.417-.063.634a.02.02,0,0,0,.006.027,13.421,13.421,0,0,0-.12,1.436l.006.027a25.415,25.415,0,0,0,.021,3.508,17.109,17.109,0,0,0,3.782,9.962C77.981,268.08,83.153,269.865,88.219,270.811Z" transform="translate(-24.905 -214.066)" fill="#ffa961" opacity="0.3"/>
          <path id="Trazado_1044176" data-name="Trazado 1044176" d="M66.939,267.215c-.318.284-4.952,6.444-10.557,13.915l19.035,12.4c4.282-7.168,7.862-13.118,8.474-14.155C85.487,276.662,68.747,265.6,66.939,267.215Z" transform="translate(-24.931 -214.002)" fill="#f2f4ff"/>
          <path id="Trazado_1044177" data-name="Trazado 1044177" d="M51.607,337.009c-1.371,2.99-25.189,27.7-31.553,23.606-3.273-2.106,2.442-21.257,0-23.606-2.494-2.393,4.433-15.287,5.118-16.053,2.52-2.831,36.755-49.284,37.725-50.167.568-.515,2.246-.051,4.406.959,6.257,2.981,16.554,10.665,15.114,13.126C80.469,288.15,53.812,332.157,51.607,337.009Z" transform="translate(-25 -213.994)" fill="#595ea1"/>
          <path id="Trazado_1044178" data-name="Trazado 1044178" d="M28.41,326.14c-2.494-2.393-3.923-4.418-3.238-5.184,2.52-2.831,36.755-49.284,37.725-50.167.568-.515,2.246-.051,4.406.959C58.362,283.581,36.307,313.048,28.41,326.14Z" transform="translate(-25 -213.994)" fill="#595ea1" opacity="0.3"/>
        </g>
        <path id="Trazado_1044179" data-name="Trazado 1044179" d="M291.008,309.668c-1.061-1.351-2.943-2.026-5.16-2.267-.386-1.012-.772-2.074-1.061-3.038a46.044,46.044,0,0,1-2.508-13.118c-.1-3.809.434-6.173-.434-7.861-1.012-4.967-.82-6.414-5.063-6.221-.386.048-.772.1-1.109.144-.724-1.977-1.542-2.6-4.485-2.219a7.6,7.6,0,0,0-2.845.916c-.627-1.206-1.64-1.543-4-1.254-2.267.29-3.665,1.254-4.341,2.459a16.135,16.135,0,0,0-4.919-4.533c-4.2-4.2-9.453-10.369-12.2-17.217,0,0-24.933,20.738-20.3,27.49,4.678,6.752,21.654,17.41,21.654,17.41l3.327-4.243c3.859,7.186,17.362,10.755,18.375,11,.048,0,.048.048.1.048a22.836,22.836,0,0,1,4.148,4.2c-2.557,1.64-4.051,3.617-3.425,5.594,1.254,4.147,8.874,27.393,14.516,44.9H312.18C306.2,344.874,294.817,314.54,291.008,309.668Zm-37.183-17.892c-.53-.53-1.013-1.109-1.543-1.688l3.183-4.051c.82,2.267,1.543,4.726,2.218,7.138C256.381,293.657,255.03,292.933,253.825,291.777Z" transform="translate(0.438 0.305)" fill="#87430f" opacity="0.6"/>
        <g id="Grupo_1200200" data-name="Grupo 1200200" transform="translate(225.08 246.003)">
          <g id="Grupo_1200199" data-name="Grupo 1200199">
            <path id="Trazado_1044180" data-name="Trazado 1044180" d="M276,305.812a24.442,24.442,0,0,0-7.145-8.747c-.022,0-.047-.018-.069-.016a19.122,19.122,0,0,0-2.7-1.724,9,9,0,0,1-3.538-3.563,18.465,18.465,0,0,1-2.043-8.593c0-.249,0-.475,0-.724.044-10.358,6.534-13.325,14-12.815a30.433,30.433,0,0,1,5.541.947c2.5.635,3.734,1.419,4.341,2.535.908,1.652.421,4.051.548,7.88a45.6,45.6,0,0,0,2.665,13.076c.891,2.625,1.985,5.479,3.294,8.673C292.821,307.437,278.522,310.763,276,305.812Z" transform="translate(-224.556 -245.666)" fill="#ffa961"/>
            <path id="Trazado_1044181" data-name="Trazado 1044181" d="M273.386,289.983l-2.566,4.027-1.939,3.039c-.022,0-.047-.018-.069-.016-1.063-.234-15.366-3.848-18.846-11.417-1.64-3.569-.915-10.694,1.621-9.043,1.4.9,3.1,3.516,4.923,5.236,1.292,1.184,2.654,1.931,4.021,1.345a3.17,3.17,0,0,0,.831-.511C264.033,280.39,270.234,288.733,273.386,289.983Z" transform="translate(-224.582 -245.651)" fill="#ffa961"/>
            <path id="Trazado_1044182" data-name="Trazado 1044182" d="M276.026,305.8a24.442,24.442,0,0,0-7.145-8.747c-.022,0-.047-.018-.069-.016-1.063-.234-15.366-3.847-18.846-11.417-1.64-3.569-.915-10.694,1.621-9.043,1.4.9,3.1,3.516,4.923,5.236-3.177,2.641.713,7.707,6.063,9.939a16.883,16.883,0,0,0,1.8.614c1.79.5,4,1.121,6.446,1.65,5.1,1.1,11.253,1.788,16.8.044.891,2.625,1.985,5.479,3.294,8.673C292.846,307.422,278.547,310.748,276.026,305.8Z" transform="translate(-224.582 -245.651)" fill="#cc9e43" opacity="0.2"/>
            <path id="Trazado_1044183" data-name="Trazado 1044183" d="M245.175,245.719c5.287,12.512,18.874,22.736,18.874,22.736l-16.964,22.117s-17.117-10.431-21.846-17.132S245.175,245.719,245.175,245.719Z" transform="translate(-224.636 -245.719)" fill="#ffd942"/>
            <path id="Trazado_1044184" data-name="Trazado 1044184" d="M260.716,284.233c-1.819-6.083-3.622-13.163-7.335-15.058-3.691-1.9-6.618-1.542-9.544-2.566-2.224-.777-2.048-2.9-.158-4.144l.022,0a5.614,5.614,0,0,1,2.291-.836c.644-.108,1.294-.172,1.921-.235a18.275,18.275,0,0,1,9.34,1.185c3.684,1.6,8.416,7.65,10.717,15.653S263.168,292.4,260.716,284.233Z" transform="translate(-224.597 -245.684)" fill="#ffa961"/>
            <path id="Trazado_1044185" data-name="Trazado 1044185" d="M272.592,271.239c-1.694-5.546-1.38-7.138-5.786-6.534s-5.523,3.608-4.4,6.449a18.556,18.556,0,0,0,2.967,4.875C266.041,277.041,274.093,276.151,272.592,271.239Z" transform="translate(-224.553 -245.677)" fill="#ffa961"/>
            <path id="Trazado_1044186" data-name="Trazado 1044186" d="M279.445,271.48c-1.694-5.546-1.38-7.138-5.786-6.534s-5.523,3.608-4.4,6.449a18.557,18.557,0,0,0,2.967,4.875C272.894,277.283,280.946,276.392,279.445,271.48Z" transform="translate(-224.538 -245.677)" fill="#ffa961"/>
            <path id="Trazado_1044187" data-name="Trazado 1044187" d="M284.525,273.928c-1.264-5.66-.829-7.223-5.268-6.958s-5.784,3.174-4.878,6.094a18.558,18.558,0,0,0,2.584,5.087C277.549,279.212,285.645,278.941,284.525,273.928Z" transform="translate(-224.526 -245.672)" fill="#ffa961"/>
            <path id="Trazado_1044188" data-name="Trazado 1044188" d="M242.055,253.9c-11.656,5.326-11.287,19.195-11.287,19.195l4.326,1.081s-1.1-5.072,4.014-10.85,10.479-6.4,10.479-6.4S246.258,251.977,242.055,253.9Z" transform="translate(-224.622 -245.702)" fill="#f5d59a" opacity="0.3"/>
            <path id="Trazado_1044189" data-name="Trazado 1044189" d="M247.911,261.392a6.937,6.937,0,0,0-1.157,2.262c-.295.685-3.187.7-3.323.462a1.676,1.676,0,0,1,.245-1.652l.022,0a5.614,5.614,0,0,1,2.291-.836C246.634,261.518,247.284,261.454,247.911,261.392Z" transform="translate(-224.595 -245.684)" fill="#ffcca1" opacity="0.5"/>
            <path id="Trazado_1044190" data-name="Trazado 1044190" d="M324.065,375.659c.149.46,8.163,17.026,8.328,18.372,1.149,9.351-6.633,25.2-12.936,27.326-7.368,2.516-24.886-19.081-25.6-22.772-.727-3.8-22.055-85.185-24.175-91.787-.794-2.464,1.714-5,5.432-6.887,6.186-3.141,15.7-4.471,18.743-.689C298.729,305.289,321,366.1,324.065,375.659Z" transform="translate(-224.536 -245.605)" fill="#cc43ba"/>
          </g>
          <path id="Trazado_1044191" data-name="Trazado 1044191" d="M307.364,372.295c-7.368,2.516-15.552,2.837-16.261-.853-.727-3.8-19.3-58.047-21.415-64.648-.794-2.464,1.714-5,5.432-6.887,4.241,12.748,16.335,47.323,19.309,57.42A25.236,25.236,0,0,0,307.364,372.295Z" transform="translate(-224.536 -245.599)" fill="#cc43ba" opacity="0.3"/>
        </g>
        <path id="Trazado_1044192" data-name="Trazado 1044192" d="M386.281,228.222v35.35c-7.428-9.356-13.311-16.928-14.662-18.9-.482-.724.627-2.749,2.557-5.209h.048c-2.6-2.99-6.9-6.221-15.1-2.171a44.239,44.239,0,0,1-4.389,1.881,3.037,3.037,0,0,1-.674.386c-9.26,4.051-10.659,6.608-15.963,10.513-3.617,2.7-6.318,1.254-6.752-.482-.53.434-1.109.868-1.736,1.35-5.257,3.907-8.729-1.013-5.788-2.652a2.688,2.688,0,0,1,.627-.386c-4.051,1.35-6.221-2.508-3.665-3.907a27.286,27.286,0,0,0,3.665-2.315c-1.832-.772-2.363-2.942-.578-3.907a29.274,29.274,0,0,0,9.066-7.379c3.087-3.521,4.293-4.871,15.144-9.549,5.4-6.222-9.067-6.414-7.91-10.851,1.158-4.63,10.465-.578,14.227,1.543,3.135,1.736,9.982,4.919,14.034,6.607,2.7.29,4.919.82,5.98,1.543,3.521,2.315,5.98,5.546,10.224,9.6C385.219,228.9,385.75,228.512,386.281,228.222Z" transform="translate(0.655 0.2)" fill="#87430f" opacity="0.7"/>
        <g id="Grupo_1200201" data-name="Grupo 1200201" transform="translate(322.785 187.347)">
          <path id="Trazado_1044193" data-name="Trazado 1044193" d="M472.4,276.261c3.948,4.7,5.005,13.6-5.466,22.885-.643.57-1.286,1.14-1.925,1.652-9.66,7.851-18.062,9.722-20.91,6.506-3.067-3.46-56.664-70.1-61.373-77.079-.529-.844.746-3.23,3.006-6.108,5.432-6.947,16.224-16.73,19.326-14.341C409.431,213.17,468.452,271.56,472.4,276.261Z" transform="translate(-321.991 -187.144)" fill="#ffead9"/>
          <path id="Trazado_1044194" data-name="Trazado 1044194" d="M465.01,300.764c-9.66,7.851-18.062,9.722-20.91,6.506-3.067-3.46-56.664-70.1-61.373-77.079-.529-.844.746-3.23,3.006-6.108l.193.156C404.634,250.407,434.721,298.417,465.01,300.764Z" transform="translate(-321.991 -187.111)" fill="#ffa961" opacity="0.2"/>
          <path id="Trazado_1044195" data-name="Trazado 1044195" d="M404.015,210.2c.654.678-.19,2.684-2.084,5.236a52.533,52.533,0,0,1-6.064,6.851,49.679,49.679,0,0,1-7.164,5.857c-2.568,1.729-4.556,2.508-5.211,1.831-.681-.708.321-2.907,2.43-5.708a58.594,58.594,0,0,1,5.745-6.348,56.257,56.257,0,0,1,6.562-5.487C401.1,210.435,403.332,209.5,404.015,210.2Z" transform="translate(-321.989 -187.142)" fill="#bd8d6a" opacity="0.5"/>
          <path id="Trazado_1044196" data-name="Trazado 1044196" d="M402.017,215.466a52.535,52.535,0,0,1-6.064,6.851,49.681,49.681,0,0,1-7.164,5.857c-.932-1.36-1.644-2.534-1.834-2.748a8.632,8.632,0,0,0-.946-1.13c-2.975-3.541-8.068-7.5-17.805-2.7-10.781,5.291-17.648,5.747-21.032-1.093-2.656-5.464-6.163-12.964,7.852-17.744,6.316-4.778,26.6-4.755,31.083-1.731,4.182,2.744,7.051,6.6,12.208,11.429.383.371.767.742,1.208,1.116C399.689,213.7,400.66,214.427,402.017,215.466Z" transform="translate(-322.075 -187.167)" fill="#ffa961"/>
          <path id="Trazado_1044197" data-name="Trazado 1044197" d="M358.9,200.831c-16.045,6.776-17.349,8.191-21.305,12.723a35.558,35.558,0,0,1-10.578,8.625c-3.459,1.88.467,7.722,6.749,3.245s7.971-7.455,18.871-11.99S359.34,200.647,358.9,200.831Z" transform="translate(-322.117 -187.163)" fill="#ffa961"/>
          <path id="Trazado_1044198" data-name="Trazado 1044198" d="M357.487,205.177a48.735,48.735,0,0,0-23.5,15.65,35.547,35.547,0,0,1-10.578,8.625c-3.459,1.88.467,7.722,6.749,3.245s7.971-7.455,18.871-11.991S357.487,205.177,357.487,205.177Z" transform="translate(-322.125 -187.153)" fill="#ffa961"/>
          <path id="Trazado_1044199" data-name="Trazado 1044199" d="M360.515,209.484a48.727,48.727,0,0,0-23.182,16.109,35.544,35.544,0,0,1-10.407,8.831c-3.422,1.947.618,7.712,6.811,3.112s7.822-7.61,18.631-12.358S360.515,209.484,360.515,209.484Z" transform="translate(-322.117 -187.143)" fill="#ffa961"/>
          <path id="Trazado_1044200" data-name="Trazado 1044200" d="M370.5,208.576a48.719,48.719,0,0,0-23.224,16.048,35.543,35.543,0,0,1-10.43,8.8c-3.427,1.938.6,7.713,6.8,3.13s7.843-7.589,18.663-12.309S370.5,208.576,370.5,208.576Z" transform="translate(-322.095 -187.145)" fill="#ffa961"/>
          <path id="Trazado_1044201" data-name="Trazado 1044201" d="M354.719,203.044c7.99-7.974-10.078-8.019-8.712-13.37,1.377-5.4,12.271-.674,16.685,1.8s15.253,7.443,18.826,8.776-14.6,6.593-19.821,6.421S354.719,203.044,354.719,203.044Z" transform="translate(-322.072 -187.193)" fill="#ffa961"/>
          <path id="Trazado_1044202" data-name="Trazado 1044202" d="M331.423,223.764a49.311,49.311,0,0,0,7.282-7.289c3.419-4.28,9.827-7.075,9.827-7.075a18.187,18.187,0,0,0-10.013,6.265C335.731,219.114,331.423,223.764,331.423,223.764Z" transform="translate(-322.104 -187.144)" fill="#ffa961" opacity="0.2"/>
          <path id="Trazado_1044203" data-name="Trazado 1044203" d="M330.66,230.825a49.366,49.366,0,0,0,7.282-7.289c3.419-4.28,9.827-7.075,9.827-7.075a18.185,18.185,0,0,0-10.012,6.264C334.967,226.176,330.66,230.825,330.66,230.825Z" transform="translate(-322.106 -187.128)" fill="#ffa961" opacity="0.2"/>
          <path id="Trazado_1044204" data-name="Trazado 1044204" d="M336.827,233.165a49.311,49.311,0,0,0,7.282-7.289c3.419-4.28,9.827-7.075,9.827-7.075a18.185,18.185,0,0,0-10.012,6.264C341.134,228.516,336.827,233.165,336.827,233.165Z" transform="translate(-322.092 -187.123)" fill="#ffa961" opacity="0.2"/>
        </g>
        <rect id="Rectángulo_415777" data-name="Rectángulo 415777" width="46.893" height="5.894" transform="translate(240.633 177.222)" fill="#b5b5bf" opacity="0.5"/>
        <rect id="Rectángulo_415778" data-name="Rectángulo 415778" width="20.025" height="2.728" transform="translate(241.711 186.417)" fill="#b5b5bf" opacity="0.5"/>
        <rect id="Rectángulo_415779" data-name="Rectángulo 415779" width="10.499" height="2.648" transform="translate(242.197 190.918)" fill="#b5b5bf" opacity="0.5"/>
        <rect id="Rectángulo_415780" data-name="Rectángulo 415780" width="7.904" height="3.726" transform="translate(277.881 194.285)" fill="#b5b5bf" opacity="0.4"/>
        <rect id="Rectángulo_415781" data-name="Rectángulo 415781" width="33.62" height="7.004" transform="translate(153.45 321.999)" fill="#b5b5bf" opacity="0.4"/>
        <path id="Trazado_1044205" data-name="Trazado 1044205" d="M387.562,342.024v10.417a14.086,14.086,0,0,1-9.453,13.262c-.578-1.254-1.158-2.557-1.736-3.859-1.35-3.039-2.749-6.125-4.1-9.163-.1-.242-.241-.482-.338-.724v-.048c-1.012-2.267-1.977-4.533-2.942-6.752-.82-1.881-1.592-3.665-2.315-5.45-4.678-11.044-8.1-20.062-8.15-22.618-.048-1.592,1.061-3.424,2.893-5.257h.048c.386-.338.772-.724,1.206-1.109-2.7-4.051-4.1-5.594-6.269-7.234-.53-.434-1.158-.868-1.881-1.35a9.694,9.694,0,0,1-2.363-2.219,6.707,6.707,0,0,1-.964-1.833,13.434,13.434,0,0,0-1.35-2.99,1.953,1.953,0,0,1-.53-.338c-.1-.048-.193-.144-.29-.192-.53-.386-1.061-.676-1.543-.964-3.327-1.736-6.125-1.206-9.211-.192-.048,0-.144.048-.192.048a3.141,3.141,0,0,1-1.881-.048,1.683,1.683,0,0,1-.434-.193,2.542,2.542,0,0,1-.53-.241,5.6,5.6,0,0,1-1.64-1.35,4.384,4.384,0,0,1-.82-1.109,4.09,4.09,0,0,1-.386-2.171,1.561,1.561,0,0,1,1.206-1.013,1.73,1.73,0,0,0,.53-.192,7.712,7.712,0,0,0,1.3-.579c-.1,0-.242.048-.338.048a.821.821,0,0,1-.338.048,6.164,6.164,0,0,1-.916.048h-.048c-.144,0-.192-.048-.29-.048a3.11,3.11,0,0,1-.964-.144.289.289,0,0,1-.192-.048,9.549,9.549,0,0,1-1.109-.338l-.579-.29c-3.135-1.591-4.629-5.112-1.061-6.414-.1,0-.145-.048-.192-.048-.1,0-.145-.048-.242-.048a8.418,8.418,0,0,1-1.543-.53c-.048,0-.048,0-.048-.048a7.191,7.191,0,0,1-1.447-.868,4.388,4.388,0,0,1-.674-.676,1.471,1.471,0,0,1-.482-.626.047.047,0,0,1-.048-.048h-.048a4.733,4.733,0,0,1-.338-.724c-.048,0-.048,0-.048-.048-.048-.144-.1-.338-.145-.482l-1.061.1-2.122.192-1.109.1-2.026.144a10.748,10.748,0,0,1-3.038-.144l-6.992-1.254-.048-.192a.757.757,0,0,1-.482-.53.68.68,0,0,1,.386-.578v-.192l6.656-2.509a12.831,12.831,0,0,1,2.99-.675l1.736-.144,2.315-.192,1.833-.193,3.327-.29,2.411-.192,2.026-.193c-.048-1.109.627-2.074,2.363-2.6,5.98-1.833,10.513-7.476,17.6-8.006,5.98-.434,12.925,1.158,17.313,4.581h.193a1.2,1.2,0,0,0,.386-.048,5.649,5.649,0,0,1,4.775,2.267h.338a2.565,2.565,0,0,1,.868.048,2.72,2.72,0,0,1,1.5.82h.1l.579-.1a2.253,2.253,0,0,1,2.411,2.025,2.219,2.219,0,0,1-2.026,2.411l-.965.1h-.241c-.048.048-.1.1-.145.1a6.183,6.183,0,0,1,.386.82,19.574,19.574,0,0,1,1.061,2.509,27.754,27.754,0,0,1,1.542,11.912,13.16,13.16,0,0,1-.626,2.7c-1.543,4.244-.29,7.764,2.267,11.912,2.749-1.158,4.871-1.833,5.5-1.688v41.331A2.883,2.883,0,0,1,387.562,342.024Z" transform="translate(0.628 0.311)" fill="#87430f" opacity="0.6"/>
        <g id="Grupo_1200207" data-name="Grupo 1200207" transform="translate(312.43 249.113)">
          <g id="Grupo_1200206" data-name="Grupo 1200206">
            <path id="Trazado_1044206" data-name="Trazado 1044206" d="M373.538,262.237a24.56,24.56,0,0,1,1.486,10.516,9.965,9.965,0,0,1-.49,2.353c-1.877,5.37,1.2,9.281,5.515,15.536,4.205,6.079-10.071,18.55-15.926,9.594s-6.715-9.841-10.607-12.428c-3.344-2.226-2.689-3.972-4.177-6.133a10.925,10.925,0,0,0-3.66-3.152,34.22,34.22,0,0,0-3.281-1.692c-1.947-.654-.971-3.089,1.509-6.124a54.948,54.948,0,0,1,6.525-6.483,67.9,67.9,0,0,1,8.895-6.471c3.634-2.181,6.849-3.426,8.492-2.762a7.593,7.593,0,0,1,2.894,2.183A16.61,16.61,0,0,1,373.538,262.237Z" transform="translate(-311.727 -248.809)" fill="#ffa961"/>
            <path id="Trazado_1044207" data-name="Trazado 1044207" d="M351.8,281.873a3.263,3.263,0,0,1-2.446-.231,2.941,2.941,0,0,1-.509-.311c-3.705-2.648-6.533-2.15-9.723-1.05a3.3,3.3,0,0,1-2.683-.362c-2.265-1.217-3.845-4.315-1.53-4.934,3.157-.855,5.174-4.358,9.012-4.311a.655.655,0,0,1,.147,0,15.664,15.664,0,0,1,11.429,5.9C356.342,277.735,354.374,281.172,351.8,281.873Z" transform="translate(-311.743 -248.773)" fill="#ffa961"/>
            <path id="Trazado_1044208" data-name="Trazado 1044208" d="M367.169,254.478c-3.507-4.192-10.935-6.1-17.177-5.568s-10.143,5.559-15.392,7.247.485,8.113,5.766,6.1,9.884-3.172,15.324-.416S368.714,256.325,367.169,254.478Z" transform="translate(-311.746 -248.822)" fill="#ffa961"/>
            <path id="Trazado_1044209" data-name="Trazado 1044209" d="M361.2,260.023c-3.507-4.192-10.935-6.1-17.177-5.568s-10.142,5.559-15.393,7.247.485,8.113,5.767,6.1,9.884-3.172,15.323-.416S362.748,261.87,361.2,260.023Z" transform="translate(-311.759 -248.81)" fill="#ffa961"/>
            <path id="Trazado_1044210" data-name="Trazado 1044210" d="M364.152,266.286c-3.507-4.192-10.935-6.1-17.177-5.568s-10.142,5.559-15.392,7.247.485,8.113,5.767,6.1,9.884-3.172,15.323-.416S365.7,268.133,364.152,266.286Z" transform="translate(-311.753 -248.796)" fill="#ffa961"/>
            <g id="Grupo_1200202" data-name="Grupo 1200202" transform="translate(21.094 12.122)" opacity="0.4">
              <path id="Trazado_1044211" data-name="Trazado 1044211" d="M334.906,273.563a5.892,5.892,0,0,1-2.066.38,6.135,6.135,0,0,0,4.5.1c3.547-1.351,6.788-2.312,10.182-1.966C343.207,270.817,339.289,271.893,334.906,273.563Z" transform="translate(-332.84 -260.893)" fill="#ffa961"/>
              <path id="Trazado_1044212" data-name="Trazado 1044212" d="M352.884,260.917c3.564.882,6.8,2.521,8.78,4.89,1.312,1.567-3.956,7.742-8.9,7.895,5.428,2.552,12.873-5.584,11.34-7.416C361.674,263.384,357.372,261.579,352.884,260.917Z" transform="translate(-332.796 -260.917)" fill="#ffa961"/>
            </g>
            <path id="Trazado_1044213" data-name="Trazado 1044213" d="M356.845,256.727a12.19,12.19,0,0,1,2.744,2.367c1.545,1.847-6.04,10.119-11.479,7.364s-10.042-1.6-15.323.416a6.149,6.149,0,0,1-4.526-.107A6.378,6.378,0,0,0,334.4,267.8c5.282-2.012,9.884-3.172,15.323-.416s13.025-5.517,11.479-7.363A13.393,13.393,0,0,0,356.845,256.727Z" transform="translate(-311.756 -248.804)" fill="#ffa961" opacity="0.3"/>
            <g id="Grupo_1200203" data-name="Grupo 1200203" transform="translate(14.799 7.05)" opacity="0.5">
              <path id="Trazado_1044214" data-name="Trazado 1044214" d="M355.723,256.842l1.069-.11a19.791,19.791,0,0,0-2.044-.876C354.086,256.309,354.557,256.961,355.723,256.842Z" transform="translate(-326.496 -255.856)" fill="#cf5800"/>
              <path id="Trazado_1044215" data-name="Trazado 1044215" d="M373.571,262.232l-23.107,1.987-22.83,1.977c-1.5-1.579-1.665-3.649,1-4.5a17.056,17.056,0,0,0,2.962-1.327l6.267-.64,20.55-2.113a2.707,2.707,0,0,0,.948.131c2,.064,6.775-.275,11.386-.579A16.609,16.609,0,0,1,373.571,262.232Z" transform="translate(-326.558 -255.853)" fill="#cf5800"/>
            </g>
            <g id="Grupo_1200204" data-name="Grupo 1200204" transform="translate(0 3.869)">
              <path id="Trazado_1044216" data-name="Trazado 1044216" d="M371.043,259.388l2.314-.238a1.95,1.95,0,0,0,1.74-2.138h0a1.95,1.95,0,0,0-2.138-1.74l-2.314.237a1.95,1.95,0,0,0-1.74,2.138h0A1.949,1.949,0,0,0,371.043,259.388Z" transform="translate(-311.665 -252.677)" fill="#333375"/>
              <path id="Trazado_1044217" data-name="Trazado 1044217" d="M311.8,263.285a.769.769,0,1,0,.687-.69A.7.7,0,0,0,311.8,263.285Z" transform="translate(-311.792 -252.661)" fill="#2a2a61"/>
              <path id="Trazado_1044218" data-name="Trazado 1044218" d="M370.022,254.623a5.1,5.1,0,0,0-4.607-1.91l-9.947,1.022c-2.193.225-1.874,1.525-.271,1.361l7.429-.763c3.045-.313,3.05,2.333,2.846,2.744S370.022,254.623,370.022,254.623Z" transform="translate(-311.699 -252.683)" fill="#333375"/>
              <path id="Trazado_1044219" data-name="Trazado 1044219" d="M312.11,262.631l.133,1.3,6.2,1.047a9.859,9.859,0,0,0,2.682.086l49.808-5.116a2.692,2.692,0,0,0,2.4-2.954h0a2.692,2.692,0,0,0-2.954-2.4l-49.808,5.116a10.186,10.186,0,0,0-2.609.629Z" transform="translate(-311.792 -252.678)" fill="#424299"/>
              <rect id="Rectángulo_415782" data-name="Rectángulo 415782" width="15.346" height="5.385" transform="translate(26.113 10.659) rotate(174.134)" fill="#9292eb"/>
            </g>
            <g id="Grupo_1200205" data-name="Grupo 1200205" transform="translate(24.902 7.282)">
              <path id="Trazado_1044220" data-name="Trazado 1044220" d="M354.367,276.154c-3.763-4.77-8.991-9.225-12.912-11.019s-6.82-4.015-3.082-8.314a3.256,3.256,0,0,1,2.724-.719,25.956,25.956,0,0,1,4.207.693c1.752.384,3.741.871,5.894,1.335,6.41,1.347,8.251,5.087,12.369,11.181C367.435,275.039,358.125,280.94,354.367,276.154Z" transform="translate(-336.639 -256.087)" fill="#ffa961"/>
              <path id="Trazado_1044221" data-name="Trazado 1044221" d="M345.3,256.795a18.911,18.911,0,0,1-2.644,4c-.88.642-3.863-.815-4.033-1.178-.15-.319.229-1.223,2.469-3.514A25.963,25.963,0,0,1,345.3,256.795Z" transform="translate(-336.635 -256.087)" fill="#ffba80"/>
            </g>
            <path id="Trazado_1044222" data-name="Trazado 1044222" d="M374.544,275.066c-1.877,5.37,1.2,9.281,5.515,15.536,4.205,6.079-10.071,18.55-15.926,9.594s-6.715-9.841-10.607-12.428c-3.344-2.226-2.689-3.972-4.177-6.133a2.943,2.943,0,0,1-.509-.311c-3.705-2.648-6.533-2.15-9.723-1.05a3.3,3.3,0,0,1-2.683-.362c2.293.479,2.4.216,5.119-.785.735-.271,3.364-.487,4.134-.644.377-.083.76-.156,1.141-.2,2.863-.395,4,1.567,4.965,3.585a12.091,12.091,0,0,0,1.787,3.081c1.141,1.193,9.333,4.07,15,.5,3.4-2.144,4.572-9.636,6.453-12.733A9.8,9.8,0,0,1,374.544,275.066Z" transform="translate(-311.738 -248.769)" fill="#ffa961" opacity="0.3"/>
            <path id="Trazado_1044223" data-name="Trazado 1044223" d="M404.534,392.679c-4.971,1.28-15.27-21.2-16.246-22.677-3.37-5.075-30.818-62.347-31.093-69.149-.054-1.4.913-3,2.507-4.632l.022-.01c6.129-6.3,21.339-13.19,21.825-12.156.616,1.308,30.659,48.856,42.241,66.036,2.588,3.837,13.033,23.666,10.523,36.983C432.216,398.207,418.427,404.233,404.534,392.679Z" transform="translate(-311.691 -248.744)" fill="#9b9bbf"/>
          </g>
          <path id="Trazado_1044224" data-name="Trazado 1044224" d="M398.193,369.959c-4.971,1.28-8.929,1.49-9.9.016-3.37-5.075-30.818-62.347-31.093-69.149-.054-1.4.913-3,2.507-4.632l.022-.01s23.54,48.031,28.908,59.231C390.543,359.416,394.222,364.749,398.193,369.959Z" transform="translate(-311.691 -248.717)" fill="#9b9bbf" opacity="0.3"/>
        </g>
        <path id="Trazado_1044225" data-name="Trazado 1044225" d="M196.234,301.206,160.16,321.413s-.29-1.5-.772-4c-1.061,1.977-2.074,4-3.135,6.125-.337.772-.724,1.543-1.109,2.267a5.239,5.239,0,0,1,1.5,2.6c.386,2.653-2.942,17.554-6.7,33.421H116.852c8.15-20.594,17.459-44.851,17.989-45.575.242-.29,1.736.048,3.809.724a67.1,67.1,0,0,0-.964-11.719,13.235,13.235,0,0,1,1.013-7.378l-.048-.048a40.524,40.524,0,0,1,1.3-6.27c1.206-8.1,4.533-18.23,5.883-20.4,1.784-3.038,10.755-.386,15.288-1.158,1.64-.29,2.845.772,3.521,2.459a35.631,35.631,0,0,0,6.318-1.88c1.736-.724,2.893-.627,3.665-.193l11.285-4.967Z" transform="translate(0.204 0.328)" fill="#87430f" opacity="0.6"/>
        <g id="Grupo_1200208" data-name="Grupo 1200208" transform="translate(101.477 254.881)">
          <path id="Trazado_1044226" data-name="Trazado 1044226" d="M163.364,293.369a10.066,10.066,0,0,0-.92.609c-4.686,3.364-8.5,10.837-12.359,18.657-1.692,3.459-3.4,6.973-5.187,10.253-6.115,11.176-19.025,6.342-15.389-1.742,3.717-8.283,3.483-18.069,1.988-26.766s6.421-15.977,13.336-18.526c6.9-2.553,17.944,5.249,20.862,10.726C168.617,292.039,170.612,289.1,163.364,293.369Z" transform="translate(-101.246 -254.532)" fill="#ffa961"/>
          <path id="Trazado_1044227" data-name="Trazado 1044227" d="M162.4,293.941c-4.686,3.364-8.5,10.837-12.359,18.657l-.382-20.164Z" transform="translate(-101.2 -254.494)" fill="#6e0c21" opacity="0.3"/>
          <path id="Trazado_1044228" data-name="Trazado 1044228" d="M133.529,288.7c-1.515-6.953,4.268-25.388,6.092-28.411s10.795-.39,15.3-1.141,5.873,8.3,1.564,13.643S134.906,295.021,133.529,288.7Z" transform="translate(-101.237 -254.569)" fill="#ffa961"/>
          <path id="Trazado_1044229" data-name="Trazado 1044229" d="M132.442,286.992c1.035-8.521,5.505-20.108,13.7-22.575s12.412-2.216,18.641-4.7,5.586,4.051,3.038,8.756-17.519,15.791-21.6,21.495S132.442,286.992,132.442,286.992Z" transform="translate(-101.238 -254.568)" fill="#ffa961"/>
          <path id="Trazado_1044230" data-name="Trazado 1044230" d="M142.141,271.173c7.738,14.725,11.776,39.413,11.776,39.413L190,290.359l-10.291-35.781Z" transform="translate(-101.217 -254.578)" fill="#597aff"/>
          <path id="Trazado_1044231" data-name="Trazado 1044231" d="M178.05,259.6c-8.144,3.5-31.069,13.854-31.162,13.9s4.649,9.283,7.251,9.023,24.32-11.494,24.709-12.155S178.05,259.6,178.05,259.6Z" transform="translate(-101.206 -254.567)" fill="#597aff" opacity="0.4"/>
          <path id="Trazado_1044232" data-name="Trazado 1044232" d="M129.831,395.151c-.346,3.968-25.013,19.693-35.711,15.485-.971-.38-1.619-14.9-2.733-15.485-5.275-2.773,8.439-24.737,10.587-28.944,4.586-9.022,25.885-59.764,26.741-60.9.332-.441,3.68.478,7.665,2.107,6.083,2.495,13.661,6.651,14.154,10.028C151.358,323.04,130.531,387.517,129.831,395.151Z" transform="translate(-101.308 -254.465)" fill="#6e0c21"/>
          <path id="Trazado_1044233" data-name="Trazado 1044233" d="M150.451,275.662c-1.093,1.772-2.465,3.625-3.964,5.678,1.733,4.873,3.169,9.954,4.3,14.492.994-2.353,1.521-4.461,2.54-6.445,1.318-2.569,4.043-6.026,4.78-8.241C160.479,274.02,153.312,271.024,150.451,275.662Z" transform="translate(-101.207 -254.536)" fill="#87430f" opacity="0.4"/>
          <path id="Trazado_1044234" data-name="Trazado 1044234" d="M138.166,289.663c3.98-7.945,8.739-13.114,11.6-17.752s10.028-1.642,7.658,5.483c-.738,2.215-3.463,5.674-4.78,8.241-1.5,2.928-1.908,6.11-4.377,9.982C143.635,302.886,133.4,299.184,138.166,289.663Z" transform="translate(-101.228 -254.544)" fill="#ffa961"/>
          <path id="Trazado_1044235" data-name="Trazado 1044235" d="M148.432,274.226c3.177.39,4.915,1.973,5.5,1.633s2.23-3.85,1.212-4.7-3.433-1.4-4.372-.477A20.952,20.952,0,0,0,148.432,274.226Z" transform="translate(-101.203 -254.543)" fill="#ffc28f"/>
          <path id="Trazado_1044236" data-name="Trazado 1044236" d="M136.381,307.415c-9.4,19.73-23.208,49.266-28,69.458-5.275-2.773-8.559-6.457-6.41-10.665,4.586-9.022,25.885-59.764,26.741-60.9C129.047,304.867,132.4,305.786,136.381,307.415Z" transform="translate(-101.308 -254.465)" fill="#6e0c21" opacity="0.3"/>
        </g>
      </g>
    </g>
  </g>
</svg>
