<svg xmlns="http://www.w3.org/2000/svg" xmlns:xlink="http://www.w3.org/1999/xlink" width="113" height="113" viewBox="0 0 113 113">
  <defs>
    <filter id="Trazado_982547" x="0" y="0" width="113" height="113" filterUnits="userSpaceOnUse">
      <feOffset dy="3" input="SourceAlpha"/>
      <feGaussianBlur stdDeviation="3" result="blur"/>
      <feFlood flood-opacity="0.161"/>
      <feComposite operator="in" in2="blur"/>
      <feComposite in="SourceGraphic"/>
    </filter>
  </defs>
  <g id="Grupo_1200210" data-name="Grupo 1200210" transform="translate(-192 -1409)">
    <g id="Grupo_1185996" data-name="Grupo 1185996" transform="translate(201 1415)">
      <g id="Grupo_1180760" data-name="Grupo 1180760">
        <g id="Grupo_1174888" data-name="Grupo 1174888">
          <g id="Grupo_1166845" data-name="Grupo 1166845">
            <g id="Grupo_1166720" data-name="Grupo 1166720">
              <g id="Grupo_1164305" data-name="Grupo 1164305">
                <g id="Grupo_1163948" data-name="Grupo 1163948">
                  <g id="Grupo_1158168" data-name="Grupo 1158168">
                    <g id="Grupo_1152576" data-name="Grupo 1152576">
                      <g id="Grupo_1148633" data-name="Grupo 1148633">
                        <g id="Grupo_1148525" data-name="Grupo 1148525">
                          <g transform="matrix(1, 0, 0, 1, -9, -6)" filter="url(#Trazado_982547)">
                            <g id="Trazado_982547-2" data-name="Trazado 982547" transform="translate(9 6)" fill="#f2f7e5">
                              <path d="M 47.5 93.5 C 41.28937149047852 93.5 35.26533508300781 92.28397369384766 29.59518623352051 89.88570404052734 C 24.11771965026855 87.56893157958984 19.19813346862793 84.25196075439453 14.97309303283691 80.02691650390625 C 10.74804019927979 75.80186462402344 7.431066513061523 70.88229370117188 5.114293098449707 65.40481567382812 C 2.716026782989502 59.73468017578125 1.5 53.71062850952148 1.5 47.5 C 1.5 41.28937149047852 2.716026782989502 35.26533508300781 5.114293098449707 29.59518623352051 C 7.431066513061523 24.11771965026855 10.74804019927979 19.19813346862793 14.97309303283691 14.97309303283691 C 19.19813346862793 10.74804019927979 24.11771965026855 7.431066513061523 29.59518623352051 5.114293098449707 C 35.26533508300781 2.716026782989502 41.28937149047852 1.5 47.5 1.5 C 53.71062850952148 1.5 59.73468017578125 2.716026782989502 65.40481567382812 5.114293098449707 C 70.88229370117188 7.431066513061523 75.80186462402344 10.74804019927979 80.02691650390625 14.97309303283691 C 84.25196075439453 19.19813346862793 87.56893157958984 24.11771965026855 89.88570404052734 29.59518623352051 C 92.28397369384766 35.26533508300781 93.5 41.28937149047852 93.5 47.5 C 93.5 53.71062850952148 92.28397369384766 59.73468017578125 89.88570404052734 65.40481567382812 C 87.56893157958984 70.88229370117188 84.25196075439453 75.80186462402344 80.02691650390625 80.02691650390625 C 75.80186462402344 84.25196075439453 70.88229370117188 87.56893157958984 65.40481567382812 89.88570404052734 C 59.73468017578125 92.28397369384766 53.71062850952148 93.5 47.5 93.5 Z" stroke="none"/>
                              <path d="M 47.5 3 C 41.49121475219727 3 35.66376876831055 4.176155090332031 30.17950439453125 6.495796203613281 C 24.88084411621094 8.736953735351562 20.12152099609375 11.94598388671875 16.03375244140625 16.03375244140625 C 11.94598388671875 20.12152099609375 8.736953735351562 24.88084411621094 6.495796203613281 30.17950439453125 C 4.176155090332031 35.66376876831055 3 41.49121475219727 3 47.5 C 3 53.50878524780273 4.176155090332031 59.33623123168945 6.495796203613281 64.82049560546875 C 8.736953735351562 70.11915588378906 11.94598388671875 74.87847900390625 16.03375244140625 78.96624755859375 C 20.12152099609375 83.05401611328125 24.88084411621094 86.26304626464844 30.17950439453125 88.50419616699219 C 35.66376876831055 90.82384490966797 41.49121475219727 92 47.5 92 C 53.50878524780273 92 59.33623123168945 90.82384490966797 64.82049560546875 88.50419616699219 C 70.11915588378906 86.26304626464844 74.87847900390625 83.05401611328125 78.96624755859375 78.96624755859375 C 83.05401611328125 74.87847900390625 86.26304626464844 70.11915588378906 88.50419616699219 64.82049560546875 C 90.82384490966797 59.33623123168945 92 53.50878524780273 92 47.5 C 92 41.49121475219727 90.82384490966797 35.66376876831055 88.50419616699219 30.17950439453125 C 86.26304626464844 24.88084411621094 83.05401611328125 20.12152099609375 78.96624755859375 16.03375244140625 C 74.87847900390625 11.94598388671875 70.11915588378906 8.736953735351562 64.82049560546875 6.495796203613281 C 59.33623123168945 4.176155090332031 53.50878524780273 3 47.5 3 M 47.5 0 C 73.7335205078125 0 95 21.2664794921875 95 47.5 C 95 73.7335205078125 73.7335205078125 95 47.5 95 C 21.2664794921875 95 0 73.7335205078125 0 47.5 C 0 21.2664794921875 21.2664794921875 0 47.5 0 Z" stroke="none" fill="#496406"/>
                            </g>
                          </g>
                        </g>
                      </g>
                    </g>
                  </g>
                </g>
              </g>
            </g>
          </g>
        </g>
      </g>
    </g>
    <g id="innovation-document-idea-money-arrow_up" data-name="innovation-document-idea-money-arrow up" transform="translate(218 1432)">
      <rect id="Rectángulo_415784" data-name="Rectángulo 415784" width="41" height="54" rx="2" transform="translate(3 3)" fill="#e0e0e2"/>
      <path id="Trazado_1044237" data-name="Trazado 1044237" d="M59.261,24.13a13.809,13.809,0,0,1-5.4,10.917,5.466,5.466,0,0,0-2.1,4.38v1.585H40.5V39.426a5.522,5.522,0,0,0-2.157-4.417A13.71,13.71,0,0,1,34,19.047a13.046,13.046,0,0,1,10-7.878A13.843,13.843,0,0,1,46.131,11a13.13,13.13,0,0,1,13.13,13.13Z" transform="translate(-1.927 -0.559)" fill="#ffeb99"/>
      <path id="Trazado_1044238" data-name="Trazado 1044238" d="M52.13,43a1.876,1.876,0,1,1,0,3.751H40.876a1.876,1.876,0,1,1,0-3.751Z" transform="translate(-2.299 -2.548)" fill="#a78966"/>
      <path id="Trazado_1044239" data-name="Trazado 1044239" d="M41,47H52.254A5.627,5.627,0,1,1,41,47Z" transform="translate(-2.424 -2.796)" fill="#898890"/>
      <path id="Trazado_1044240" data-name="Trazado 1044240" d="M28.627,35l5.627,7.5H31.441V53.757H25.814V42.5H23Z" transform="translate(-1.305 -2.051)" fill="#ff3051"/>
      <circle id="Elipse_13420" data-name="Elipse 13420" cx="9" cy="9" r="9" transform="translate(7 7)" fill="#ffd422"/>
      <path id="Trazado_1044241" data-name="Trazado 1044241" d="M26.255,16.379A9.379,9.379,0,0,1,15.01,25.57a9.383,9.383,0,0,0,0-18.382,9.379,9.379,0,0,1,11.245,9.191Z" transform="translate(-0.808 -0.311)" fill="#ebbf00"/>
      <path id="Trazado_1044242" data-name="Trazado 1044242" d="M17,47h3.751v7.5H17Z" transform="translate(-0.932 -2.796)" fill="#9cdd05"/>
      <path id="Trazado_1044243" data-name="Trazado 1044243" d="M9,47h3.751v7.5H9Z" transform="translate(-0.435 -2.796)" fill="#2488ff"/>
      <path id="Trazado_1044244" data-name="Trazado 1044244" d="M59.88,24.13a13.809,13.809,0,0,1-5.4,10.917,5.466,5.466,0,0,0-2.1,4.38v1.585h-7.5V39.426a5.466,5.466,0,0,1,2.1-4.38,13.809,13.809,0,0,0,5.4-10.917A13.107,13.107,0,0,0,42.97,11.544a12.044,12.044,0,0,1,1.651-.375A13.136,13.136,0,0,1,59.88,24.13Z" transform="translate(-2.546 -0.559)" fill="#ffde55"/>
      <path id="Trazado_1044245" data-name="Trazado 1044245" d="M54.627,44.876a1.89,1.89,0,0,1-1.876,1.876H49A1.876,1.876,0,1,0,49,43h3.751A1.881,1.881,0,0,1,54.627,44.876Z" transform="translate(-2.921 -2.548)" fill="#806749"/>
      <path id="Trazado_1044246" data-name="Trazado 1044246" d="M52.5,47a5.627,5.627,0,0,1-5.627,5.627,5.09,5.09,0,0,1-1.266-.15,4.414,4.414,0,0,1-.6-.178A5.627,5.627,0,0,0,48.752,47Z" transform="translate(-2.673 -2.796)" fill="#57565c"/>
      <path id="Trazado_1044247" data-name="Trazado 1044247" d="M34.627,42.5H31.814V53.757H29V35Z" transform="translate(-1.678 -2.051)" fill="#cd2a00"/>
      <path id="Trazado_1044248" data-name="Trazado 1044248" d="M19,47h1.876v7.5H19Z" transform="translate(-1.056 -2.796)" fill="#5eac24"/>
      <path id="Trazado_1044249" data-name="Trazado 1044249" d="M11,47h1.876v7.5H11Z" transform="translate(-0.559 -2.796)" fill="#005ece"/>
      <path id="Trazado_1044250" data-name="Trazado 1044250" d="M52.494,35.238a14.663,14.663,0,0,0,5.777-11.667A14.05,14.05,0,0,0,45.14,9.55V4.814A2.822,2.822,0,0,0,42.328,2H4.814A2.822,2.822,0,0,0,2,4.814V55.458a2.822,2.822,0,0,0,2.814,2.814H42.328a2.822,2.822,0,0,0,2.814-2.814V50.694a6.577,6.577,0,0,0,5.58-5.712,2.8,2.8,0,0,0,.047-5.3v-.816a4.547,4.547,0,0,1,1.726-3.63Zm-9.229,20.22a.938.938,0,0,1-.938.938H4.814a.938.938,0,0,1-.938-.938V4.814a.938.938,0,0,1,.938-.938H42.328a.938.938,0,0,1,.938.938V9.54c-.441.028-.891.075-1.332.141a14,14,0,0,0-10.72,8.45,14.537,14.537,0,0,0,4.642,17.06,4.631,4.631,0,0,1,1.782,3.676v.816a2.8,2.8,0,0,0,.047,5.3,6.577,6.577,0,0,0,5.58,5.712Zm.938-6.565a4.7,4.7,0,0,1-4.6-3.751H48.8a4.7,4.7,0,0,1-4.6,3.751Zm5.627-5.627H38.576a.938.938,0,1,1,0-1.876H49.831a.938.938,0,1,1,0,1.876Zm-.938-4.4v.647H39.514v-.647A6.519,6.519,0,0,0,36.991,33.7a12.832,12.832,0,0,1-4.042-14.856,12.078,12.078,0,0,1,9.275-7.306A12.205,12.205,0,0,1,56.4,23.571a12.942,12.942,0,0,1-5.027,10.166,6.419,6.419,0,0,0-2.476,5.13Z"/>
      <path id="Trazado_1044251" data-name="Trazado 1044251" d="M46.689,19.751A2.814,2.814,0,0,1,49.5,22.565a.938.938,0,1,0,1.876,0,4.7,4.7,0,0,0-3.751-4.6V16.938a.938.938,0,0,0-1.876,0V17.97a4.689,4.689,0,0,0,.938,9.285,2.814,2.814,0,1,1-2.814,2.814.938.938,0,1,0-1.876,0,4.7,4.7,0,0,0,3.751,4.6V35.7a.938.938,0,1,0,1.876,0V34.663a4.689,4.689,0,0,0-.938-9.285,2.814,2.814,0,1,1,0-5.627Z" transform="translate(-2.485 -0.87)"/>
      <path id="Trazado_1044252" data-name="Trazado 1044252" d="M34.943,41.88l-5.627-7.5a.976.976,0,0,0-1.5,0l-5.627,7.5a.938.938,0,0,0-.084.985.916.916,0,0,0,.835.516h1.876V53.7a.938.938,0,0,0,.938.938h5.627a.938.938,0,0,0,.938-.938V43.38h1.876a.916.916,0,0,0,.835-.516A.938.938,0,0,0,34.943,41.88ZM31.379,41.5a.938.938,0,0,0-.938.938V52.759H26.689V42.442a.938.938,0,0,0-.938-.938h-.938l3.751-5,3.751,5Z" transform="translate(-1.243 -1.99)"/>
      <path id="Trazado_1044253" data-name="Trazado 1044253" d="M12.689,46H8.938A.938.938,0,0,0,8,46.938v7.5a.938.938,0,0,0,.938.938h3.751a.938.938,0,0,0,.938-.938v-7.5A.938.938,0,0,0,12.689,46Zm-.938,7.5H9.876V47.876h1.876Z" transform="translate(-0.373 -2.734)"/>
      <path id="Trazado_1044254" data-name="Trazado 1044254" d="M20.689,46H16.938a.938.938,0,0,0-.938.938v7.5a.938.938,0,0,0,.938.938h3.751a.938.938,0,0,0,.938-.938v-7.5A.938.938,0,0,0,20.689,46Zm-.938,7.5H17.876V47.876h1.876Z" transform="translate(-0.87 -2.734)"/>
      <path id="Trazado_1044255" data-name="Trazado 1044255" d="M16.814,19.379a.938.938,0,0,1-.938-.938.938.938,0,0,0-1.876,0,2.814,2.814,0,0,0,1.876,2.641v1.11a.938.938,0,0,0,1.876,0v-1.11a2.807,2.807,0,0,0-.938-5.455.938.938,0,1,1,.938-.938.938.938,0,1,0,1.876,0,2.814,2.814,0,0,0-1.876-2.641v-1.11a.938.938,0,0,0-1.876,0v1.11a2.807,2.807,0,0,0,.938,5.455.938.938,0,1,1,0,1.876Z" transform="translate(-0.746 -0.497)"/>
      <path id="Trazado_1044256" data-name="Trazado 1044256" d="M16.316,6A10.316,10.316,0,1,0,26.633,16.316,10.316,10.316,0,0,0,16.316,6Zm0,18.757a8.441,8.441,0,1,1,8.441-8.441A8.441,8.441,0,0,1,16.316,24.757Z" transform="translate(-0.249 -0.249)"/>
      <path id="Trazado_1044257" data-name="Trazado 1044257" d="M24.819,31.876a.938.938,0,0,0,0-1.876H7.938a.938.938,0,0,0,0,1.876Z" transform="translate(-0.311 -1.74)"/>
      <path id="Trazado_1044258" data-name="Trazado 1044258" d="M59.751,3.876V2H57.876V3.876H56V5.751h1.876V7.627h1.876V5.751h1.876V3.876Z" transform="translate(-3.356 0)"/>
      <path id="Trazado_1044259" data-name="Trazado 1044259" d="M59.751,56H57.876v1.876H56v1.876h1.876v1.876h1.876V59.751h1.876V57.876H59.751Z" transform="translate(-3.356 -3.356)"/>
    </g>
  </g>
</svg>
