<svg xmlns="http://www.w3.org/2000/svg" xmlns:xlink="http://www.w3.org/1999/xlink" width="295" height="231" viewBox="0 0 295 231">
  <defs>
    <clipPath id="clip-path">
      <rect id="Rectángulo_415735" data-name="Rectángulo 415735" width="295" height="231" transform="translate(180 753)" fill="#fff" stroke="#707070" stroke-width="1" opacity="0.84"/>
    </clipPath>
  </defs>
  <g id="Enmascarar_grupo_1098856" data-name="Enmascarar grupo 1098856" transform="translate(-180 -753)" clip-path="url(#clip-path)">
    <g id="OBJECTS" transform="translate(62.067 701.199)">
      <g id="Grupo_1199878" data-name="Grupo 1199878" transform="translate(123.708 104.769)">
        <path id="Trazado_1043771" data-name="Trazado 1043771" d="M391.2,267.758q-9.528,17.875-19.108,35.722a11.341,11.341,0,0,1-3.271,4.292c-1.942,1.319-4.463,1.3-6.809,1.233q-19.067-.543-38.1-.709l-87.8-.8-39.394-.359c-8.59-.078-17.134.25-25.705.275-4.358.013-8.984-.821-12.207-3.755-2.68-2.441-4.023-5.986-5.188-9.418A219.11,219.11,0,0,1,142.4,236.957c-1-16.709,2.721-33.586,16.1-44.829,4.986-4.19,10.9-7.23,15.578-11.763,14.362-13.92,14.564-39.159,31.046-50.489,7.594-5.22,17.319-6.336,26.514-5.729,8.59.567,17.214,2.554,24.647,6.9,7.763,4.533,13.851,11.374,20.3,17.636,12.931,12.55,28.636,23.453,46.534,25.54,11.385,1.327,22.907-1,34.348-.3a65.508,65.508,0,0,1,34.778,12.672c6.437,4.77,12.1,10.929,14.892,18.438,6.106,16.406-.55,33.618-8.255,48.228Q395.06,260.514,391.2,267.758Z" transform="translate(-128.922 -123.997)" fill="#e9f9fd" opacity="0.27"/>
      </g>
      <g id="Grupo_1199898" data-name="Grupo 1199898" transform="translate(316.019 240.423)">
        <g id="Grupo_1199897" data-name="Grupo 1199897" transform="translate(1.428 0)">
          <g id="Grupo_1199896" data-name="Grupo 1199896">
            <g id="Grupo_1199879" data-name="Grupo 1199879" transform="translate(26.277 9.629)">
              <path id="Trazado_1043772" data-name="Trazado 1043772" d="M509.812,393.02s10.072,5.679,9.9,1.979c-.15-3.314-7.978-2.279-9.609-2.027C509.917,393,509.812,393.02,509.812,393.02Z" transform="translate(-509.812 -392.621)" fill="#36ceef"/>
            </g>
            <g id="Grupo_1199880" data-name="Grupo 1199880" transform="translate(25.978)">
              <path id="Trazado_1043773" data-name="Trazado 1043773" d="M509.693,385.815s5.679-10.072,1.979-9.9S509.693,385.815,509.693,385.815Z" transform="translate(-509.293 -375.908)" fill="#36ceef"/>
            </g>
            <g id="Grupo_1199881" data-name="Grupo 1199881" transform="translate(19.986 14.055)">
              <path id="Trazado_1043774" data-name="Trazado 1043774" d="M498.893,400.7s10.072,5.679,9.9,1.979S498.893,400.7,498.893,400.7Z" transform="translate(-498.893 -400.302)" fill="#36ceef"/>
            </g>
            <g id="Grupo_1199882" data-name="Grupo 1199882" transform="translate(19.555 4.564)">
              <path id="Trazado_1043775" data-name="Trazado 1043775" d="M498.545,393.737s5.679-10.072,1.979-9.9S498.545,393.737,498.545,393.737Z" transform="translate(-498.146 -383.83)" fill="#36ceef"/>
            </g>
            <g id="Grupo_1199883" data-name="Grupo 1199883" transform="translate(14.945 18.522)">
              <path id="Trazado_1043776" data-name="Trazado 1043776" d="M490.145,408.405s8.836,4.982,8.689,1.737S490.145,408.405,490.145,408.405Z" transform="translate(-490.145 -408.055)" fill="#36ceef"/>
            </g>
            <g id="Grupo_1199884" data-name="Grupo 1199884" transform="translate(14.628 10.263)">
              <path id="Trazado_1043777" data-name="Trazado 1043777" d="M489.945,402.412s4.982-8.836,1.737-8.689S489.945,402.412,489.945,402.412Z" transform="translate(-489.595 -393.721)" fill="#36ceef"/>
            </g>
            <g id="Grupo_1199885" data-name="Grupo 1199885" transform="translate(10.488 22.754)">
              <path id="Trazado_1043778" data-name="Trazado 1043778" d="M482.409,416.332s8.812,3.564,8.284.566S482.409,416.332,482.409,416.332Z" transform="translate(-482.409 -415.4)" fill="#36ceef"/>
            </g>
            <g id="Grupo_1199886" data-name="Grupo 1199886" transform="translate(9.695 15.504)">
              <path id="Trazado_1043779" data-name="Trazado 1043779" d="M481.964,411.124s3.564-8.812.566-8.284S481.964,411.124,481.964,411.124Z" transform="translate(-481.032 -402.817)" fill="#36ceef"/>
            </g>
            <g id="Grupo_1199889" data-name="Grupo 1199889" transform="translate(4.266 20.626)">
              <g id="Grupo_1199887" data-name="Grupo 1199887" transform="translate(2.393 5.768)">
                <path id="Trazado_1043780" data-name="Trazado 1043780" d="M475.763,424.229s9.434,1.165,8.149-1.6S475.763,424.229,475.763,424.229Z" transform="translate(-475.763 -421.717)" fill="#36ceef"/>
              </g>
              <g id="Grupo_1199888" data-name="Grupo 1199888">
                <path id="Trazado_1043781" data-name="Trazado 1043781" d="M474.122,419.976s1.165-9.434-1.6-8.149S474.122,419.976,474.122,419.976Z" transform="translate(-471.61 -411.707)" fill="#36ceef"/>
              </g>
            </g>
            <g id="Grupo_1199892" data-name="Grupo 1199892" transform="translate(1.682 26.834)">
              <g id="Grupo_1199890" data-name="Grupo 1199890" transform="translate(1.972 4.947)">
                <path id="Trazado_1043782" data-name="Trazado 1043782" d="M470.547,433.246s8.179,1.01,7.065-1.383S470.547,433.246,470.547,433.246Z" transform="translate(-470.547 -431.068)" fill="#36ceef"/>
              </g>
              <g id="Grupo_1199891" data-name="Grupo 1199891">
                <path id="Trazado_1043783" data-name="Trazado 1043783" d="M469.3,429.651s1.01-8.179-1.383-7.065S469.3,429.651,469.3,429.651Z" transform="translate(-467.125 -422.482)" fill="#36ceef"/>
              </g>
            </g>
            <g id="Grupo_1199895" data-name="Grupo 1199895" transform="translate(0 31.969)">
              <g id="Grupo_1199893" data-name="Grupo 1199893" transform="translate(1.646 4.195)">
                <path id="Trazado_1043784" data-name="Trazado 1043784" d="M467.063,440.533s6.986.863,6.034-1.181S467.063,440.533,467.063,440.533Z" transform="translate(-467.063 -438.673)" fill="#36ceef"/>
              </g>
              <g id="Grupo_1199894" data-name="Grupo 1199894">
                <path id="Trazado_1043785" data-name="Trazado 1043785" d="M466.066,437.516s.863-6.986-1.181-6.034S466.066,437.516,466.066,437.516Z" transform="translate(-464.206 -431.393)" fill="#36ceef"/>
              </g>
            </g>
          </g>
        </g>
        <path id="Trazado_1043786" data-name="Trazado 1043786" d="M509.035,388.767s11.079-4.531,9.911-6.586S509.035,388.767,509.035,388.767Z" transform="translate(-481.777 -378.433)" fill="#36ceef"/>
        <path id="Trazado_1043787" data-name="Trazado 1043787" d="M491.178,391.409s-24.376,12.7-29.451,40.031" transform="translate(-461.727 -382.478)" fill="none" stroke="#36ceef" stroke-miterlimit="10" stroke-width="1"/>
      </g>
      <g id="Grupo_1199909" data-name="Grupo 1199909" transform="translate(150.534 203.749)">
        <g id="Grupo_1199908" data-name="Grupo 1199908" transform="translate(0 0.259)">
          <g id="Grupo_1199907" data-name="Grupo 1199907">
            <g id="Grupo_1199899" data-name="Grupo 1199899" transform="translate(0 10.491)">
              <path id="Trazado_1043788" data-name="Trazado 1043788" d="M191.542,337.721s-19.988.213-16.652-5.252c2.987-4.9,13.984,3.194,16.244,4.934C191.4,337.6,191.542,337.721,191.542,337.721Z" transform="translate(-174.514 -330.916)" fill="#36ceef"/>
            </g>
            <g id="Grupo_1199900" data-name="Grupo 1199900" transform="translate(16.976)">
              <path id="Trazado_1043789" data-name="Trazado 1043789" d="M203.978,329.736s-.213-19.988,5.252-16.652S203.978,329.736,203.978,329.736Z" transform="translate(-203.977 -312.708)" fill="#36ceef"/>
            </g>
            <g id="Grupo_1199901" data-name="Grupo 1199901" transform="translate(5.844 22.436)">
              <path id="Trazado_1043790" data-name="Trazado 1043790" d="M201.684,358.453s-19.988.213-16.652-5.252S201.684,358.453,201.684,358.453Z" transform="translate(-184.656 -351.648)" fill="#36ceef"/>
            </g>
            <g id="Grupo_1199902" data-name="Grupo 1199902" transform="translate(22.903 12.264)">
              <path id="Trazado_1043791" data-name="Trazado 1043791" d="M214.265,351.022s-.213-19.988,5.252-16.652S214.265,351.022,214.265,351.022Z" transform="translate(-214.264 -333.994)" fill="#36ceef"/>
            </g>
            <g id="Grupo_1199903" data-name="Grupo 1199903" transform="translate(11.888 34.162)">
              <path id="Trazado_1043792" data-name="Trazado 1043792" d="M210.085,377.969s-17.535.187-14.609-4.608S210.085,377.969,210.085,377.969Z" transform="translate(-195.146 -371.999)" fill="#36ceef"/>
            </g>
            <g id="Grupo_1199904" data-name="Grupo 1199904" transform="translate(26.706 25.29)">
              <path id="Trazado_1043793" data-name="Trazado 1043793" d="M220.865,371.54s-.187-17.535,4.608-14.609S220.865,371.54,220.865,371.54Z" transform="translate(-220.864 -356.601)" fill="#36ceef"/>
            </g>
            <g id="Grupo_1199905" data-name="Grupo 1199905" transform="translate(16.107 44.115)">
              <path id="Trazado_1043794" data-name="Trazado 1043794" d="M215.931,396.3s-16.318-1.942-13.02-6.045S215.931,396.3,215.931,396.3Z" transform="translate(-202.47 -389.273)" fill="#36ceef"/>
            </g>
            <g id="Grupo_1199906" data-name="Grupo 1199906" transform="translate(29.254 37.751)">
              <path id="Trazado_1043795" data-name="Trazado 1043795" d="M225.287,391.69s1.942-16.318,6.045-13.02S225.287,391.69,225.287,391.69Z" transform="translate(-225.287 -378.229)" fill="#36ceef"/>
            </g>
          </g>
        </g>
        <path id="Trazado_1043796" data-name="Trazado 1043796" d="M197.358,330.649s-13.008-16.093-9.526-18.233S197.358,330.649,197.358,330.649Z" transform="translate(-179.908 -312.259)" fill="#36ceef"/>
        <path id="Trazado_1043797" data-name="Trazado 1043797" d="M201.065,337.318s16.117,24.187,15.924,56.559" transform="translate(-185.767 -322.879)" fill="none" stroke="#36ceef" stroke-linecap="round" stroke-linejoin="round" stroke-miterlimit="10" stroke-width="1"/>
      </g>
      <g id="Grupo_1199929" data-name="Grupo 1199929" transform="translate(264.011 145.502)">
        <g id="Grupo_1199928" data-name="Grupo 1199928" transform="translate(12.837)">
          <g id="Grupo_1199927" data-name="Grupo 1199927">
            <g id="Grupo_1199910" data-name="Grupo 1199910" transform="translate(59.091 14.419)">
              <path id="Trazado_1043798" data-name="Trazado 1043798" d="M496.3,236.19s11.6,16.278,14.053,10.363c2.2-5.3-10.818-9.419-13.555-10.221C496.48,236.238,496.3,236.19,496.3,236.19Z" transform="translate(-496.301 -236.19)" fill="#36ceef"/>
            </g>
            <g id="Grupo_1199911" data-name="Grupo 1199911" transform="translate(59.339)">
              <path id="Trazado_1043799" data-name="Trazado 1043799" d="M496.73,225.467s16.278-11.6,10.363-14.053S496.73,225.467,496.73,225.467Z" transform="translate(-496.73 -211.165)" fill="#36ceef"/>
            </g>
            <g id="Grupo_1199912" data-name="Grupo 1199912" transform="translate(45.997 16.733)">
              <path id="Trazado_1043800" data-name="Trazado 1043800" d="M473.574,240.206s11.6,16.278,14.053,10.363S473.574,240.206,473.574,240.206Z" transform="translate(-473.574 -240.206)" fill="#36ceef"/>
            </g>
            <g id="Grupo_1199913" data-name="Grupo 1199913" transform="translate(45.936 2.434)">
              <path id="Trazado_1043801" data-name="Trazado 1043801" d="M473.469,229.692s16.278-11.6,10.363-14.053S473.469,229.692,473.469,229.692Z" transform="translate(-473.469 -215.39)" fill="#36ceef"/>
            </g>
            <g id="Grupo_1199914" data-name="Grupo 1199914" transform="translate(34.866 19.952)">
              <path id="Trazado_1043802" data-name="Trazado 1043802" d="M454.256,245.793s10.178,14.281,12.329,9.091S454.256,245.793,454.256,245.793Z" transform="translate(-454.256 -245.793)" fill="#36ceef"/>
            </g>
            <g id="Grupo_1199915" data-name="Grupo 1199915" transform="translate(34.859 7.558)">
              <path id="Trazado_1043803" data-name="Trazado 1043803" d="M454.243,236.83s14.281-10.178,9.091-12.329S454.243,236.83,454.243,236.83Z" transform="translate(-454.243 -224.283)" fill="#36ceef"/>
            </g>
            <g id="Grupo_1199916" data-name="Grupo 1199916" transform="translate(24.358 24.218)">
              <path id="Trazado_1043804" data-name="Trazado 1043804" d="M436.018,253.2s11.181,12.043,12.554,6.961S436.018,253.2,436.018,253.2Z" transform="translate(-436.018 -253.197)" fill="#36ceef"/>
            </g>
            <g id="Grupo_1199917" data-name="Grupo 1199917" transform="translate(24.482 11.867)">
              <path id="Trazado_1043805" data-name="Trazado 1043805" d="M436.233,244.41s12.043-11.181,6.961-12.554S436.233,244.41,436.233,244.41Z" transform="translate(-436.233 -231.761)" fill="#36ceef"/>
            </g>
            <g id="Grupo_1199920" data-name="Grupo 1199920" transform="translate(14.437 15.726)">
              <g id="Grupo_1199918" data-name="Grupo 1199918" transform="translate(0.097 13.564)">
                <path id="Trazado_1043806" data-name="Trazado 1043806" d="M418.968,262.293s13.915,8.743,13.927,3.48S418.968,262.293,418.968,262.293Z" transform="translate(-418.968 -262.001)" fill="#36ceef"/>
              </g>
              <g id="Grupo_1199919" data-name="Grupo 1199919">
                <path id="Trazado_1043807" data-name="Trazado 1043807" d="M419.091,252.386s8.743-13.915,3.48-13.927S419.091,252.386,419.091,252.386Z" transform="translate(-418.799 -238.459)" fill="#36ceef"/>
              </g>
            </g>
            <g id="Grupo_1199923" data-name="Grupo 1199923" transform="translate(6.123 23.435)">
              <g id="Grupo_1199921" data-name="Grupo 1199921" transform="translate(0 11.601)">
                <path id="Trazado_1043808" data-name="Trazado 1043808" d="M404.37,272.226s12.064,7.58,12.075,3.016S404.37,272.226,404.37,272.226Z" transform="translate(-404.37 -271.973)" fill="#36ceef"/>
              </g>
              <g id="Grupo_1199922" data-name="Grupo 1199922" transform="translate(0.038)">
                <path id="Trazado_1043809" data-name="Trazado 1043809" d="M404.688,263.913s7.58-12.064,3.016-12.075S404.688,263.913,404.688,263.913Z" transform="translate(-404.435 -251.838)" fill="#36ceef"/>
              </g>
            </g>
            <g id="Grupo_1199926" data-name="Grupo 1199926" transform="translate(0 30.13)">
              <g id="Grupo_1199924" data-name="Grupo 1199924" transform="translate(0 9.833)">
                <path id="Trazado_1043810" data-name="Trazado 1043810" d="M393.743,280.739s10.3,6.474,10.312,2.576S393.743,280.739,393.743,280.739Z" transform="translate(-393.743 -280.523)" fill="#36ceef"/>
              </g>
              <g id="Grupo_1199925" data-name="Grupo 1199925" transform="translate(0.069)">
                <path id="Trazado_1043811" data-name="Trazado 1043811" d="M394.078,273.77s6.474-10.3,2.576-10.312S394.078,273.77,394.078,273.77Z" transform="translate(-393.862 -263.458)" fill="#36ceef"/>
              </g>
            </g>
          </g>
        </g>
        <path id="Trazado_1043812" data-name="Trazado 1043812" d="M494.7,233.287s20.667,1.033,20.345-3.042S494.7,233.287,494.7,233.287Z" transform="translate(-423.693 -218.718)" fill="#36ceef"/>
        <path id="Trazado_1043813" data-name="Trazado 1043813" d="M446.93,235.43s-47.473,2-75.466,41.067" transform="translate(-371.464 -221.449)" fill="none" stroke="#36ceef" stroke-miterlimit="10" stroke-width="1"/>
      </g>
      <g id="Grupo_1199933" data-name="Grupo 1199933" transform="translate(137.996 144.102)">
        <g id="Grupo_1199931" data-name="Grupo 1199931" transform="translate(0 0)">
          <g id="Grupo_1199930" data-name="Grupo 1199930">
            <path id="Trazado_1043814" data-name="Trazado 1043814" d="M247,270.655c.721-.313-5.256-17.875-5.644-18.8-5.8-13.873-14.45-25.166-24.926-32.477-19.354-13.506-41.961-12.129-63.674-6.936,2.692.065,5.129,1.759,7.331,3.67,14.407,12.5,22.05,35.309,36.9,46.917C211.39,274.281,230.2,277.89,247,270.655Z" transform="translate(-152.754 -208.735)" fill="#36ceef"/>
          </g>
        </g>
        <g id="Grupo_1199932" data-name="Grupo 1199932" transform="translate(11.067 4.512)">
          <path id="Trazado_1043815" data-name="Trazado 1043815" d="M246.537,271.169s-26.686-45.937-74.575-52.245" transform="translate(-171.962 -217.565)" fill="none" stroke="#fff" stroke-linecap="round" stroke-linejoin="round" stroke-miterlimit="10" stroke-width="1"/>
          <path id="Trazado_1043816" data-name="Trazado 1043816" d="M212.014,216.566l4.858,14.548-24.089,1.027" transform="translate(-180.786 -216.566)" fill="none" stroke="#fff" stroke-linecap="round" stroke-linejoin="round" stroke-miterlimit="10" stroke-width="1"/>
          <path id="Trazado_1043817" data-name="Trazado 1043817" d="M246.748,237.561l4.738,16.813-20.257,1.06" transform="translate(-197.081 -225.464)" fill="none" stroke="#fff" stroke-linecap="round" stroke-linejoin="round" stroke-miterlimit="10" stroke-width="1"/>
          <path id="Trazado_1043818" data-name="Trazado 1043818" d="M273.472,264.414l2.6,17.346-20.513-1.877" transform="translate(-207.391 -236.845)" fill="none" stroke="#fff" stroke-linecap="round" stroke-linejoin="round" stroke-miterlimit="10" stroke-width="1"/>
        </g>
      </g>
      <g id="Grupo_1199967" data-name="Grupo 1199967" transform="translate(205.897 66.671)">
        <g id="Grupo_1199965" data-name="Grupo 1199965" transform="translate(0 17.711)">
          <g id="Grupo_1199964" data-name="Grupo 1199964">
            <g id="Grupo_1199941" data-name="Grupo 1199941" transform="translate(0 72.672)">
              <g id="Grupo_1199935" data-name="Grupo 1199935" transform="translate(0 33.865)">
                <path id="Trazado_1043819" data-name="Trazado 1043819" d="M308.751,308.56l-3.729,9.467-24.615,62.528-2.558-9.267-2.728-28.544,10.521-31.1Z" transform="translate(-275.121 -308.56)" fill="#faad3b" stroke="#1d7083" stroke-miterlimit="10" stroke-width="1"/>
                <g id="Grupo_1199934" data-name="Grupo 1199934" transform="translate(2.728 8.917)" opacity="0.75">
                  <path id="Trazado_1043820" data-name="Trazado 1043820" d="M306.486,322.814l-24.615,62.528-2.558-9.267,24.575-53.811Z" transform="translate(-279.313 -322.264)" fill="#f5e073"/>
                </g>
              </g>
              <g id="Grupo_1199937" data-name="Grupo 1199937" transform="translate(84.03 33.865)">
                <path id="Trazado_1043821" data-name="Trazado 1043821" d="M437.92,353.837,434.668,370.2l-2.056,10.359L408,318.027l-3.737-9.467,23.109,3.084Z" transform="translate(-404.261 -308.56)" fill="#faad3b" stroke="#1d7083" stroke-miterlimit="10" stroke-width="1"/>
                <g id="Grupo_1199936" data-name="Grupo 1199936" transform="translate(3.737 8.917)" opacity="0.75">
                  <path id="Trazado_1043822" data-name="Trazado 1043822" d="M436.675,374.983l-2.056,10.359L410,322.814l2.6-.55Z" transform="translate(-410.004 -322.264)" fill="#f5e073"/>
                </g>
              </g>
              <g id="Grupo_1199940" data-name="Grupo 1199940" transform="translate(8.537)">
                <g id="Grupo_1199939" data-name="Grupo 1199939">
                  <g id="Grupo_1199938" data-name="Grupo 1199938">
                    <path id="Trazado_1043823" data-name="Trazado 1043823" d="M311.235,336.152a.325.325,0,0,1-.325-.325c0-.524-.013-1.052-.033-1.576l-.018-.777-.019-.458c-.012-.274-.023-.545-.04-.811-.033-.61-.066-1.216-.092-1.823-.077-1.082-.161-2.167-.259-3.238l-.014-.165c-.011-.118-.021-.234-.026-.353l-.02-.718-.016-.383c-.012-.28-.023-.556-.042-.837l-.1-1.819c-.071-1.086-.156-2.164-.253-3.241l-.078-.932-.11-1.046c-.035-.353-.066-.668-.1-.973l-.048-.439c-.041-.375-.081-.745-.128-1.115l-.051-.375-.118-.966c-.039-.315-.077-.625-.122-.929l-.025-.178c-.037-.259-.074-.515-.106-.766l-.181-1.228c-.028-.2-.056-.392-.09-.585-.046-.311-.092-.6-.143-.89-.137-.884-.281-1.741-.423-2.579-.039-.239-.077-.464-.122-.695-.09-.527-.186-1.039-.281-1.541l-.07-.375c-.071-.368-.142-.725-.214-1.082q-.228-1.178-.451-2.241c-8.581-.824-18.088-5.167-18.184-5.212a.325.325,0,0,1-.162-.426l11.732-26.8c2.652-4.23,13.125-7.488,21.447-9.484,4.178-.995,7.515-1.6,8.239-1.729a.315.315,0,0,1,.131-.03l8.6.782,8.845-.782a.329.329,0,0,1,.142.033c1.7.29,25.479,4.52,29.649,11.169l11.754,26.838a.325.325,0,0,1-.162.426c-.1.046-9.928,4.533-18.613,5.255-3.711,14.254-3.493,34.036-3.49,34.234a.325.325,0,0,1-.32.33l-8.172.124-12.318.2-14.355.221-1.7.02Z" transform="translate(-288.415 -256.69)" fill="#c1f0fa"/>
                    <path id="Trazado_1043824" data-name="Trazado 1043824" d="M347.59,257.166v.013c.085.013,25.325,4.353,29.515,11.036l11.732,26.8s-9.949,4.581-18.733,5.245c-3.826,14.478-3.559,34.545-3.559,34.545l-8.173.124-12.318.2-14.354.221-1.7.02-7.5.117-11.446.176c0-.527-.013-1.061-.033-1.588-.007-.28-.013-.56-.02-.826-.02-.417-.033-.826-.059-1.23-.033-.605-.065-1.21-.091-1.815-.078-1.093-.163-2.18-.26-3.253-.013-.169-.033-.332-.039-.5-.006-.241-.013-.488-.02-.716-.02-.416-.033-.82-.059-1.23l-.1-1.815c-.072-1.093-.156-2.173-.254-3.253-.026-.312-.052-.618-.078-.93-.039-.351-.072-.7-.111-1.054-.033-.325-.065-.657-.1-.976-.059-.527-.111-1.041-.176-1.555-.02-.13-.033-.254-.052-.384-.039-.325-.078-.638-.117-.957s-.078-.631-.124-.937-.091-.631-.13-.937-.091-.618-.137-.924-.085-.605-.137-.9-.091-.6-.143-.891c-.137-.878-.28-1.737-.423-2.577-.039-.241-.078-.469-.124-.7-.111-.651-.234-1.288-.351-1.913-.072-.371-.143-.729-.215-1.087-.169-.872-.338-1.7-.5-2.479-8.687-.768-18.317-5.206-18.317-5.206l11.732-26.8c2.616-4.164,13.443-7.431,21.226-9.3,4.672-1.113,8.251-1.731,8.283-1.737l.006-.013.2.02,8.381.761,8.875-.781m-17.452-.651a.638.638,0,0,0-.233.044c-.849.152-4.142.757-8.207,1.725-8.383,2.011-18.939,5.307-21.626,9.585a.711.711,0,0,0-.045.085l-11.732,26.8a.651.651,0,0,0,.323.852c.39.18,9.488,4.336,18.05,5.217q.2.956.4,2c.074.372.144.722.215,1.086l.074.389c.094.5.189,1,.275,1.51.047.243.085.464.123.7.144.841.286,1.7.422,2.573.053.3.1.588.142.888.035.2.062.4.09.587l.047.32.068.462.068.46c.032.249.07.517.109.789l.021.144c.046.3.083.611.122.924l.039.317.078.637c.012.079.02.139.027.2s.018.135.028.2c.044.35.084.714.124,1.084l.049.446c.036.3.066.6.1.894l.007.075c.02.181.038.355.055.529s.036.355.056.532l.039.467.038.446c.1,1.086.183,2.175.253,3.242l.1,1.808c.018.281.029.552.041.827l.018.4.014.521.005.182c.005.13.016.25.027.371l.014.163c.088.968.172,2.028.26,3.25.025.589.058,1.2.09,1.8.018.277.029.551.041.826l.018.4.019.811c.022.592.033,1.1.033,1.573a.651.651,0,0,0,.651.651h.01l11.446-.176,7.5-.117,1.7-.02,14.357-.221,12.318-.2,8.172-.124a.651.651,0,0,0,.641-.659c0-.2-.217-19.735,3.422-33.926,8.675-.781,18.089-5.078,18.492-5.264a.651.651,0,0,0,.324-.852l-11.732-26.8a.658.658,0,0,0-.045-.085c-4.234-6.751-27.965-10.989-29.85-11.313a.636.636,0,0,0-.221-.04.5.5,0,0,0-.053,0l-8.818.776-8.323-.756-.189-.019c-.023,0-.045,0-.066,0Z" transform="translate(-288.241 -256.515)" fill="#1d7083"/>
                  </g>
                </g>
              </g>
              <path id="Trazado_1043825" data-name="Trazado 1043825" d="M356.236,358.578l-14.354.221-1.7.02-18.942.293c0-.527-.013-1.061-.033-1.588-.006-.28-.013-.56-.02-.826-.019-.416-.033-.826-.059-1.23-.033-.605-.065-1.21-.091-1.815-.078-1.093-.163-2.18-.26-3.253-.013-.169-.032-.332-.039-.5-.007-.241-.013-.488-.02-.716-.02-.416-.033-.82-.059-1.23l-.1-1.815c-.072-1.093-.156-2.173-.254-3.253-.026-.312-.052-.618-.078-.93-.039-.351-.072-.7-.111-1.054-.033-.325-.065-.657-.1-.976-.059-.527-.111-1.041-.176-1.555-.02-.13-.033-.254-.052-.384-.039-.325-.078-.638-.117-.957s-.078-.631-.124-.937-.091-.631-.13-.937-.091-.618-.137-.924-.085-.605-.137-.9-.091-.6-.143-.891c-.137-.879-.28-1.737-.423-2.577-.039-.241-.078-.469-.124-.7-.111-.651-.234-1.288-.351-1.913-.072-.371-.143-.729-.215-1.087-.169-.872-.338-1.7-.5-2.479C317.39,323.675,335.792,347.354,356.236,358.578Z" transform="translate(-289.886 -279.975)" fill="#36ceef"/>
            </g>
            <g id="Grupo_1199963" data-name="Grupo 1199963" transform="translate(31.801)">
              <g id="Grupo_1199962" data-name="Grupo 1199962">
                <g id="Grupo_1199943" data-name="Grupo 1199943" transform="translate(18.632 55.367)">
                  <path id="Trazado_1043826" data-name="Trazado 1043826" d="M370.082,229.925v19.7s-2.063,1.549-6.728,1.828c-.456.026-.944.039-1.451.039a23.752,23.752,0,0,1-7.171-1,10.737,10.737,0,0,1-2.1-.865V232.02Z" transform="translate(-352.629 -229.922)" fill="#faad3b"/>
                  <g id="Grupo_1199942" data-name="Grupo 1199942" transform="translate(0.001 3.51)" opacity="0.75">
                    <path id="Trazado_1043827" data-name="Trazado 1043827" d="M363.353,253.339c-.456.026-.944.039-1.451.039a23.751,23.751,0,0,1-7.171-1,10.732,10.732,0,0,1-2.1-.865v-16.2l7,3.364S358.063,248.251,363.353,253.339Z" transform="translate(-352.63 -235.315)" fill="#f5e073"/>
                  </g>
                  <path id="Trazado_1043828" data-name="Trazado 1043828" d="M352.628,249.629V232.016l17.453-2.1v19.708" transform="translate(-352.628 -229.921)" fill="none" stroke="#1d7083" stroke-linecap="round" stroke-linejoin="round" stroke-miterlimit="10" stroke-width="1"/>
                </g>
                <g id="Grupo_1199961" data-name="Grupo 1199961">
                  <g id="Grupo_1199960" data-name="Grupo 1199960">
                    <g id="Grupo_1199946" data-name="Grupo 1199946" transform="translate(0 31.196)">
                      <path id="Trazado_1043829" data-name="Trazado 1043829" d="M330.326,198.108c.221,3.068-1.012,5.656-2.754,5.781s-3.332-2.26-3.552-5.328,1.012-5.656,2.754-5.782S330.105,195.039,330.326,198.108Z" transform="translate(-323.994 -192.774)" fill="#faad3b" stroke="#6a26a8" stroke-miterlimit="10" stroke-width="1"/>
                      <g id="Grupo_1199945" data-name="Grupo 1199945" transform="translate(1.09 3.996)">
                        <g id="Grupo_1199944" data-name="Grupo 1199944" opacity="0.75">
                          <path id="Trazado_1043830" data-name="Trazado 1043830" d="M325.783,199.283a1.413,1.413,0,0,1,1.73-.138,2.945,2.945,0,0,1,1.083,1.806.379.379,0,0,1-.729.2,2.96,2.96,0,0,0-.53-1.175.727.727,0,0,0-1.019-.159c-.349.34-.885-.195-.535-.535Z" transform="translate(-325.669 -198.915)" fill="#f5e073"/>
                        </g>
                      </g>
                    </g>
                    <g id="Grupo_1199949" data-name="Grupo 1199949" transform="translate(47.935 31.196)">
                      <path id="Trazado_1043831" data-name="Trazado 1043831" d="M397.687,198.108c-.221,3.068,1.013,5.656,2.754,5.781s3.332-2.26,3.552-5.328-1.012-5.656-2.754-5.782S397.908,195.039,397.687,198.108Z" transform="translate(-397.662 -192.774)" fill="#faad3b" stroke="#1d7083" stroke-miterlimit="10" stroke-width="1"/>
                      <g id="Grupo_1199948" data-name="Grupo 1199948" transform="translate(2.322 3.996)">
                        <g id="Grupo_1199947" data-name="Grupo 1199947" opacity="0.75">
                          <path id="Trazado_1043832" data-name="Trazado 1043832" d="M404.062,199.283a1.414,1.414,0,0,0-1.731-.138,2.945,2.945,0,0,0-1.083,1.806.379.379,0,0,0,.73.2,2.962,2.962,0,0,1,.53-1.175.727.727,0,0,1,1.019-.159c.349.34.885-.195.535-.535Z" transform="translate(-401.23 -198.915)" fill="#f5e073"/>
                        </g>
                      </g>
                    </g>
                    <g id="Grupo_1199959" data-name="Grupo 1199959" transform="translate(2.949)">
                      <g id="Grupo_1199952" data-name="Grupo 1199952">
                        <g id="Grupo_1199950" data-name="Grupo 1199950">
                          <path id="Trazado_1043833" data-name="Trazado 1043833" d="M353.629,208.988a21.56,21.56,0,0,1-5.533-.718,21.28,21.28,0,0,1-3.851-1.407c-.445-.211-.839-.415-1.2-.621a22.27,22.27,0,0,1-1.906-1.2c-5.426-3.8-9.229-10.088-11-18.189a54.142,54.142,0,0,1-1.095-11.707c-.027-1.006-.018-2,.027-2.94l0-.09.013-.023c.551-9.959,5.225-18.688,12.514-23.363.495-.321,1-.619,1.5-.885a19.909,19.909,0,0,1,9.163-2.5q.3-.009.61-.009a20.983,20.983,0,0,1,11.536,3.55c6.511,4.276,11.157,12.064,12.43,20.832l.034.325a32.394,32.394,0,0,1,.308,3.689c.014.872.014,1.728,0,2.564l-.038,1.209a58.153,58.153,0,0,1-.845,8.122c-1.766,9.671-6.217,17.01-12.534,20.669a13.322,13.322,0,0,1-1.661.893l-.2-.268.136.3-.077.034a20.153,20.153,0,0,1-7.645,1.73C354.088,208.984,353.858,208.988,353.629,208.988Z" transform="translate(-328.701 -145.005)" fill="#faad3b"/>
                          <path id="Trazado_1043834" data-name="Trazado 1043834" d="M352.7,145.482a20.552,20.552,0,0,1,11.358,3.5c6.331,4.158,10.99,11.673,12.285,20.607l.033.312a32.09,32.09,0,0,1,.306,3.663c.013.865.013,1.718,0,2.551-.013.4-.026.807-.039,1.2a57.526,57.526,0,0,1-.839,8.075c-1.822,9.982-6.331,16.944-12.376,20.445a13.213,13.213,0,0,1-1.633.878c-.046.02-.085.039-.13.059a19.831,19.831,0,0,1-7.529,1.7q-.34.011-.679.01a21.245,21.245,0,0,1-5.45-.707,20.9,20.9,0,0,1-3.794-1.386c-.4-.189-.794-.39-1.184-.612a22.13,22.13,0,0,1-1.881-1.184c-5.036-3.527-9.012-9.507-10.867-17.992a53.6,53.6,0,0,1-1.087-11.634c-.026-.983-.02-1.965.026-2.928,0-.013,0-.013.013-.033.534-10.047,5.368-18.694,12.37-23.184.482-.312.976-.605,1.477-.872a19.629,19.629,0,0,1,9.019-2.466c.2-.006.4-.009.6-.009m0-.651h0q-.309,0-.621.009a20.229,20.229,0,0,0-9.313,2.547c-.5.266-1.014.569-1.517.9-7.37,4.726-12.1,13.542-12.66,23.6a.7.7,0,0,0-.02.165c-.044.916-.053,1.918-.026,2.945a54.355,54.355,0,0,0,1.1,11.753c1.789,8.185,5.638,14.543,11.13,18.389a22.659,22.659,0,0,0,1.938,1.22c.368.208.768.415,1.221.631a21.626,21.626,0,0,0,3.909,1.428,21.89,21.89,0,0,0,5.615.728q.349,0,.7-.011a20.486,20.486,0,0,0,7.774-1.761l.072-.032.049-.022a13.841,13.841,0,0,0,1.729-.929c6.375-3.691,10.882-11.111,12.665-20.875a58.6,58.6,0,0,0,.85-8.168l.039-1.206c.014-.847.014-1.713,0-2.581a32.8,32.8,0,0,0-.312-3.745l-.03-.288c-1.287-8.885-5.987-16.757-12.575-21.084a21.31,21.31,0,0,0-11.715-3.6Z" transform="translate(-328.526 -144.831)" fill="#1d7083"/>
                        </g>
                        <path id="Trazado_1043835" data-name="Trazado 1043835" d="M364.825,196.818s1.605,5.479.278,8.587a.938.938,0,0,0,.761,1.324,5.839,5.839,0,0,0,4.023-1.169" transform="translate(-341.206 -162.991)" fill="none" stroke="#1d7083" stroke-linecap="round" stroke-linejoin="round" stroke-miterlimit="10" stroke-width="1"/>
                        <path id="Trazado_1043836" data-name="Trazado 1043836" d="M364.332,218.665a8.223,8.223,0,0,0,8.967-2.1" transform="translate(-341.033 -169.889)" fill="none" stroke="#1d7083" stroke-linecap="round" stroke-linejoin="round" stroke-miterlimit="10" stroke-width="1"/>
                        <path id="Trazado_1043837" data-name="Trazado 1043837" d="M376.774,185.318s4.293-1.256,6.362.608" transform="translate(-345.38 -158.829)" fill="none" stroke="#1d7083" stroke-linecap="round" stroke-linejoin="round" stroke-miterlimit="10" stroke-width="1"/>
                        <path id="Trazado_1043838" data-name="Trazado 1043838" d="M347.64,185.318s4.293-1.256,6.362.608" transform="translate(-335.203 -158.829)" fill="none" stroke="#1d7083" stroke-linecap="round" stroke-linejoin="round" stroke-miterlimit="10" stroke-width="1"/>
                        <g id="Grupo_1199951" data-name="Grupo 1199951" transform="translate(0.651 3.998)" opacity="0.75">
                          <path id="Trazado_1043839" data-name="Trazado 1043839" d="M354.483,210.624a21.277,21.277,0,0,1-6.13-.7,20.907,20.907,0,0,1-3.794-1.386c-.4-.189-.794-.39-1.184-.612a22.133,22.133,0,0,1-1.88-1.184c-5.036-3.527-9.012-9.507-10.867-17.992a53.6,53.6,0,0,1-1.087-11.634c-.026-.983-.02-1.965.026-2.928,0-.013,0-.013.013-.033.534-10.047,5.368-18.694,12.37-23.184l1.757,7.3s-8.628,33.784.852,47.077A12.162,12.162,0,0,0,354.483,210.624Z" transform="translate(-329.527 -150.975)" fill="#f5e073"/>
                        </g>
                      </g>
                      <g id="Grupo_1199958" data-name="Grupo 1199958" transform="translate(7.754 29.188)">
                        <g id="Grupo_1199953" data-name="Grupo 1199953" transform="translate(0 7.881)" opacity="0.49">
                          <path id="Trazado_1043840" data-name="Trazado 1043840" d="M387,206.92a4.161,4.161,0,1,1-3.091-5.007A4.161,4.161,0,0,1,387,206.92Z" transform="translate(-353.839 -201.8)" fill="#e8a137"/>
                          <path id="Trazado_1043841" data-name="Trazado 1043841" d="M348.654,207.923a4.161,4.161,0,1,1-3.091-5.007A4.161,4.161,0,0,1,348.654,207.923Z" transform="translate(-340.443 -202.15)" fill="#e8a137"/>
                        </g>
                        <g id="Grupo_1199957" data-name="Grupo 1199957" transform="translate(6.596)">
                          <g id="Grupo_1199956" data-name="Grupo 1199956">
                            <g id="Grupo_1199955" data-name="Grupo 1199955">
                              <g id="Grupo_1199954" data-name="Grupo 1199954">
                                <path id="Trazado_1043842" data-name="Trazado 1043842" d="M380.372,192.539c0,1.644-.9,3.034-2,3.106s-2-1.2-2-2.847.9-3.035,2-3.107S380.373,190.895,380.372,192.539Z" transform="translate(-359.59 -189.688)" fill="#1d7083"/>
                                <path id="Trazado_1043843" data-name="Trazado 1043843" d="M354.565,192.434c.088,1.642-.731,3.078-1.83,3.209s-2.061-1.094-2.149-2.736.731-3.078,1.831-3.21S354.478,190.792,354.565,192.434Z" transform="translate(-350.58 -189.687)" fill="#1d7083"/>
                              </g>
                            </g>
                          </g>
                        </g>
                      </g>
                    </g>
                  </g>
                </g>
              </g>
            </g>
          </g>
        </g>
        <g id="Grupo_1199966" data-name="Grupo 1199966" transform="translate(28.71 0)">
          <path id="Trazado_1043844" data-name="Trazado 1043844" d="M337.374,207.732a.347.347,0,0,1-.077-.009c-.295-.072-7.285-1.845-12.394-10.361-6.288-10.481-6.833-26.02-1.62-46.187.368-1.423.77-2.83,1.195-4.183.082-.336.176-.69.282-1.042a36.3,36.3,0,0,1,4.756-10.3,17.752,17.752,0,0,1,6.819-6.547,22.088,22.088,0,0,1,11.6-3.024,33.769,33.769,0,0,1,6.113.593c0-.089-.006-.178-.006-.269a8.291,8.291,0,1,1,12.615,7.075c10.531,11.542,7.72,33.047,7.691,33.265a.325.325,0,0,1-.322.281.3.3,0,0,1-.076-.009c-.124-.029-11.915-3.013-13.518-17.9-1.47,4.23-7.353,13.052-30.894,17.457-1.294,13.419-.919,31.26,8.076,40.61a.325.325,0,0,1,.047.388A.33.33,0,0,1,337.374,207.732Z" transform="translate(-319.417 -117.787)" fill="#2e8fa5"/>
          <path id="Trazado_1043845" data-name="Trazado 1043845" d="M362.154,118.264a7.966,7.966,0,0,1,3.808,14.963c10.878,11.483,7.884,33.3,7.884,33.3s-12.884-3.066-13.431-19.935c0,0-.053,13.745-31.358,19.533-1.288,13.1-1.135,31.468,8.141,41.11,0,0-26.626-6.435-13.776-56.15.381-1.474.779-2.857,1.19-4.166.087-.35.18-.7.283-1.047a35.965,35.965,0,0,1,4.712-10.207,17.33,17.33,0,0,1,6.695-6.441,21.689,21.689,0,0,1,11.452-2.991,33.444,33.444,0,0,1,6.277.63c.064.012.126.028.19.041-.019-.222-.034-.445-.034-.672a7.966,7.966,0,0,1,7.966-7.966m0-.651a8.626,8.626,0,0,0-8.616,8.5,33.708,33.708,0,0,0-5.783-.529,22.447,22.447,0,0,0-11.764,3.069,18.114,18.114,0,0,0-6.929,6.659,36.565,36.565,0,0,0-4.789,10.375c-.1.321-.189.668-.286,1.057-.425,1.353-.826,2.76-1.193,4.179-5.235,20.255-4.678,35.878,1.656,46.436,5.178,8.631,12.3,10.436,12.6,10.509a.65.65,0,0,0,.621-1.083c-8.855-9.2-9.268-26.788-8.009-40.109,12.867-2.436,22.048-6.487,27.291-12.04a17.182,17.182,0,0,0,3.13-4.488,21.157,21.157,0,0,0,6.828,13.229,17.531,17.531,0,0,0,6.788,3.785.659.659,0,0,0,.151.018.651.651,0,0,0,.645-.562c.122-.888,2.817-21.544-7.515-33.242a8.617,8.617,0,0,0-4.821-15.758Z" transform="translate(-319.243 -117.613)" fill="#1d7083"/>
        </g>
      </g>
      <g id="Grupo_1199968" data-name="Grupo 1199968" transform="translate(202.895 210.221)">
        <path id="Trazado_1043846" data-name="Trazado 1043846" d="M271.333,412.208a.325.325,0,0,1-.325-.325V339.05a.325.325,0,0,1,.325-.325H395.107a.325.325,0,0,1,.325.325v72.832a.325.325,0,0,1-.325.325Z" transform="translate(-270.683 -338.4)" fill="#2e8fa5"/>
        <path id="Trazado_1043847" data-name="Trazado 1043847" d="M394.932,338.876v72.832H271.159V338.876H394.932m0-.651H271.159a.651.651,0,0,0-.651.651v72.832a.651.651,0,0,0,.651.651H394.932a.651.651,0,0,0,.651-.651V338.876a.651.651,0,0,0-.651-.651Z" transform="translate(-270.508 -338.225)" fill="#2e8fa5"/>
      </g>
      <g id="Grupo_1199972" data-name="Grupo 1199972" transform="translate(165.426 250.953)">
        <g id="Grupo_1199969" data-name="Grupo 1199969" transform="translate(0 7.513)">
          <path id="Trazado_1043848" data-name="Trazado 1043848" d="M205.471,432.9a.288.288,0,0,1-.284-.239c-1.14-6.635-4.139-23.981-4.312-24.557a.3.3,0,0,1,.044-.258.288.288,0,0,1,.23-.119h24.407a.289.289,0,0,1,.283.342l-4.373,22.949a.3.3,0,0,1-.016.055l-.3,1.593a.288.288,0,0,1-.283.234H205.471Z" transform="translate(-200.573 -407.437)" fill="#ededed"/>
          <path id="Trazado_1043849" data-name="Trazado 1043849" d="M225.343,407.8,220.97,430.75h-.006l-.311,1.648h-15.4s-4.131-24.032-4.321-24.6h24.407m0-.576H200.936a.577.577,0,0,0-.546.761c.171.629,2.665,15.005,4.3,24.511a.577.577,0,0,0,.568.479h15.4a.577.577,0,0,0,.566-.47l.3-1.571a.558.558,0,0,0,.02-.077l4.373-22.949a.576.576,0,0,0-.566-.684Zm0,1.152h0Z" transform="translate(-200.36 -407.225)" fill="#1d7083"/>
        </g>
        <g id="Grupo_1199970" data-name="Grupo 1199970" transform="translate(7.625 13.784)">
          <path id="Trazado_1043850" data-name="Trazado 1043850" d="M218.462,423.436a7.486,7.486,0,0,1-.309-5.308c-2.533.113-4.559,2.6-4.559,5.652,0,3.127,2.121,5.663,4.739,5.663.071,0,.139-.009.21-.013A8.353,8.353,0,0,0,218.462,423.436Z" transform="translate(-213.594 -418.117)" fill="#1d7083"/>
          <path id="Trazado_1043851" data-name="Trazado 1043851" d="M227.806,423.772c0-3.127-2.121-5.663-4.739-5.663-.061,0-.119.008-.18.011a7.483,7.483,0,0,0,.309,5.308,8.348,8.348,0,0,1,.08,5.993C225.8,429.289,227.806,426.814,227.806,423.772Z" transform="translate(-217.386 -418.109)" fill="#1d7083"/>
        </g>
        <g id="Grupo_1199971" data-name="Grupo 1199971" transform="translate(0 0)">
          <path id="Trazado_1043852" data-name="Trazado 1043852" d="M201.148,402.775a.288.288,0,0,1-.239-.449l2.357-3.491,2.708-4.022a.288.288,0,0,1,.239-.127h14.842a.289.289,0,0,1,.247.14l2.4,4.022,2.1,3.491a.289.289,0,0,1-.247.437Z" transform="translate(-200.572 -394.397)" fill="#ededed"/>
          <path id="Trazado_1043853" data-name="Trazado 1043853" d="M220.843,394.761l2.4,4.022,2.1,3.492H200.937l2.357-3.492L206,394.761h14.842m0-.576H206a.575.575,0,0,0-.478.254l-2.708,4.022-2.356,3.491a.577.577,0,0,0,.478.9h24.407a.576.576,0,0,0,.494-.873l-2.1-3.492-2.4-4.021a.577.577,0,0,0-.495-.281Z" transform="translate(-200.361 -394.185)" fill="#1d7083"/>
        </g>
      </g>
      <g id="Grupo_1199979" data-name="Grupo 1199979" transform="translate(312.896 56.325)">
        <circle id="Elipse_13404" data-name="Elipse 13404" cx="24.615" cy="24.615" r="24.615" transform="matrix(0.158, -0.987, 0.987, 0.158, 0, 48.609)" fill="#fff" stroke="#1d7083" stroke-linecap="round" stroke-linejoin="round" stroke-miterlimit="10" stroke-width="1"/>
        <g id="Grupo_1199975" data-name="Grupo 1199975" transform="translate(3.786 3.572)">
          <g id="Grupo_1199973" data-name="Grupo 1199973" transform="translate(24.406)">
            <line id="Línea_625" data-name="Línea 625" y2="4.282" fill="#fff" stroke="#1d7083" stroke-linecap="round" stroke-linejoin="round" stroke-miterlimit="10" stroke-width="1"/>
            <line id="Línea_626" data-name="Línea 626" y2="4.282" transform="translate(0 44.53)" fill="#fff" stroke="#1d7083" stroke-linecap="round" stroke-linejoin="round" stroke-miterlimit="10" stroke-width="1"/>
          </g>
          <g id="Grupo_1199974" data-name="Grupo 1199974" transform="translate(0 24.406)">
            <line id="Línea_627" data-name="Línea 627" x2="4.282" fill="#fff" stroke="#1d7083" stroke-linecap="round" stroke-linejoin="round" stroke-miterlimit="10" stroke-width="1"/>
            <line id="Línea_628" data-name="Línea 628" x2="4.282" transform="translate(44.53)" fill="#fff" stroke="#1d7083" stroke-linecap="round" stroke-linejoin="round" stroke-miterlimit="10" stroke-width="1"/>
          </g>
        </g>
        <g id="Grupo_1199978" data-name="Grupo 1199978" transform="translate(10.934 10.72)">
          <g id="Grupo_1199976" data-name="Grupo 1199976">
            <line id="Línea_629" data-name="Línea 629" x2="3.028" y2="3.028" fill="#fff" stroke="#1d7083" stroke-linecap="round" stroke-linejoin="round" stroke-miterlimit="10" stroke-width="1"/>
            <line id="Línea_630" data-name="Línea 630" x2="3.028" y2="3.028" transform="translate(31.487 31.487)" fill="#fff" stroke="#1d7083" stroke-linecap="round" stroke-linejoin="round" stroke-miterlimit="10" stroke-width="1"/>
          </g>
          <g id="Grupo_1199977" data-name="Grupo 1199977">
            <line id="Línea_631" data-name="Línea 631" y1="3.028" x2="3.028" transform="translate(0 31.487)" fill="#fff" stroke="#1d7083" stroke-linecap="round" stroke-linejoin="round" stroke-miterlimit="10" stroke-width="1"/>
            <line id="Línea_632" data-name="Línea 632" y1="3.028" x2="3.028" transform="translate(31.487)" fill="#fff" stroke="#1d7083" stroke-linecap="round" stroke-linejoin="round" stroke-miterlimit="10" stroke-width="1"/>
          </g>
        </g>
        <path id="Trazado_1043854" data-name="Trazado 1043854" d="M505.675,103.73a1.658,1.658,0,1,1-1.658-1.659A1.658,1.658,0,0,1,505.675,103.73Z" transform="translate(-475.824 -75.752)" fill="#1d7083"/>
        <path id="Trazado_1043855" data-name="Trazado 1043855" d="M505.235,75V92.256l9.631,9.123" transform="translate(-477.044 -64.278)" fill="none" stroke="#1d7083" stroke-linecap="round" stroke-linejoin="round" stroke-miterlimit="10" stroke-width="1"/>
      </g>
      <path id="Trazado_1043856" data-name="Trazado 1043856" d="M221.388,425.647l-.311,1.648h-15.4s-4.131-24.032-4.321-24.6l2.357-3.492,2.708-4.022a58.353,58.353,0,0,0,.4,7.513C207.784,411.145,210.971,423.919,221.388,425.647Z" transform="translate(-35.358 -143.655)" fill="#7229b5" opacity="0.27"/>
      <g id="Grupo_1199991" data-name="Grupo 1199991" transform="translate(341.474 210.168)">
        <g id="Grupo_1199981" data-name="Grupo 1199981" transform="translate(30.898 2.018)">
          <path id="Trazado_1043857" data-name="Trazado 1043857" d="M559.533,377.827s2.444-16.958,9.983-24.394" transform="translate(-559.533 -338.146)" fill="none" stroke="#36ceef" stroke-miterlimit="10" stroke-width="1"/>
          <g id="Grupo_1199980" data-name="Grupo 1199980" transform="translate(8.219)">
            <path id="Trazado_1043858" data-name="Trazado 1043858" d="M573.8,344.162c.12-.065.244-.72.288-.844q.4-1.138.859-2.256a48.513,48.513,0,0,1,3.253-6.649c1.463-2.453,3.256-5,5.753-6.494a8.189,8.189,0,0,1,4.479-1c2.4.182,4.135,2.22,2.917,4.506-1.016,1.909-3.016,3.141-4.664,4.446a80.014,80.014,0,0,1-8.1,5.519C577.009,342.35,575.419,343.287,573.8,344.162Z" transform="translate(-573.798 -326.901)" fill="#36ceef"/>
          </g>
        </g>
        <g id="Grupo_1199983" data-name="Grupo 1199983" transform="translate(35.992 18.421)">
          <path id="Trazado_1043859" data-name="Trazado 1043859" d="M568.373,392.869s.957-13.217,8.5-20.654" transform="translate(-568.373 -362.509)" fill="none" stroke="#36ceef" stroke-miterlimit="10" stroke-width="1"/>
          <g id="Grupo_1199982" data-name="Grupo 1199982" transform="translate(6.356)">
            <path id="Trazado_1043860" data-name="Trazado 1043860" d="M579.4,367.476c.179-.1.372-1.06.441-1.245q.583-1.549,1.293-3.045c1.147-2.41,2.573-4.993,4.728-6.647,1.362-1.045,5.284-2.129,6.062.294a1.848,1.848,0,0,1-.141,1.264,9.544,9.544,0,0,1-3.1,3.369,47.451,47.451,0,0,1-4.1,2.921C582.9,365.479,581.173,366.522,579.4,367.476Z" transform="translate(-579.404 -355.37)" fill="#36ceef"/>
          </g>
        </g>
        <g id="Grupo_1199985" data-name="Grupo 1199985" transform="translate(4.441 0)">
          <path id="Trazado_1043861" data-name="Trazado 1043861" d="M539.205,351.264s7.784,6.625,11.378,27.459" transform="translate(-524.46 -335.208)" fill="none" stroke="#36ceef" stroke-miterlimit="10" stroke-width="1"/>
          <g id="Grupo_1199984" data-name="Grupo 1199984">
            <path id="Trazado_1043862" data-name="Trazado 1043862" d="M530.656,342.084c-.162-.1-.32-.7-.4-.864q-.539-1.153-1.109-2.291c-1.161-2.328-2.4-4.621-3.757-6.842a34.325,34.325,0,0,0-4.817-6.48c-1.144-1.143-2.927-2.686-4.686-2.068a3.82,3.82,0,0,0-2.258,2.861c-.224,1.844,1.59,3.734,2.777,4.972a41.775,41.775,0,0,0,4.108,3.675,98.1,98.1,0,0,0,8.289,5.878C529.419,341.318,530.033,341.709,530.656,342.084Z" transform="translate(-513.614 -323.398)" fill="#36ceef"/>
          </g>
        </g>
        <g id="Grupo_1199987" data-name="Grupo 1199987" transform="translate(26.122 9.343)">
          <path id="Trazado_1043863" data-name="Trazado 1043863" d="M552.451,382.263s-3.344-9.808,1.1-19.422" transform="translate(-551.243 -349.458)" fill="none" stroke="#36ceef" stroke-miterlimit="10" stroke-width="1"/>
          <g id="Grupo_1199986" data-name="Grupo 1199986" transform="translate(1.585)">
            <path id="Trazado_1043864" data-name="Trazado 1043864" d="M554.048,354.746a34.685,34.685,0,0,1,.134-5.475c.271-2.777.777-6.167,2.794-8.271a4.426,4.426,0,0,1,3.721-1.355c4.917.571-3.893,11.676-5.1,13.2C555.091,353.485,554.579,354.123,554.048,354.746Z" transform="translate(-553.994 -339.614)" fill="#36ceef"/>
          </g>
        </g>
        <g id="Grupo_1199989" data-name="Grupo 1199989" transform="translate(0 21.005)">
          <path id="Trazado_1043865" data-name="Trazado 1043865" d="M540.918,384.845s-6.554-11.518-16.56-14.984" transform="translate(-513.727 -364.096)" fill="none" stroke="#36ceef" stroke-miterlimit="10" stroke-width="1"/>
          <g id="Grupo_1199988" data-name="Grupo 1199988">
            <path id="Trazado_1043866" data-name="Trazado 1043866" d="M521.539,368.037c-.2-.025-.732-.856-.864-1q-1.107-1.237-2.315-2.38c-2.659-2.511-7.118-6.383-10.992-4.11a3.265,3.265,0,0,0-1.128,1.028c-1.41,2.219,2.007,3.365,3.524,3.911a39.806,39.806,0,0,0,4.975,1.372c2.241.491,4.509.888,6.784,1.181Z" transform="translate(-505.906 -359.855)" fill="#36ceef"/>
          </g>
        </g>
        <g id="Grupo_1199990" data-name="Grupo 1199990" transform="translate(17.707 36.863)">
          <path id="Trazado_1043889" data-name="Trazado 1043889" d="M0,0H25.137V35.17H0Z" transform="translate(0.288 0.288)" fill="#c1f0fa"/>
          <path id="Trazado_1043867" data-name="Trazado 1043867" d="M561.777,387.953v34.594H537.215V387.953h24.562m.576-.576H536.639v35.747h25.714V387.377Z" transform="translate(-536.639 -387.377)" fill="#1d7083"/>
        </g>
        <path id="Trazado_1043868" data-name="Trazado 1043868" d="M561.044,422.971h-23.4V388.377S540.947,420.217,561.044,422.971Z" transform="translate(-519.355 -350.938)" fill="#36ceef"/>
      </g>
      <g id="Grupo_1200002" data-name="Grupo 1200002" transform="translate(133.719 240.754)">
        <g id="Grupo_1199993" data-name="Grupo 1199993" transform="translate(13.143 3.148)">
          <g id="Grupo_1199992" data-name="Grupo 1199992" transform="translate(0 1.285)">
            <path id="Trazado_1043869" data-name="Trazado 1043869" d="M170.555,407.7a1.9,1.9,0,0,1-.2-.01,1.982,1.982,0,0,1-1.718-2V384.964a.288.288,0,0,1,.288-.288h3.251a.288.288,0,0,1,.288.288v20.819a1.914,1.914,0,0,1-1.913,1.914Z" transform="translate(-168.353 -384.388)" fill="#f5e073"/>
            <path id="Trazado_1043870" data-name="Trazado 1043870" d="M171.969,384.753v20.818a1.625,1.625,0,0,1-1.793,1.617,1.69,1.69,0,0,1-1.458-1.71V384.752h3.251m0-.575h-3.251a.576.576,0,0,0-.576.576v20.726a2.273,2.273,0,0,0,1.977,2.283c.075.008.151.012.225.012a2.2,2.2,0,0,0,2.2-2.2V384.754a.576.576,0,0,0-.576-.577Z" transform="translate(-168.141 -384.177)" fill="#1d7083"/>
          </g>
          <path id="Trazado_1043871" data-name="Trazado 1043871" d="M171.311,382.218a.68.68,0,0,0-1.088,0l-1.082,1.443v.148h3.251v-.148Z" transform="translate(-168.565 -381.946)" fill="#1d7083"/>
        </g>
        <g id="Grupo_1199997" data-name="Grupo 1199997" transform="translate(6.781 0)">
          <path id="Trazado_1043872" data-name="Trazado 1043872" d="M163.742,389.528l.918.683v3.412l-.918.819Z" transform="translate(-159.914 -382.012)" fill="#1d7083"/>
          <g id="Grupo_1199996" data-name="Grupo 1199996">
            <g id="Grupo_1199994" data-name="Grupo 1199994" transform="translate(0 4.142)">
              <path id="Trazado_1043873" data-name="Trazado 1043873" d="M159.513,403.051a1.916,1.916,0,0,1-1.913-1.914V384.173h3.828v16.964A1.917,1.917,0,0,1,159.513,403.051Z" transform="translate(-157.311 -383.884)" fill="#f5e073"/>
              <path id="Trazado_1043874" data-name="Trazado 1043874" d="M160.927,384.248v16.676a1.625,1.625,0,1,1-3.251,0V384.248h3.251m.576-.576h-4.4v17.252a2.2,2.2,0,1,0,4.4,0V383.672Z" transform="translate(-157.099 -383.672)" fill="#1d7083"/>
            </g>
            <g id="Grupo_1199995" data-name="Grupo 1199995" transform="translate(0.001)">
              <path id="Trazado_1043875" data-name="Trazado 1043875" d="M157.6,381.7v-2.8a1.913,1.913,0,0,1,3.827,0v2.8Z" transform="translate(-157.311 -376.695)" fill="#f5e073"/>
              <path id="Trazado_1043876" data-name="Trazado 1043876" d="M159.3,377.059a1.626,1.626,0,0,1,1.625,1.626V381.2h-3.251v-2.516a1.626,1.626,0,0,1,1.626-1.626m0-.576a2.2,2.2,0,0,0-2.2,2.2v3.092h4.4v-3.092a2.205,2.205,0,0,0-2.2-2.2Z" transform="translate(-157.1 -376.483)" fill="#1d7083"/>
            </g>
          </g>
        </g>
        <g id="Grupo_1199998" data-name="Grupo 1199998" transform="translate(1.708 4.433)">
          <path id="Trazado_1043877" data-name="Trazado 1043877" d="M150.708,407.7a1.915,1.915,0,0,1-1.913-1.913V386.591a1.913,1.913,0,0,1,3.827,0v19.193A1.916,1.916,0,0,1,150.708,407.7Z" transform="translate(-148.507 -384.389)" fill="#f5e073"/>
          <path id="Trazado_1043878" data-name="Trazado 1043878" d="M150.5,384.753a1.625,1.625,0,0,1,1.625,1.625v19.193a1.625,1.625,0,1,1-3.251,0V386.379a1.625,1.625,0,0,1,1.625-1.625m0-.576a2.2,2.2,0,0,0-2.2,2.2v19.193a2.2,2.2,0,0,0,4.4,0V386.379a2.2,2.2,0,0,0-2.2-2.2Z" transform="translate(-148.295 -384.177)" fill="#1d7083"/>
        </g>
        <g id="Grupo_1200001" data-name="Grupo 1200001" transform="translate(19.04 5.495)">
          <path id="Trazado_1043879" data-name="Trazado 1043879" d="M179.293,398.065l-.918.682v3.412l.918.819Z" transform="translate(-178.375 -391.125)" fill="#1d7083"/>
          <g id="Grupo_1200000" data-name="Grupo 1200000" transform="translate(0.342)">
            <g id="Grupo_1199999" data-name="Grupo 1199999" transform="translate(0 3.565)">
              <path id="Trazado_1043880" data-name="Trazado 1043880" d="M181.381,411.587a1.916,1.916,0,0,1-1.913-1.913V392.709H183.3v16.964A1.916,1.916,0,0,1,181.381,411.587Z" transform="translate(-179.18 -392.42)" fill="#f5e073"/>
              <path id="Trazado_1043881" data-name="Trazado 1043881" d="M182.8,392.784V409.46a1.626,1.626,0,0,1-1.625,1.626h0a1.626,1.626,0,0,1-1.625-1.626V392.784H182.8m.576-.576h-4.4V409.46a2.2,2.2,0,1,0,4.4,0V392.208Z" transform="translate(-178.968 -392.208)" fill="#1d7083"/>
            </g>
            <path id="Trazado_1043882" data-name="Trazado 1043882" d="M181.593,386.02h0a1.626,1.626,0,0,1,1.626,1.626v2.516h-3.251v-2.516A1.625,1.625,0,0,1,181.593,386.02Z" transform="translate(-179.392 -386.02)" fill="#1d7083"/>
          </g>
        </g>
        <path id="Trazado_1043883" data-name="Trazado 1043883" d="M169.708,401.7v22.3a6.194,6.194,0,0,1-6.188,6.188h-12a6.19,6.19,0,0,1-6.194-6.188V401.7Z" transform="translate(-145.33 -387.173)" fill="#36ceef"/>
        <path id="Trazado_1043884" data-name="Trazado 1043884" d="M167.968,428.307a6.167,6.167,0,0,1-4.448,1.89h-12a6.19,6.19,0,0,1-6.194-6.188v-22.3S152.659,422.77,167.968,428.307Z" transform="translate(-145.33 -387.173)" fill="#1d7083"/>
      </g>
      <g id="Grupo_1200006" data-name="Grupo 1200006" transform="translate(154.809 56.235)">
        <path id="Trazado_1043887" data-name="Trazado 1043887" d="M247.676,59.585H191.81a9.875,9.875,0,0,0-9.875,9.875V90.781a9.875,9.875,0,0,0,9.875,9.875h41.61l13.537,9.819-3.227-9.819h3.945a9.875,9.875,0,0,0,9.875-9.875V69.46A9.875,9.875,0,0,0,247.676,59.585Z" transform="translate(-181.935 -57.655)" fill="#36ceef"/>
        <path id="Trazado_1043888" data-name="Trazado 1043888" d="M254.932,56.235H199.066a9.875,9.875,0,0,0-9.875,9.875V87.431a9.875,9.875,0,0,0,9.875,9.875h41.61l13.537,9.819-3.227-9.819h3.945a9.875,9.875,0,0,0,9.875-9.875V66.11A9.874,9.874,0,0,0,254.932,56.235Z" transform="translate(-185.01 -56.235)" fill="#fff" stroke="#1d7083" stroke-linecap="round" stroke-linejoin="round" stroke-miterlimit="10" stroke-width="1"/>
        <g id="Grupo_1200005" data-name="Grupo 1200005" transform="translate(10.659 8.625)">
          <g id="Grupo_1200004" data-name="Grupo 1200004" transform="translate(0 15.24)">
            <line id="Línea_633" data-name="Línea 633" x2="55.007" fill="none" stroke="#1d7083" stroke-linecap="round" stroke-linejoin="round" stroke-miterlimit="10" stroke-width="1"/>
          </g>
          <line id="Línea_634" data-name="Línea 634" x2="28.356" fill="none" stroke="#1d7083" stroke-linecap="round" stroke-linejoin="round" stroke-miterlimit="10" stroke-width="1"/>
          <line id="Línea_635" data-name="Línea 635" x2="34.561" transform="translate(0.063 7.841)" fill="none" stroke="#1d7083" stroke-linecap="round" stroke-linejoin="round" stroke-miterlimit="10" stroke-width="1"/>
          <line id="Línea_636" data-name="Línea 636" x2="45.804" transform="translate(0.167 11.555)" fill="none" stroke="#1d7083" stroke-linecap="round" stroke-linejoin="round" stroke-miterlimit="10" stroke-width="1"/>
          <line id="Línea_637" data-name="Línea 637" x2="54.337" transform="translate(0.235 19.051)" fill="none" stroke="#1d7083" stroke-linecap="round" stroke-linejoin="round" stroke-miterlimit="10" stroke-width="1"/>
          <line id="Línea_638" data-name="Línea 638" x2="54.778" transform="translate(0.238 22.861)" fill="none" stroke="#1d7083" stroke-linecap="round" stroke-linejoin="round" stroke-miterlimit="10" stroke-width="1"/>
          <line id="Línea_639" data-name="Línea 639" x2="54.597" transform="translate(0.267 3.81)" fill="none" stroke="#1d7083" stroke-linecap="round" stroke-linejoin="round" stroke-miterlimit="10" stroke-width="1"/>
        </g>
      </g>
    </g>
  </g>
</svg>
