<svg xmlns="http://www.w3.org/2000/svg" xmlns:xlink="http://www.w3.org/1999/xlink" width="110" height="110" viewBox="0 0 110 110">
  <defs>
    <filter id="Trazado_982547" x="0" y="0" width="110" height="110" filterUnits="userSpaceOnUse">
      <feOffset dy="3" input="SourceAlpha"/>
      <feGaussianBlur stdDeviation="3" result="blur"/>
      <feFlood flood-opacity="0.161"/>
      <feComposite operator="in" in2="blur"/>
      <feComposite in="SourceGraphic"/>
    </filter>
  </defs>
  <g id="Grupo_1200162" data-name="Grupo 1200162" transform="translate(942 -3053)">
    <g id="Grupo_1185957" data-name="Grupo 1185957" transform="translate(-2055.461 2099)">
      <g id="Grupo_1184115" data-name="Grupo 1184115" transform="translate(-33.519 -1471.333)">
        <g id="Grupo_1183744" data-name="Grupo 1183744" transform="translate(458.936 -388.667)">
          <g id="Grupo_1181546" data-name="Grupo 1181546" transform="translate(-4.696 -130.677)">
            <g id="Grupo_1177563" data-name="Grupo 1177563" transform="translate(0.279 -12113.323)">
              <g id="Grupo_1173148" data-name="Grupo 1173148" transform="translate(701.461 15064)">
                <g id="Grupo_1163803" data-name="Grupo 1163803" transform="translate(0 0)">
                  <g id="Grupo_1163015" data-name="Grupo 1163015">
                    <g id="Grupo_1157017" data-name="Grupo 1157017" transform="translate(0 0)">
                      <g id="Grupo_1155793" data-name="Grupo 1155793" transform="translate(0 0)">
                        <g id="Grupo_1154704" data-name="Grupo 1154704">
                          <g id="Grupo_1150790" data-name="Grupo 1150790">
                            <g id="Grupo_1154214" data-name="Grupo 1154214">
                              <g id="Grupo_1152583" data-name="Grupo 1152583">
                                <g id="Grupo_1146973" data-name="Grupo 1146973" transform="translate(0 0)">
                                  <g id="Grupo_1146954" data-name="Grupo 1146954">
                                    <g transform="matrix(1, 0, 0, 1, -9, -6)" filter="url(#Trazado_982547)">
                                      <g id="Trazado_982547-2" data-name="Trazado 982547" transform="translate(9 6)" fill="#f2f7e5">
                                        <path d="M 46.00000381469727 90.49988555908203 C 39.99188232421875 90.49988555908203 34.16427230834961 89.32352447509766 28.67905807495117 87.00347137451172 C 23.38020324707031 84.76226043701172 18.62103080749512 81.55342864990234 14.53375053405762 77.46615600585938 C 10.44645690917969 73.37887573242188 7.237643718719482 68.61971282958984 4.996417045593262 63.32085800170898 C 2.676363706588745 57.83565902709961 1.500003814697266 52.00806045532227 1.500003814697266 45.99993896484375 C 1.500003814697266 39.99181747436523 2.676363706588745 34.16421890258789 4.996417045593262 28.67901802062988 C 7.237643718719482 23.38017845153809 10.44645690917969 18.62101936340332 14.53375053405762 14.53373908996582 C 18.62103080749512 10.44645881652832 23.38020324707031 7.237632274627686 28.67905807495117 4.996418952941895 C 34.16427230834961 2.676365613937378 39.99188232421875 1.500005602836609 46.00000381469727 1.500005602836609 C 52.00812530517578 1.500005602836609 57.83573532104492 2.676365613937378 63.32094955444336 4.996418952941895 C 68.61980438232422 7.237632274627686 73.37896728515625 10.44645881652832 77.46625518798828 14.53373908996582 C 81.55353546142578 18.62101936340332 84.76236724853516 23.38017845153809 87.00359344482422 28.67901802062988 C 89.32364654541016 34.16421890258789 90.5 39.99181747436523 90.5 45.99993896484375 C 90.5 52.00806045532227 89.32364654541016 57.83565902709961 87.00359344482422 63.32085800170898 C 84.76236724853516 68.61971282958984 81.55353546142578 73.37887573242188 77.46625518798828 77.46615600585938 C 73.37896728515625 81.55342864990234 68.61980438232422 84.76226043701172 63.32094955444336 87.00347137451172 C 57.83573532104492 89.32352447509766 52.00812530517578 90.49988555908203 46.00000381469727 90.49988555908203 Z" stroke="none"/>
                                        <path d="M 46.00000381469727 2.999992370605469 C 40.19371795654297 2.999992370605469 34.56270217895508 4.136497497558594 29.26338958740234 6.377906799316406 C 24.14333343505859 8.543510437011719 19.54441833496094 11.64437866210938 15.59440612792969 15.59439849853516 C 11.64440155029297 19.54439544677734 8.54351806640625 24.14329528808594 6.377914428710938 29.26335144042969 C 4.136505126953125 34.56266784667969 3.000007629394531 40.19366836547852 3.000007629394531 45.99993896484375 C 3.000007629394531 51.80620956420898 4.136505126953125 57.43722534179688 6.377914428710938 62.73654174804688 C 8.54351806640625 67.85658264160156 11.64440155029297 72.45548248291016 15.59440612792969 76.40549468994141 C 19.54441833496094 80.35549926757812 24.14333343505859 83.45636749267578 29.26337432861328 85.62196350097656 C 34.56270217895508 87.86338043212891 40.19371795654297 88.9998779296875 46.00000381469727 88.9998779296875 C 51.80628967285156 88.9998779296875 57.43730545043945 87.86338043212891 62.73663330078125 85.62196350097656 C 67.85667419433594 83.45636749267578 72.45558929443359 80.35549926757812 76.40560150146484 76.40549468994141 C 80.35560607910156 72.45548248291016 83.45648956298828 67.85658264160156 85.62208557128906 62.73654174804688 C 87.86350250244141 57.43722534179688 89 51.80620956420898 89 45.99993896484375 C 89 40.19366836547852 87.86350250244141 34.56266784667969 85.62208557128906 29.26335144042969 C 83.45648956298828 24.14329528808594 80.35560607910156 19.54439544677734 76.40560150146484 15.59439849853516 C 72.45558929443359 11.64437866210938 67.85667419433594 8.543510437011719 62.73661804199219 6.377906799316406 C 57.43730545043945 4.136497497558594 51.80628967285156 2.999992370605469 46.00000381469727 2.999992370605469 M 46.00000381469727 -7.62939453125e-06 C 71.40510559082031 -7.62939453125e-06 92 20.59487915039062 92 45.99993896484375 C 92 71.40501403808594 71.40510559082031 91.99988555908203 46.00000381469727 91.99988555908203 C 20.59490203857422 91.99988555908203 7.62939453125e-06 71.40501403808594 7.62939453125e-06 45.99993896484375 C 7.62939453125e-06 20.59487915039062 20.59490203857422 -7.62939453125e-06 46.00000381469727 -7.62939453125e-06 Z" stroke="none" fill="#86b60c"/>
                                      </g>
                                    </g>
                                  </g>
                                </g>
                              </g>
                            </g>
                          </g>
                        </g>
                      </g>
                    </g>
                  </g>
                </g>
              </g>
            </g>
          </g>
        </g>
      </g>
    </g>
    <g id="cumplimiento-normativo" transform="translate(-930.029 3047.212)">
      <g id="Grupo_1200161" data-name="Grupo 1200161" transform="translate(16.029 32.788)">
        <path id="Trazado_1044106" data-name="Trazado 1044106" d="M55.43,75.412v4.816a2.072,2.072,0,0,1-2.067,2.067L18.1,82.3a2.071,2.071,0,0,1-2.067-2.067l-.005-39.892a.62.62,0,0,1,.179-.439l5.677-6.88a.623.623,0,0,1,.482-.228v0l30.99,0a2.072,2.072,0,0,1,2.067,2.067V36.57l4.807-1.386a.621.621,0,0,1,.351,0l9.638,2.776a.627.627,0,0,1,.513.616v6.368A14.21,14.21,0,0,1,60.6,58.541a.622.622,0,0,1-.36,0,13.985,13.985,0,0,1-4.811-2.511v5.887l4.862,4a.946.946,0,0,1,.13,1.331l-1.794,2.182a.946.946,0,0,1-1.331.13l-.086-.071-.656.8c.185.437.173.7.546,1.008l7.44,6.118c.541.445.836.141,1.7.464a2.989,2.989,0,1,1-3.976,3.489,1.186,1.186,0,0,0-.417-.678L55.43,75.412Z" transform="translate(-16.029 -32.788)" fill-rule="evenodd"/>
        <path id="Trazado_1044107" data-name="Trazado 1044107" d="M32.906,43.784v4.855a2.071,2.071,0,0,1-2.067,2.067H27.021l0,39.265a.818.818,0,0,0,.814.814l35.262,0a.818.818,0,0,0,.814-.814V84.158a3.354,3.354,0,0,0-.866-.189l-.524.638c.29.239.536.405.578.836a.941.941,0,0,1-.211.69L61.1,88.315a.946.946,0,0,1-1.331.13L51.807,81.9a.946.946,0,0,1-.13-1.331l1.794-2.182a.946.946,0,0,1,1.331-.13l.238.2,4.422-5.377c-.358-.295-.684-.485-.73-.961a.941.941,0,0,1,.211-.69l1.834-2.228h0a.946.946,0,0,1,1.291-.084l1.846,1.518v-5.99a14.286,14.286,0,0,1-4.083-9.955V48.315h0a.624.624,0,0,1,.452-.6l3.626-1.046V44.594a.818.818,0,0,0-.814-.814l-30.191,0Zm-.821,33.9H39.3a.626.626,0,0,1,.626.626v.172l.283-.276a.625.625,0,1,1,.871.9L39.93,80.229v5.3a.626.626,0,0,1-.626.626H32.086a.626.626,0,0,1-.626-.626V78.314a.626.626,0,0,1,.626-.626Zm0-11.233H39.3a.626.626,0,0,1,.626.626v.172l.283-.276a.625.625,0,1,1,.871.9L39.929,69v5.3a.626.626,0,0,1-.626.626H32.084a.626.626,0,0,1-.626-.626V67.081a.626.626,0,0,1,.626-.626Zm0-11.233H39.3a.626.626,0,0,1,.626.626v.172l.283-.276a.625.625,0,0,1,.871.9l-1.154,1.125v5.3a.626.626,0,0,1-.626.626H32.083a.626.626,0,0,1-.626-.626V55.847a.626.626,0,0,1,.626-.626ZM43.451,62.04a.626.626,0,0,1,0-1.253l15.647,0a.626.626,0,1,1,0,1.253Zm0-3.916a.626.626,0,1,1,0-1.253l14.326,0a.626.626,0,1,1,0,1.253Zm0,11.233a.626.626,0,1,1,0-1.253l14.326,0a.626.626,0,1,1,0,1.253Zm0,3.916a.626.626,0,1,1,0-1.253l12.594,0a.626.626,0,0,1,0,1.253Zm0,7.317a.626.626,0,0,1,0-1.253h6.3a.626.626,0,0,1,0,1.253Zm0,3.916a.626.626,0,0,1,0-1.253h7.206a.626.626,0,0,1,0,1.253Z" transform="translate(-25.768 -42.527)" fill="#fff" fill-rule="evenodd"/>
        <path id="Trazado_1044108" data-name="Trazado 1044108" d="M33.158,56.506h3.119a.818.818,0,0,0,.814-.814V51.74Z" transform="translate(-31.206 -49.58)" fill="#999" fill-rule="evenodd"/>
        <path id="Trazado_1044109" data-name="Trazado 1044109" d="M352.082,373.721a.627.627,0,0,1,.089.073l7.4,6.084c1.1.9.564,1.605,1.423,2.311a1.759,1.759,0,0,0,2.844-1.54,1.708,1.708,0,0,0-1.655-1.556,2.4,2.4,0,0,1-1.5-.562l-7.44-6.118a2.377,2.377,0,0,1-.67-.859l-1.409,1.714a2.348,2.348,0,0,1,.923.453Z" transform="translate(-312.96 -332.941)" fill="#aa723a" fill-rule="evenodd"/>
        <path id="Trazado_1044110" data-name="Trazado 1044110" d="M329.539,66.291a.629.629,0,0,1-.119.034l-3.569,1.029v5.9a13.011,13.011,0,0,0,3.912,9.267,12.767,12.767,0,0,0,5.158,3.081,12.964,12.964,0,0,0,9.067-12.35v-5.9L334.92,64.74l-5.381,1.551Zm1.523,9.519a.626.626,0,1,1,.773-.984l2.367,1.861,3.72-4.3a.624.624,0,1,1,.945.817l-4.087,4.722a.627.627,0,0,1-.882.11l-2.835-2.229Z" transform="translate(-290.537 -61.098)" fill="#49a679" fill-rule="evenodd"/>
        <path id="Trazado_1044111" data-name="Trazado 1044111" d="M321.278,278.323l-.026-.022-2.621-2.156-1.41,1.715,7.494,6.163,1.41-1.715Z" transform="translate(-282.89 -248.407)" fill="#c9935d" fill-rule="evenodd"/>
      </g>
      <path id="Trazado_1044112" data-name="Trazado 1044112" d="M0,0H6.962V7.2H0Z" transform="translate(46.246 69.509) rotate(-50.561)" fill="#aa723a"/>
      <path id="Trazado_1044113" data-name="Trazado 1044113" d="M0,0H2.22V9.7H0Z" transform="translate(43.074 71.391) rotate(-50.561)" fill="#c9935d"/>
      <path id="Trazado_1044114" data-name="Trazado 1044114" d="M82.883,155.138H76.917V161.1h5.966v-3.454l-2.14,2.086a.626.626,0,0,1-.847.069l-2.287-1.8a.626.626,0,1,1,.773-.984l1.857,1.46,2.644-2.578v-.767Z" transform="translate(-53.948 -108.404)" fill="#49a679" fill-rule="evenodd"/>
      <path id="Trazado_1044115" data-name="Trazado 1044115" d="M82.9,253.69H76.93v5.966H82.9V256.2l-2.14,2.086a.626.626,0,0,1-.847.069l-2.287-1.8a.626.626,0,0,1,.773-.984l1.857,1.46,2.644-2.578v-.767Z" transform="translate(-53.959 -195.723)" fill="#49a679" fill-rule="evenodd"/>
      <path id="Trazado_1044116" data-name="Trazado 1044116" d="M82.908,352.243H76.942v5.966h5.966v-3.454l-2.14,2.086a.626.626,0,0,1-.847.069l-2.287-1.8a.626.626,0,1,1,.773-.984l1.857,1.46,2.644-2.578v-.767Z" transform="translate(-53.97 -283.042)" fill="#49a679" fill-rule="evenodd"/>
    </g>
  </g>
</svg>
