<svg xmlns="http://www.w3.org/2000/svg" xmlns:xlink="http://www.w3.org/1999/xlink" width="110" height="110" viewBox="0 0 110 110">
  <defs>
    <filter id="Trazado_982547" x="0" y="0" width="110" height="110" filterUnits="userSpaceOnUse">
      <feOffset dy="3" input="SourceAlpha"/>
      <feGaussianBlur stdDeviation="3" result="blur"/>
      <feFlood flood-opacity="0.161"/>
      <feComposite operator="in" in2="blur"/>
      <feComposite in="SourceGraphic"/>
    </filter>
  </defs>
  <g id="Grupo_1200155" data-name="Grupo 1200155" transform="translate(1257 -2706)">
    <g id="Grupo_1185954" data-name="Grupo 1185954" transform="translate(-2055.461 1752.71)">
      <g id="Grupo_1184083" data-name="Grupo 1184083" transform="translate(-32.778 -1471.71)">
        <g id="Grupo_1183743" data-name="Grupo 1183743" transform="translate(459.195 -389)">
          <g id="Grupo_1181545" data-name="Grupo 1181545" transform="translate(-5.417 -130)">
            <g id="Grupo_1177562" data-name="Grupo 1177562" transform="translate(0 -12113)">
              <g id="Grupo_1173147" data-name="Grupo 1173147" transform="translate(386.461 15063)">
                <g id="Grupo_1163801" data-name="Grupo 1163801" transform="translate(0 0)">
                  <g id="Grupo_1163014" data-name="Grupo 1163014">
                    <g id="Grupo_1157015" data-name="Grupo 1157015" transform="translate(0 0)">
                      <g id="Grupo_1155792" data-name="Grupo 1155792" transform="translate(0 0)">
                        <g id="Grupo_1154703" data-name="Grupo 1154703">
                          <g id="Grupo_1150789" data-name="Grupo 1150789">
                            <g id="Grupo_1154212" data-name="Grupo 1154212">
                              <g id="Grupo_1152583" data-name="Grupo 1152583">
                                <g id="Grupo_1146973" data-name="Grupo 1146973" transform="translate(0 0)">
                                  <g id="Grupo_1146954" data-name="Grupo 1146954">
                                    <g transform="matrix(1, 0, 0, 1, -9, -6)" filter="url(#Trazado_982547)">
                                      <g id="Trazado_982547-2" data-name="Trazado 982547" transform="translate(9 6)" fill="#f2f7e5">
                                        <path d="M 46.00000381469727 90.49988555908203 C 39.99188232421875 90.49988555908203 34.16427230834961 89.32352447509766 28.67905807495117 87.00347137451172 C 23.38020324707031 84.76226043701172 18.62103080749512 81.55342864990234 14.53375053405762 77.46615600585938 C 10.44645690917969 73.37887573242188 7.237643718719482 68.61971282958984 4.996417045593262 63.32085800170898 C 2.676363706588745 57.83565902709961 1.500003814697266 52.00806045532227 1.500003814697266 45.99993896484375 C 1.500003814697266 39.99181747436523 2.676363706588745 34.16421890258789 4.996417045593262 28.67901802062988 C 7.237643718719482 23.38017845153809 10.44645690917969 18.62101936340332 14.53375053405762 14.53373908996582 C 18.62103080749512 10.44645881652832 23.38020324707031 7.237632274627686 28.67905807495117 4.996418952941895 C 34.16427230834961 2.676365613937378 39.99188232421875 1.500005602836609 46.00000381469727 1.500005602836609 C 52.00812530517578 1.500005602836609 57.83573532104492 2.676365613937378 63.32094955444336 4.996418952941895 C 68.61980438232422 7.237632274627686 73.37896728515625 10.44645881652832 77.46625518798828 14.53373908996582 C 81.55353546142578 18.62101936340332 84.76236724853516 23.38017845153809 87.00359344482422 28.67901802062988 C 89.32364654541016 34.16421890258789 90.5 39.99181747436523 90.5 45.99993896484375 C 90.5 52.00806045532227 89.32364654541016 57.83565902709961 87.00359344482422 63.32085800170898 C 84.76236724853516 68.61971282958984 81.55353546142578 73.37887573242188 77.46625518798828 77.46615600585938 C 73.37896728515625 81.55342864990234 68.61980438232422 84.76226043701172 63.32094955444336 87.00347137451172 C 57.83573532104492 89.32352447509766 52.00812530517578 90.49988555908203 46.00000381469727 90.49988555908203 Z" stroke="none"/>
                                        <path d="M 46.00000381469727 2.999992370605469 C 40.19371795654297 2.999992370605469 34.56270217895508 4.136497497558594 29.26338958740234 6.377906799316406 C 24.14333343505859 8.543510437011719 19.54441833496094 11.64437866210938 15.59440612792969 15.59439849853516 C 11.64440155029297 19.54439544677734 8.54351806640625 24.14329528808594 6.377914428710938 29.26335144042969 C 4.136505126953125 34.56266784667969 3.000007629394531 40.19366836547852 3.000007629394531 45.99993896484375 C 3.000007629394531 51.80620956420898 4.136505126953125 57.43722534179688 6.377914428710938 62.73654174804688 C 8.54351806640625 67.85658264160156 11.64440155029297 72.45548248291016 15.59440612792969 76.40549468994141 C 19.54441833496094 80.35549926757812 24.14333343505859 83.45636749267578 29.26337432861328 85.62196350097656 C 34.56270217895508 87.86338043212891 40.19371795654297 88.9998779296875 46.00000381469727 88.9998779296875 C 51.80628967285156 88.9998779296875 57.43730545043945 87.86338043212891 62.73663330078125 85.62196350097656 C 67.85667419433594 83.45636749267578 72.45558929443359 80.35549926757812 76.40560150146484 76.40549468994141 C 80.35560607910156 72.45548248291016 83.45648956298828 67.85658264160156 85.62208557128906 62.73654174804688 C 87.86350250244141 57.43722534179688 89 51.80620956420898 89 45.99993896484375 C 89 40.19366836547852 87.86350250244141 34.56266784667969 85.62208557128906 29.26335144042969 C 83.45648956298828 24.14329528808594 80.35560607910156 19.54439544677734 76.40560150146484 15.59439849853516 C 72.45558929443359 11.64437866210938 67.85667419433594 8.543510437011719 62.73661804199219 6.377906799316406 C 57.43730545043945 4.136497497558594 51.80628967285156 2.999992370605469 46.00000381469727 2.999992370605469 M 46.00000381469727 -7.62939453125e-06 C 71.40510559082031 -7.62939453125e-06 92 20.59487915039062 92 45.99993896484375 C 92 71.40501403808594 71.40510559082031 91.99988555908203 46.00000381469727 91.99988555908203 C 20.59490203857422 91.99988555908203 7.62939453125e-06 71.40501403808594 7.62939453125e-06 45.99993896484375 C 7.62939453125e-06 20.59487915039062 20.59490203857422 -7.62939453125e-06 46.00000381469727 -7.62939453125e-06 Z" stroke="none" fill="#86b60c"/>
                                      </g>
                                    </g>
                                  </g>
                                </g>
                              </g>
                            </g>
                          </g>
                        </g>
                      </g>
                    </g>
                  </g>
                </g>
              </g>
            </g>
          </g>
        </g>
      </g>
    </g>
    <g id="confianza" transform="translate(-1253.652 2729)">
      <g id="Grupo_1200153" data-name="Grupo 1200153" transform="translate(26.503 0.851)">
        <path id="Trazado_1044040" data-name="Trazado 1044040" d="M58.01,196.032,47.867,206.175l-2.584-2.584a3,3,0,0,0-1.782-.86L34.539,201.7a1.564,1.564,0,0,1-1.386-1.554V186.817a1.507,1.507,0,0,1,1.853-1.467l2.4.567,13.732,3.243Z" transform="translate(-33.153 -165.145)" fill="#ffcebf"/>
        <path id="Trazado_1044041" data-name="Trazado 1044041" d="M171.314,186.114a1.507,1.507,0,0,0-1.792-1.48l-19.316,3.72h0a3.833,3.833,0,0,0-3.847,1.094l-1.515,1.859-2.413,2.961-10.229,16.7a2.617,2.617,0,1,0,4.8,2.085,2.618,2.618,0,0,0,4.8,2.086,2.617,2.617,0,1,0,4.8,2.085,2.617,2.617,0,0,0,4.614,2.439,10.214,10.214,0,0,1,.624-.907L162.5,205.266l1.136-5.052h6.112a1.565,1.565,0,0,0,1.564-1.565V186.114Z" transform="translate(-120.776 -164.523)" fill="#ffdfcf"/>
        <g id="Grupo_1200152" data-name="Grupo 1200152" transform="translate(14.071 20.085)">
          <path id="Trazado_1044042" data-name="Trazado 1044042" d="M280.009,322.236h3.4l-1.136,5.052-10.659,13.488a10.414,10.414,0,0,0-.624.907,2.617,2.617,0,0,1-3.256,1,2.546,2.546,0,0,1-.659-.412,2.58,2.58,0,0,0,.513-.592,10.421,10.421,0,0,1,.624-.907l10.659-13.488Z" transform="translate(-254.621 -306.629)" fill="#ffcebf"/>
          <path id="Trazado_1044043" data-name="Trazado 1044043" d="M439.974,186.118v12.537a1.563,1.563,0,0,1-1.564,1.564h-3.4a1.563,1.563,0,0,0,1.564-1.564V186.118a1.5,1.5,0,0,0-.457-1.081l2.067-.4A1.506,1.506,0,0,1,439.974,186.118Z" transform="translate(-403.507 -184.612)" fill="#ffcebf"/>
          <path id="Trazado_1044044" data-name="Trazado 1044044" d="M177.77,212.605l-.893-5.17a6.249,6.249,0,0,0-4.29-4.9l-6.734-1.8a3.8,3.8,0,0,0-3.177.567l-2.357,1.664-1.887,1.709-1.2,1.089,4.027,6.011a10.91,10.91,0,0,0,8.387-3.2l3.638,5.192a3.168,3.168,0,0,0,2.011,1.3A2.128,2.128,0,0,0,177.77,212.605Z" transform="translate(-157.23 -198.788)" fill="#ffcebf"/>
        </g>
        <path id="Trazado_1044045" data-name="Trazado 1044045" d="M223.609,215.066a3.165,3.165,0,0,1-1.234-.522,2.132,2.132,0,0,0,.662-1.94l-.893-5.169a6.25,6.25,0,0,0-4.289-4.9l-6.128-1.641a3.783,3.783,0,0,1,2.443-.163l6.735,1.8a6.249,6.249,0,0,1,4.289,4.9l.893,5.169A2.129,2.129,0,0,1,223.609,215.066Z" transform="translate(-191.476 -178.703)" fill="#ffb09e"/>
        <path id="Trazado_1044046" data-name="Trazado 1044046" d="M352.282,361.312a2.617,2.617,0,0,0-.013,3.7l2.154,2.169a2.617,2.617,0,0,0,3.714-3.688l-2.154-2.169A2.617,2.617,0,0,0,352.282,361.312Z" transform="translate(-315.406 -320.515)" fill="#ffcebf"/>
        <path id="Trazado_1044047" data-name="Trazado 1044047" d="M367.429,365.342a2.618,2.618,0,0,1-4.143,2.126,2.552,2.552,0,0,0,.318-.269,2.614,2.614,0,0,0,.013-3.7l-2.154-2.17a2.634,2.634,0,0,0-.332-.283,2.62,2.62,0,0,1,3.383.283l2.154,2.17A2.606,2.606,0,0,1,367.429,365.342Z" transform="translate(-323.939 -320.519)" fill="#ffb09e"/>
        <path id="Trazado_1044048" data-name="Trazado 1044048" d="M371.8,315.556a2.617,2.617,0,0,0-.013,3.7l2.154,2.169a2.617,2.617,0,0,0,3.714-3.688l-2.154-2.169A2.617,2.617,0,0,0,371.8,315.556Z" transform="translate(-332.713 -279.948)" fill="#ffcebf"/>
        <path id="Trazado_1044049" data-name="Trazado 1044049" d="M386.95,319.584a2.617,2.617,0,0,1-4.143,2.126,2.539,2.539,0,0,0,.318-.268,2.616,2.616,0,0,0,.013-3.7l-2.154-2.17a2.637,2.637,0,0,0-.332-.283,2.62,2.62,0,0,1,3.383.283l2.154,2.17A2.606,2.606,0,0,1,386.95,319.584Z" transform="translate(-341.246 -279.95)" fill="#ffb09e"/>
        <path id="Trazado_1044050" data-name="Trazado 1044050" d="M319.527,393.833a2.617,2.617,0,0,0-.013,3.7l2.154,2.169a2.617,2.617,0,1,0,3.715-3.688l-2.154-2.169A2.617,2.617,0,0,0,319.527,393.833Z" transform="translate(-286.366 -349.348)" fill="#ffcebf"/>
        <path id="Trazado_1044051" data-name="Trazado 1044051" d="M334.673,397.861a2.618,2.618,0,0,1-4.143,2.126,2.55,2.55,0,0,0,.318-.269,2.615,2.615,0,0,0,.013-3.7l-2.154-2.169a2.561,2.561,0,0,0-.333-.283,2.619,2.619,0,0,1,3.383.283l2.154,2.169A2.609,2.609,0,0,1,334.673,397.861Z" transform="translate(-294.897 -349.35)" fill="#ffb09e"/>
        <path id="Trazado_1044052" data-name="Trazado 1044052" d="M286.771,426.354a2.617,2.617,0,0,0-.013,3.7l2.154,2.169a2.617,2.617,0,1,0,3.715-3.688l-2.154-2.169A2.617,2.617,0,0,0,286.771,426.354Z" transform="translate(-257.325 -378.182)" fill="#ffcebf"/>
        <path id="Trazado_1044053" data-name="Trazado 1044053" d="M301.918,430.381a2.618,2.618,0,0,1-4.143,2.126,2.552,2.552,0,0,0,.318-.27,2.616,2.616,0,0,0,.013-3.7l-2.154-2.169a2.546,2.546,0,0,0-.332-.283,2.617,2.617,0,0,1,3.383.283l2.154,2.169A2.608,2.608,0,0,1,301.918,430.381Z" transform="translate(-265.857 -378.181)" fill="#ffb09e"/>
        <path id="Trazado_1044054" data-name="Trazado 1044054" d="M357.813,109.5H348.58a1.471,1.471,0,0,1-1.471-1.471v-1.469a2.791,2.791,0,0,1,2.791-2.791h6.594a2.791,2.791,0,0,1,2.791,2.791v1.469A1.471,1.471,0,0,1,357.813,109.5Z" transform="translate(-311.505 -92.848)" fill="#fe646f"/>
        <path id="Trazado_1044055" data-name="Trazado 1044055" d="M406.061,106.558v1.469a1.472,1.472,0,0,1-1.472,1.472h-3.4a1.472,1.472,0,0,0,1.472-1.472v-1.469a2.791,2.791,0,0,0-2.791-2.791h3.4A2.791,2.791,0,0,1,406.061,106.558Z" transform="translate(-358.282 -92.85)" fill="#fd4755"/>
        <path id="Trazado_1044056" data-name="Trazado 1044056" d="M213,109.5h-9.233a1.472,1.472,0,0,1-1.472-1.471v-1.469a2.791,2.791,0,0,1,2.791-2.791h6.594a2.791,2.791,0,0,1,2.791,2.791v1.469A1.471,1.471,0,0,1,213,109.5Z" transform="translate(-183.117 -92.848)" fill="#dcf5f8"/>
        <path id="Trazado_1044057" data-name="Trazado 1044057" d="M261.252,106.558v1.469a1.472,1.472,0,0,1-1.472,1.472h-3.4a1.472,1.472,0,0,0,1.472-1.472v-1.469a2.791,2.791,0,0,0-2.791-2.791h3.4A2.791,2.791,0,0,1,261.252,106.558Z" transform="translate(-229.894 -92.85)" fill="#c2eef2"/>
        <path id="Trazado_1044058" data-name="Trazado 1044058" d="M68.182,109.5H58.95a1.471,1.471,0,0,1-1.471-1.471v-1.469a2.791,2.791,0,0,1,2.791-2.791h6.594a2.791,2.791,0,0,1,2.791,2.791v1.469A1.471,1.471,0,0,1,68.182,109.5Z" transform="translate(-54.72 -92.848)" fill="#dcf5f8"/>
        <path id="Trazado_1044059" data-name="Trazado 1044059" d="M116.431,106.558v1.469a1.472,1.472,0,0,1-1.472,1.472h-3.4a1.472,1.472,0,0,0,1.472-1.472v-1.469a2.791,2.791,0,0,0-2.791-2.791h3.4A2.791,2.791,0,0,1,116.431,106.558Z" transform="translate(-101.496 -92.85)" fill="#c2eef2"/>
        <path id="Trazado_1044060" data-name="Trazado 1044060" d="M85.675,10.7v1.4a3.739,3.739,0,0,1-5.438,3.329h0A3.733,3.733,0,0,1,78.2,12.1V10.7a3.2,3.2,0,0,1,2.539-3.132A3.264,3.264,0,0,1,81.4,7.5h1.074A3.2,3.2,0,0,1,85.675,10.7Z" transform="translate(-73.092 -7.5)" fill="#d77f4a"/>
        <path id="Trazado_1044061" data-name="Trazado 1044061" d="M101.608,10.7v1.4a3.739,3.739,0,0,1-5.438,3.329h0A3.735,3.735,0,0,0,98.206,12.1V9.563a2.063,2.063,0,0,0-1.534-1.995,3.263,3.263,0,0,1,.662-.068h1.074A3.2,3.2,0,0,1,101.608,10.7Z" transform="translate(-89.024 -7.5)" fill="#c86d36"/>
        <path id="Trazado_1044062" data-name="Trazado 1044062" d="M230.5,10.7v1.4a3.739,3.739,0,0,1-5.438,3.329h0A3.733,3.733,0,0,1,223.02,12.1V10.7a3.2,3.2,0,0,1,2.539-3.132,3.263,3.263,0,0,1,.662-.068H227.3A3.2,3.2,0,0,1,230.5,10.7Z" transform="translate(-201.489 -7.5)" fill="#ffdfcf"/>
        <path id="Trazado_1044063" data-name="Trazado 1044063" d="M246.428,10.7v1.4a3.739,3.739,0,0,1-5.438,3.329h0a3.735,3.735,0,0,0,2.036-3.328V9.563a2.063,2.063,0,0,0-1.534-1.995,3.263,3.263,0,0,1,.662-.068h1.074A3.2,3.2,0,0,1,246.428,10.7Z" transform="translate(-217.421 -7.5)" fill="#ffcebf"/>
        <path id="Trazado_1044064" data-name="Trazado 1044064" d="M375.306,10.7v1.4a3.739,3.739,0,0,1-5.438,3.329h0A3.734,3.734,0,0,1,367.83,12.1V10.7a3.2,3.2,0,0,1,2.539-3.132,3.263,3.263,0,0,1,.662-.068h1.074A3.2,3.2,0,0,1,375.306,10.7Z" transform="translate(-329.877 -7.501)" fill="#ffdfcf"/>
        <path id="Trazado_1044065" data-name="Trazado 1044065" d="M391.238,10.7v1.4a3.739,3.739,0,0,1-5.438,3.329h0a3.735,3.735,0,0,0,2.036-3.328V9.564A2.062,2.062,0,0,0,386.3,7.569a3.264,3.264,0,0,1,.662-.068h1.074A3.2,3.2,0,0,1,391.238,10.7Z" transform="translate(-345.809 -7.501)" fill="#ffcebf"/>
      </g>
      <g id="Grupo_1200154" data-name="Grupo 1200154" transform="translate(25.652)">
        <path id="Trazado_1044066" data-name="Trazado 1044066" d="M77.04,182.792a.85.85,0,0,0,.851-.851v-2.476a2.358,2.358,0,0,0-2.8-2.315l-19.125,3.684-6.545-1.754a4.635,4.635,0,0,0-3.888.694l-1.577,1.114L36.819,179.2a.851.851,0,1,0-.391,1.656l7.506,1.773a.842.842,0,0,0,.686-.133l1.89-1.335a2.938,2.938,0,0,1,2.466-.44l6.716,1.8a5.377,5.377,0,0,1,3.69,4.228l.893,5.17a1.273,1.273,0,0,1-.367,1.138c-.667.7-2.019.236-2.587-.608l-4.827-7.11a.85.85,0,1,0-1.445.9l.853,1.374a10.264,10.264,0,0,1-5.837,2.463.861.861,0,0,0-.656.4l-4.337,7.079-1.838-1.838a3.868,3.868,0,0,0-2.287-1.1l-8.961-1.027a.714.714,0,0,1-.633-.709V179.545a.657.657,0,0,1,.807-.639l4.451,1.051A.851.851,0,1,0,33,178.3l-4.451-1.051a2.358,2.358,0,0,0-2.9,2.294v13.333a2.414,2.414,0,0,0,2.14,2.4l8.961,1.027a2.161,2.161,0,0,1,1.277.617l2.127,2.127L37.2,203.873a3.462,3.462,0,0,0,4.615,4.616,3.553,3.553,0,0,0,1.93,2.136,3.462,3.462,0,0,0,2.872-.051,3.552,3.552,0,0,0,1.93,2.137,3.618,3.618,0,0,0,2.871-.049,3.474,3.474,0,0,0,6.245.8c.12-.191.23-.36.34-.518a3.442,3.442,0,0,0,1.929.594,3.51,3.51,0,0,0,3.472-3.7,3.519,3.519,0,0,0,3.713-3.688,3.514,3.514,0,0,0,3.725-3.445,3.445,3.445,0,0,0-.5-1.815,3.468,3.468,0,0,0,1.712-5.829l-.644-.649h4.07A2.418,2.418,0,0,0,77.89,192v-5.952a.851.851,0,1,0-1.7,0V192a.715.715,0,0,1-.714.714H69.7a3.467,3.467,0,0,0-5.227,4.428,3.447,3.447,0,0,0-1.7.923,3.58,3.58,0,0,0-1.016,2.691,3.521,3.521,0,0,0-3.713,3.688,3.6,3.6,0,0,0-2.7,1,3.468,3.468,0,0,0-.018,4.9l1.419,1.43c-.193.262-.366.529-.526.783a1.776,1.776,0,0,1-2.2.676,1.839,1.839,0,0,1-.915-2.324.851.851,0,0,0-1.56-.678,1.8,1.8,0,0,1-2.325.917,1.839,1.839,0,0,1-.916-2.323.851.851,0,0,0-1.56-.678,1.77,1.77,0,0,1-2.327.915,1.839,1.839,0,0,1-.915-2.323.851.851,0,0,0-1.56-.678h0a1.767,1.767,0,0,1-3.261-1.358l7.952-12.981a11.893,11.893,0,0,0,6.215-2.685l3.073,4.386c1.056,1.569,3.587,2.411,5.174.844a2.991,2.991,0,0,0,.849-2.639l-.893-5.17a7.073,7.073,0,0,0-2.605-4.375l16.956-3.266a.657.657,0,0,1,.781.645v2.476A.851.851,0,0,0,77.04,182.792ZM66.191,194.085a1.755,1.755,0,0,1,1.245-.513h.006a1.755,1.755,0,0,1,1.247.522l2.154,2.169a1.767,1.767,0,0,1-1.254,3.011h-.006a1.753,1.753,0,0,1-1.131-.416l-2.27-2.275A1.769,1.769,0,0,1,66.191,194.085Zm-2.214,5.189a1.768,1.768,0,0,1,2.387-.093l2.265,2.271a1.767,1.767,0,0,1-1.254,3.011h-.007a1.755,1.755,0,0,1-1.247-.522l-2.154-2.169a1.769,1.769,0,0,1,.009-2.5Zm-3.714,3.688a1.755,1.755,0,0,1,1.245-.513h.006a1.755,1.755,0,0,1,1.247.522l2.154,2.169a1.769,1.769,0,0,1-.009,2.5,1.731,1.731,0,0,1-1.251.513,1.755,1.755,0,0,1-1.247-.522l-2.154-2.169A1.769,1.769,0,0,1,60.263,202.962Zm-3.723,6.186a1.767,1.767,0,0,1,1.254-3.011H57.8a1.755,1.755,0,0,1,1.247.522l2.154,2.169a1.767,1.767,0,0,1-1.254,3.011H59.94a1.755,1.755,0,0,1-1.247-.522Z" transform="translate(-25.652 -157.023)"/>
        <path id="Trazado_1044067" data-name="Trazado 1044067" d="M341.931,103.7h9.233a2.325,2.325,0,0,0,2.322-2.322V99.906a3.646,3.646,0,0,0-3.642-3.641H343.25a3.646,3.646,0,0,0-3.641,3.641v1.469A2.324,2.324,0,0,0,341.931,103.7Zm-.621-3.791a1.943,1.943,0,0,1,1.94-1.94h6.594a1.943,1.943,0,0,1,1.94,1.94v1.469a.622.622,0,0,1-.621.621h-9.233a.622.622,0,0,1-.621-.621V99.907Z" transform="translate(-304.006 -85.348)"/>
        <path id="Trazado_1044068" data-name="Trazado 1044068" d="M197.121,103.7H198a.851.851,0,1,0,0-1.7h-.878a.622.622,0,0,1-.621-.621V99.906a1.943,1.943,0,0,1,1.94-1.94h6.594a1.943,1.943,0,0,1,1.94,1.94v1.469a.622.622,0,0,1-.621.621h-4.432a.851.851,0,1,0,0,1.7h4.432a2.325,2.325,0,0,0,2.322-2.322V99.906a3.646,3.646,0,0,0-3.641-3.641H198.44a3.646,3.646,0,0,0-3.641,3.641v1.469A2.325,2.325,0,0,0,197.121,103.7Z" transform="translate(-175.617 -85.348)"/>
        <path id="Trazado_1044069" data-name="Trazado 1044069" d="M52.3,103.7h9.233a2.325,2.325,0,0,0,2.322-2.322V99.906a3.646,3.646,0,0,0-3.641-3.641H53.619a3.646,3.646,0,0,0-3.641,3.641v1.469A2.325,2.325,0,0,0,52.3,103.7Zm-.621-3.791a1.943,1.943,0,0,1,1.94-1.94h6.594a1.943,1.943,0,0,1,1.94,1.94v1.469a.622.622,0,0,1-.621.621H52.3a.622.622,0,0,1-.621-.621Z" transform="translate(-47.219 -85.348)"/>
        <path id="Trazado_1044070" data-name="Trazado 1044070" d="M73.16,9.517l.04.022a4.589,4.589,0,0,0,6.676-4.086v-1.4A4.055,4.055,0,0,0,75.825,0H74.751a4.116,4.116,0,0,0-.837.086A4.068,4.068,0,0,0,70.7,4.051v1.4A4.568,4.568,0,0,0,73.16,9.517ZM72.4,4.051a2.359,2.359,0,0,1,1.861-2.3,2.416,2.416,0,0,1,.489-.05h1.074a2.352,2.352,0,0,1,2.35,2.35v1.4A2.89,2.89,0,0,1,75.287,8.34a2.851,2.851,0,0,1-1.28-.3l-.034-.018A2.875,2.875,0,0,1,72.4,5.452Z" transform="translate(-65.591)"/>
        <path id="Trazado_1044071" data-name="Trazado 1044071" d="M217.982,9.517l.04.022A4.589,4.589,0,0,0,224.7,5.452v-1.4A4.055,4.055,0,0,0,220.647,0h-1.074a4.117,4.117,0,0,0-.837.086,4.068,4.068,0,0,0-3.215,3.964v1.4a4.568,4.568,0,0,0,2.461,4.065Zm-.76-5.466a2.359,2.359,0,0,1,1.861-2.3,2.419,2.419,0,0,1,.49-.05h1.074A2.352,2.352,0,0,1,223,4.051v1.4a2.89,2.89,0,0,1-2.887,2.887,2.852,2.852,0,0,1-1.28-.3l-.033-.018a2.875,2.875,0,0,1-1.574-2.571v-1.4Z" transform="translate(-193.99)"/>
        <path id="Trazado_1044072" data-name="Trazado 1044072" d="M362.79,9.519l.039.021A4.589,4.589,0,0,0,369.5,5.453v-1.4A4.055,4.055,0,0,0,365.454,0H364.38a4.116,4.116,0,0,0-.837.086,4.068,4.068,0,0,0-3.215,3.964v1.4A4.569,4.569,0,0,0,362.79,9.519Zm-.761-5.467a2.358,2.358,0,0,1,1.862-2.3,2.415,2.415,0,0,1,.489-.05h1.074a2.352,2.352,0,0,1,2.35,2.35v1.4a2.89,2.89,0,0,1-2.887,2.887,2.85,2.85,0,0,1-1.28-.3l-.033-.018a2.875,2.875,0,0,1-1.574-2.571Z" transform="translate(-322.375 -0.001)"/>
      </g>
    </g>
  </g>
</svg>
