<svg xmlns="http://www.w3.org/2000/svg" xmlns:xlink="http://www.w3.org/1999/xlink" width="110" height="110" viewBox="0 0 110 110">
  <defs>
    <filter id="Trazado_982547" x="0" y="0" width="110" height="110" filterUnits="userSpaceOnUse">
      <feOffset dy="3" input="SourceAlpha"/>
      <feGaussianBlur stdDeviation="3" result="blur"/>
      <feFlood flood-opacity="0.161"/>
      <feComposite operator="in" in2="blur"/>
      <feComposite in="SourceGraphic"/>
    </filter>
  </defs>
  <g id="Grupo_1200151" data-name="Grupo 1200151" transform="translate(-1113 -2703)">
    <g id="Grupo_1185952" data-name="Grupo 1185952" transform="translate(-0.461 1749)">
      <g id="Grupo_1184115" data-name="Grupo 1184115" transform="translate(-33.519 -1471.333)">
        <g id="Grupo_1183744" data-name="Grupo 1183744" transform="translate(458.936 -388.667)">
          <g id="Grupo_1181546" data-name="Grupo 1181546" transform="translate(-4.696 -130.677)">
            <g id="Grupo_1177563" data-name="Grupo 1177563" transform="translate(0.279 -12113.323)">
              <g id="Grupo_1173148" data-name="Grupo 1173148" transform="translate(701.461 15064)">
                <g id="Grupo_1163803" data-name="Grupo 1163803" transform="translate(0 0)">
                  <g id="Grupo_1163015" data-name="Grupo 1163015">
                    <g id="Grupo_1157017" data-name="Grupo 1157017" transform="translate(0 0)">
                      <g id="Grupo_1155793" data-name="Grupo 1155793" transform="translate(0 0)">
                        <g id="Grupo_1154704" data-name="Grupo 1154704">
                          <g id="Grupo_1150790" data-name="Grupo 1150790">
                            <g id="Grupo_1154214" data-name="Grupo 1154214">
                              <g id="Grupo_1152583" data-name="Grupo 1152583">
                                <g id="Grupo_1146973" data-name="Grupo 1146973" transform="translate(0 0)">
                                  <g id="Grupo_1146954" data-name="Grupo 1146954">
                                    <g transform="matrix(1, 0, 0, 1, -9, -6)" filter="url(#Trazado_982547)">
                                      <g id="Trazado_982547-2" data-name="Trazado 982547" transform="translate(9 6)" fill="#f2f7e5">
                                        <path d="M 46.00000381469727 90.49988555908203 C 39.99188232421875 90.49988555908203 34.16427230834961 89.32352447509766 28.67905807495117 87.00347137451172 C 23.38020324707031 84.76226043701172 18.62103080749512 81.55342864990234 14.53375053405762 77.46615600585938 C 10.44645690917969 73.37887573242188 7.237643718719482 68.61971282958984 4.996417045593262 63.32085800170898 C 2.676363706588745 57.83565902709961 1.500003814697266 52.00806045532227 1.500003814697266 45.99993896484375 C 1.500003814697266 39.99181747436523 2.676363706588745 34.16421890258789 4.996417045593262 28.67901802062988 C 7.237643718719482 23.38017845153809 10.44645690917969 18.62101936340332 14.53375053405762 14.53373908996582 C 18.62103080749512 10.44645881652832 23.38020324707031 7.237632274627686 28.67905807495117 4.996418952941895 C 34.16427230834961 2.676365613937378 39.99188232421875 1.500005602836609 46.00000381469727 1.500005602836609 C 52.00812530517578 1.500005602836609 57.83573532104492 2.676365613937378 63.32094955444336 4.996418952941895 C 68.61980438232422 7.237632274627686 73.37896728515625 10.44645881652832 77.46625518798828 14.53373908996582 C 81.55353546142578 18.62101936340332 84.76236724853516 23.38017845153809 87.00359344482422 28.67901802062988 C 89.32364654541016 34.16421890258789 90.5 39.99181747436523 90.5 45.99993896484375 C 90.5 52.00806045532227 89.32364654541016 57.83565902709961 87.00359344482422 63.32085800170898 C 84.76236724853516 68.61971282958984 81.55353546142578 73.37887573242188 77.46625518798828 77.46615600585938 C 73.37896728515625 81.55342864990234 68.61980438232422 84.76226043701172 63.32094955444336 87.00347137451172 C 57.83573532104492 89.32352447509766 52.00812530517578 90.49988555908203 46.00000381469727 90.49988555908203 Z" stroke="none"/>
                                        <path d="M 46.00000381469727 2.999992370605469 C 40.19371795654297 2.999992370605469 34.56270217895508 4.136497497558594 29.26338958740234 6.377906799316406 C 24.14333343505859 8.543510437011719 19.54441833496094 11.64437866210938 15.59440612792969 15.59439849853516 C 11.64440155029297 19.54439544677734 8.54351806640625 24.14329528808594 6.377914428710938 29.26335144042969 C 4.136505126953125 34.56266784667969 3.000007629394531 40.19366836547852 3.000007629394531 45.99993896484375 C 3.000007629394531 51.80620956420898 4.136505126953125 57.43722534179688 6.377914428710938 62.73654174804688 C 8.54351806640625 67.85658264160156 11.64440155029297 72.45548248291016 15.59440612792969 76.40549468994141 C 19.54441833496094 80.35549926757812 24.14333343505859 83.45636749267578 29.26337432861328 85.62196350097656 C 34.56270217895508 87.86338043212891 40.19371795654297 88.9998779296875 46.00000381469727 88.9998779296875 C 51.80628967285156 88.9998779296875 57.43730545043945 87.86338043212891 62.73663330078125 85.62196350097656 C 67.85667419433594 83.45636749267578 72.45558929443359 80.35549926757812 76.40560150146484 76.40549468994141 C 80.35560607910156 72.45548248291016 83.45648956298828 67.85658264160156 85.62208557128906 62.73654174804688 C 87.86350250244141 57.43722534179688 89 51.80620956420898 89 45.99993896484375 C 89 40.19366836547852 87.86350250244141 34.56266784667969 85.62208557128906 29.26335144042969 C 83.45648956298828 24.14329528808594 80.35560607910156 19.54439544677734 76.40560150146484 15.59439849853516 C 72.45558929443359 11.64437866210938 67.85667419433594 8.543510437011719 62.73661804199219 6.377906799316406 C 57.43730545043945 4.136497497558594 51.80628967285156 2.999992370605469 46.00000381469727 2.999992370605469 M 46.00000381469727 -7.62939453125e-06 C 71.40510559082031 -7.62939453125e-06 92 20.59487915039062 92 45.99993896484375 C 92 71.40501403808594 71.40510559082031 91.99988555908203 46.00000381469727 91.99988555908203 C 20.59490203857422 91.99988555908203 7.62939453125e-06 71.40501403808594 7.62939453125e-06 45.99993896484375 C 7.62939453125e-06 20.59487915039062 20.59490203857422 -7.62939453125e-06 46.00000381469727 -7.62939453125e-06 Z" stroke="none" fill="#86b60c"/>
                                      </g>
                                    </g>
                                  </g>
                                </g>
                              </g>
                            </g>
                          </g>
                        </g>
                      </g>
                    </g>
                  </g>
                </g>
              </g>
            </g>
          </g>
        </g>
      </g>
    </g>
    <g id="pib" transform="translate(1123.007 2710)">
      <path id="Trazado_1044034" data-name="Trazado 1044034" d="M79.928,52.006a28.321,28.321,0,0,1-.265,3.866A27.934,27.934,0,0,1,71.725,71.81q-.241.241-.488.477A28.01,28.01,0,1,1,51.921,24V52.006Z" transform="translate(-6.956 -7.034)" fill="#4976f2"/>
      <path id="Trazado_1044035" data-name="Trazado 1044035" d="M59.867,117.862v.59a1.932,1.932,0,0,1-1.171,1.776l-4.915,2.105a1.926,1.926,0,0,1-1.371.058l-1.9-.635a1.944,1.944,0,0,0-.611-.1h-.652a1.931,1.931,0,0,0-1.931,1.931v1.347a1.935,1.935,0,0,1-.325,1.071L46,127.484a1.932,1.932,0,0,0-.121,1.935l.9,1.794a1.931,1.931,0,0,0,1.727,1.067h3.635a1.931,1.931,0,0,1,1.931,1.931v3.407a1.933,1.933,0,0,1-.2.864l-1.523,3.047a1.932,1.932,0,0,0-.2.864V145.8a1.931,1.931,0,0,1-1.931,1.931h-.872a1.931,1.931,0,0,1-1.63-.895l-5.745-9.028a1.927,1.927,0,0,1-.244-1.505l.557-2.228a1.929,1.929,0,0,0-.267-1.54l-3.064-4.6a1.935,1.935,0,0,1-.325-1.071v-3.279a1.931,1.931,0,0,0-1.931-1.931H32.94A27.942,27.942,0,0,1,37.907,112h5.474a1.931,1.931,0,0,1,1.607.86l.286.431a1.931,1.931,0,0,0,2.679.535l.357-.238a1.932,1.932,0,0,1,1.935-.121l2.453,1.227a1.932,1.932,0,0,0,.864.2h2.822a1.935,1.935,0,0,1,1.071.325l1.551,1.033A1.931,1.931,0,0,1,59.867,117.862Z" transform="translate(-14.902 -84.411)" fill="#548aff"/>
      <path id="Trazado_1044036" data-name="Trazado 1044036" d="M333.246,256a28.324,28.324,0,0,1-.265,3.866l-4.564,0a1.931,1.931,0,0,0-1.931,1.931v.652a1.946,1.946,0,0,1-.1.611L325,267.234a1.933,1.933,0,0,1-1.832,1.321H322.3a1.93,1.93,0,0,1-1.159-.386l-2.728-2.046a1.929,1.929,0,0,1-.746-1.228l-.717-4.3a1.929,1.929,0,0,0-.7-1.19L312,256Z" transform="translate(-260.274 -211.028)" fill="#548aff"/>
      <path id="Trazado_1044037" data-name="Trazado 1044037" d="M164.229,24v7.726h-4.4a1.933,1.933,0,0,1-1.832-1.321l-.214-.641a1.93,1.93,0,0,0-1.252-1.231l-4.9-1.544A27.873,27.873,0,0,1,164.229,24Z" transform="translate(-119.264 -7.034)" fill="#548aff"/>
      <path id="Trazado_1044038" data-name="Trazado 1044038" d="M198.836,381.794a28.035,28.035,0,0,1-29.816,5.689l6.291-5.392a1.94,1.94,0,0,1,.788-.408l2.463-.616a1.93,1.93,0,0,0,1.325-1.156l1.079-2.7A1.93,1.93,0,0,1,182.759,376h1.755a1.932,1.932,0,0,1,1.366.566l3.783,3.783a1.932,1.932,0,0,0,1.153.554Z" transform="translate(-134.554 -316.542)" fill="#548aff"/>
      <rect id="Rectángulo_415737" data-name="Rectángulo 415737" width="6.816" height="7.79" transform="translate(50.56 32.56)" fill="#ffa100"/>
      <rect id="Rectángulo_415738" data-name="Rectángulo 415738" width="6.816" height="13.632" transform="translate(57.376 26.718)" fill="#ffb401"/>
      <rect id="Rectángulo_415739" data-name="Rectángulo 415739" width="6.816" height="18.501" transform="translate(64.192 21.849)" fill="#ffc431"/>
      <path id="Trazado_1044039" data-name="Trazado 1044039" d="M44.966,73.944A28.972,28.972,0,0,0,73.938,44.972a.966.966,0,0,0-.966-.966H45.931v-2.9H73.938V39.178H72.006V21.794a.966.966,0,0,0-.966-.966H64.28a.966.966,0,0,0-.966.966v3.863H57.52a.966.966,0,0,0-.966.966v4.829H50.76a.966.966,0,0,0-.966.966v6.76H45.931V29.52H50.76a.966.966,0,0,0,.683-.283L62.749,17.931h7.326V16H62.349a.966.966,0,0,0-.683.283L50.36,27.589H45.931V16.966A.966.966,0,0,0,44.966,16a28.972,28.972,0,0,0,0,57.944ZM65.246,22.76h4.829V39.178H65.246Zm-6.76,4.829h4.829V39.178H58.486Zm-6.76,5.794h4.829v5.794H51.726ZM36.334,70.611l5.05-4.329a.974.974,0,0,1,.395-.2l2.463-.616a2.9,2.9,0,0,0,1.987-1.735l1.079-2.7a.961.961,0,0,1,.9-.607H49.96a.959.959,0,0,1,.683.283l3.784,3.784a2.908,2.908,0,0,0,1.729.831l5.849.65a27.122,27.122,0,0,1-25.67,4.64ZM71.854,47.869h-3.71a2.9,2.9,0,0,0-2.9,2.9v.652a.96.96,0,0,1-.05.305L63.8,55.9a.964.964,0,0,1-.916.66h-.861a.972.972,0,0,1-.579-.193l-2.729-2.047a.961.961,0,0,1-.373-.614l-.717-4.3a2.893,2.893,0,0,0-1.048-1.786l-2.1-1.681h17.51Q71.955,46.91,71.854,47.869ZM30.117,45.441l.9,1.793a2.881,2.881,0,0,0,2.591,1.6H37.24a.967.967,0,0,1,.966.966v3.407a.971.971,0,0,1-.1.432L36.58,56.687a2.913,2.913,0,0,0-.306,1.3V61.39a.967.967,0,0,1-.966.966h-.871a.962.962,0,0,1-.815-.447L27.877,52.88a.97.97,0,0,1-.122-.753l.557-2.229a2.9,2.9,0,0,0-.4-2.31l-3.065-4.6a.963.963,0,0,1-.162-.536V39.178a2.9,2.9,0,0,0-2.9-2.9H19.347a26.774,26.774,0,0,1,4.129-7.726h5a.964.964,0,0,1,.8.43l.287.43a2.9,2.9,0,0,0,4.018.8l.358-.238a.968.968,0,0,1,.968-.06l2.452,1.226a2.913,2.913,0,0,0,1.3.306h2.822a.963.963,0,0,1,.536.162l1.55,1.034a.964.964,0,0,1,.43.8v.59a.965.965,0,0,1-.585.888L38.5,37.035a.963.963,0,0,1-.686.029l-1.9-.634a2.892,2.892,0,0,0-.916-.149h-.652a2.9,2.9,0,0,0-2.9,2.9v1.347a.963.963,0,0,1-.162.536L30.3,42.538a2.9,2.9,0,0,0-.181,2.9ZM44,23.726H40.563a.964.964,0,0,1-.916-.66l-.22-.66a2.912,2.912,0,0,0-1.833-1.832l-2.439-.813A26.965,26.965,0,0,1,44,17.948Zm-11.439-2.8,4.423,1.474a.97.97,0,0,1,.611.611l.22.66a2.894,2.894,0,0,0,2.748,1.981H44v4.956l-.909-.606a2.889,2.889,0,0,0-1.607-.487H38.661a.971.971,0,0,1-.432-.1l-2.453-1.226a2.9,2.9,0,0,0-2.9.181l-.358.238a.967.967,0,0,1-1.339-.268l-.287-.43a2.891,2.891,0,0,0-2.41-1.29H25.105c.241-.261.487-.519.74-.772a27.114,27.114,0,0,1,6.716-4.921ZM18.774,38.212h3.014a.967.967,0,0,1,.966.966v3.278a2.888,2.888,0,0,0,.487,1.607l3.064,4.6a.968.968,0,0,1,.133.77l-.557,2.229a2.909,2.909,0,0,0,.366,2.258l5.745,9.028a2.884,2.884,0,0,0,2.444,1.342h.871a2.9,2.9,0,0,0,2.9-2.9V57.983a.971.971,0,0,1,.1-.432L39.831,54.5a2.913,2.913,0,0,0,.306-1.3V49.8a2.9,2.9,0,0,0-2.9-2.9H33.6a.96.96,0,0,1-.864-.534l-.9-1.793a.968.968,0,0,1,.06-.968l.985-1.478a2.889,2.889,0,0,0,.487-1.607V39.178a.967.967,0,0,1,.966-.966h.652a.962.962,0,0,1,.305.05l1.9.634a2.894,2.894,0,0,0,2.058-.086L44,36.779v8.193a.966.966,0,0,0,.966.966h6.422l3.987,3.19a.964.964,0,0,1,.349.6l.717,4.3a2.885,2.885,0,0,0,1.119,1.842l2.729,2.047a2.916,2.916,0,0,0,1.738.579h.861a2.894,2.894,0,0,0,2.749-1.981l1.392-4.176a2.892,2.892,0,0,0,.149-.916v-.652a.967.967,0,0,1,.966-.966h3.435a26.844,26.844,0,0,1-7.492,14.292c-.051.051-.1.1-.153.15l-7.564-.84a.969.969,0,0,1-.576-.277l-3.784-3.784a2.878,2.878,0,0,0-2.049-.849H48.2a2.883,2.883,0,0,0-2.69,1.821l-1.079,2.7a.968.968,0,0,1-.662.578l-2.463.616a2.914,2.914,0,0,0-1.183.611l-5.846,5.011A27.108,27.108,0,0,1,18.774,38.212Z" transform="translate(0 0)"/>
      <rect id="Rectángulo_415740" data-name="Rectángulo 415740" width="1.947" height="1.947" transform="translate(71.982 16.007)"/>
    </g>
  </g>
</svg>
