<svg xmlns="http://www.w3.org/2000/svg" xmlns:xlink="http://www.w3.org/1999/xlink" width="110" height="110" viewBox="0 0 110 110">
  <defs>
    <filter id="Trazado_982547" x="0" y="0" width="110" height="110" filterUnits="userSpaceOnUse">
      <feOffset dy="3" input="SourceAlpha"/>
      <feGaussianBlur stdDeviation="3" result="blur"/>
      <feFlood flood-opacity="0.161"/>
      <feComposite operator="in" in2="blur"/>
      <feComposite in="SourceGraphic"/>
    </filter>
  </defs>
  <g id="Grupo_1200158" data-name="Grupo 1200158" transform="translate(942 -2707)">
    <g id="Grupo_1185955" data-name="Grupo 1185955" transform="translate(-2055.461 1753)">
      <g id="Grupo_1184115" data-name="Grupo 1184115" transform="translate(-33.519 -1471.333)">
        <g id="Grupo_1183744" data-name="Grupo 1183744" transform="translate(458.936 -388.667)">
          <g id="Grupo_1181546" data-name="Grupo 1181546" transform="translate(-4.696 -130.677)">
            <g id="Grupo_1177563" data-name="Grupo 1177563" transform="translate(0.279 -12113.323)">
              <g id="Grupo_1173148" data-name="Grupo 1173148" transform="translate(701.461 15064)">
                <g id="Grupo_1163803" data-name="Grupo 1163803" transform="translate(0 0)">
                  <g id="Grupo_1163015" data-name="Grupo 1163015">
                    <g id="Grupo_1157017" data-name="Grupo 1157017" transform="translate(0 0)">
                      <g id="Grupo_1155793" data-name="Grupo 1155793" transform="translate(0 0)">
                        <g id="Grupo_1154704" data-name="Grupo 1154704">
                          <g id="Grupo_1150790" data-name="Grupo 1150790">
                            <g id="Grupo_1154214" data-name="Grupo 1154214">
                              <g id="Grupo_1152583" data-name="Grupo 1152583">
                                <g id="Grupo_1146973" data-name="Grupo 1146973" transform="translate(0 0)">
                                  <g id="Grupo_1146954" data-name="Grupo 1146954">
                                    <g transform="matrix(1, 0, 0, 1, -9, -6)" filter="url(#Trazado_982547)">
                                      <g id="Trazado_982547-2" data-name="Trazado 982547" transform="translate(9 6)" fill="#f2f7e5">
                                        <path d="M 46.00000381469727 90.49988555908203 C 39.99188232421875 90.49988555908203 34.16427230834961 89.32352447509766 28.67905807495117 87.00347137451172 C 23.38020324707031 84.76226043701172 18.62103080749512 81.55342864990234 14.53375053405762 77.46615600585938 C 10.44645690917969 73.37887573242188 7.237643718719482 68.61971282958984 4.996417045593262 63.32085800170898 C 2.676363706588745 57.83565902709961 1.500003814697266 52.00806045532227 1.500003814697266 45.99993896484375 C 1.500003814697266 39.99181747436523 2.676363706588745 34.16421890258789 4.996417045593262 28.67901802062988 C 7.237643718719482 23.38017845153809 10.44645690917969 18.62101936340332 14.53375053405762 14.53373908996582 C 18.62103080749512 10.44645881652832 23.38020324707031 7.237632274627686 28.67905807495117 4.996418952941895 C 34.16427230834961 2.676365613937378 39.99188232421875 1.500005602836609 46.00000381469727 1.500005602836609 C 52.00812530517578 1.500005602836609 57.83573532104492 2.676365613937378 63.32094955444336 4.996418952941895 C 68.61980438232422 7.237632274627686 73.37896728515625 10.44645881652832 77.46625518798828 14.53373908996582 C 81.55353546142578 18.62101936340332 84.76236724853516 23.38017845153809 87.00359344482422 28.67901802062988 C 89.32364654541016 34.16421890258789 90.5 39.99181747436523 90.5 45.99993896484375 C 90.5 52.00806045532227 89.32364654541016 57.83565902709961 87.00359344482422 63.32085800170898 C 84.76236724853516 68.61971282958984 81.55353546142578 73.37887573242188 77.46625518798828 77.46615600585938 C 73.37896728515625 81.55342864990234 68.61980438232422 84.76226043701172 63.32094955444336 87.00347137451172 C 57.83573532104492 89.32352447509766 52.00812530517578 90.49988555908203 46.00000381469727 90.49988555908203 Z" stroke="none"/>
                                        <path d="M 46.00000381469727 2.999992370605469 C 40.19371795654297 2.999992370605469 34.56270217895508 4.136497497558594 29.26338958740234 6.377906799316406 C 24.14333343505859 8.543510437011719 19.54441833496094 11.64437866210938 15.59440612792969 15.59439849853516 C 11.64440155029297 19.54439544677734 8.54351806640625 24.14329528808594 6.377914428710938 29.26335144042969 C 4.136505126953125 34.56266784667969 3.000007629394531 40.19366836547852 3.000007629394531 45.99993896484375 C 3.000007629394531 51.80620956420898 4.136505126953125 57.43722534179688 6.377914428710938 62.73654174804688 C 8.54351806640625 67.85658264160156 11.64440155029297 72.45548248291016 15.59440612792969 76.40549468994141 C 19.54441833496094 80.35549926757812 24.14333343505859 83.45636749267578 29.26337432861328 85.62196350097656 C 34.56270217895508 87.86338043212891 40.19371795654297 88.9998779296875 46.00000381469727 88.9998779296875 C 51.80628967285156 88.9998779296875 57.43730545043945 87.86338043212891 62.73663330078125 85.62196350097656 C 67.85667419433594 83.45636749267578 72.45558929443359 80.35549926757812 76.40560150146484 76.40549468994141 C 80.35560607910156 72.45548248291016 83.45648956298828 67.85658264160156 85.62208557128906 62.73654174804688 C 87.86350250244141 57.43722534179688 89 51.80620956420898 89 45.99993896484375 C 89 40.19366836547852 87.86350250244141 34.56266784667969 85.62208557128906 29.26335144042969 C 83.45648956298828 24.14329528808594 80.35560607910156 19.54439544677734 76.40560150146484 15.59439849853516 C 72.45558929443359 11.64437866210938 67.85667419433594 8.543510437011719 62.73661804199219 6.377906799316406 C 57.43730545043945 4.136497497558594 51.80628967285156 2.999992370605469 46.00000381469727 2.999992370605469 M 46.00000381469727 -7.62939453125e-06 C 71.40510559082031 -7.62939453125e-06 92 20.59487915039062 92 45.99993896484375 C 92 71.40501403808594 71.40510559082031 91.99988555908203 46.00000381469727 91.99988555908203 C 20.59490203857422 91.99988555908203 7.62939453125e-06 71.40501403808594 7.62939453125e-06 45.99993896484375 C 7.62939453125e-06 20.59487915039062 20.59490203857422 -7.62939453125e-06 46.00000381469727 -7.62939453125e-06 Z" stroke="none" fill="#86b60c"/>
                                      </g>
                                    </g>
                                  </g>
                                </g>
                              </g>
                            </g>
                          </g>
                        </g>
                      </g>
                    </g>
                  </g>
                </g>
              </g>
            </g>
          </g>
        </g>
      </g>
    </g>
    <g id="configuraciones" transform="translate(-917 2729)">
      <path id="Trazado_1044073" data-name="Trazado 1044073" d="M65.026,41.851a1.442,1.442,0,0,0,1.426-1.285,29.361,29.361,0,0,0,0-6.973,1.442,1.442,0,0,0-1.426-1.285h-3.6a24.669,24.669,0,0,0-3.756-9.072l2.545-2.545a1.442,1.442,0,0,0,.1-1.917,29.353,29.353,0,0,0-4.93-4.93,1.442,1.442,0,0,0-1.917.1L50.922,16.49a24.67,24.67,0,0,0-9.072-3.756v-3.6a1.442,1.442,0,0,0-1.285-1.426,29.351,29.351,0,0,0-6.972,0,1.442,1.442,0,0,0-1.285,1.426v3.6a24.669,24.669,0,0,0-9.072,3.756l-2.545-2.545a1.442,1.442,0,0,0-1.917-.1,29.354,29.354,0,0,0-4.93,4.93,1.442,1.442,0,0,0,.1,1.917l2.545,2.545a24.671,24.671,0,0,0-3.756,9.072h-3.6a1.442,1.442,0,0,0-1.426,1.285,29.353,29.353,0,0,0,0,6.973,1.442,1.442,0,0,0,1.426,1.285h3.6a24.669,24.669,0,0,0,3.756,9.072l-2.545,2.545a1.442,1.442,0,0,0-.1,1.917,29.359,29.359,0,0,0,4.93,4.93,1.442,1.442,0,0,0,1.917-.1l2.545-2.545a24.67,24.67,0,0,0,9.072,3.756v3.6a1.442,1.442,0,0,0,1.285,1.426,29.361,29.361,0,0,0,6.972,0,1.442,1.442,0,0,0,1.285-1.426v-3.6a24.669,24.669,0,0,0,9.072-3.756l2.545,2.545a1.442,1.442,0,0,0,1.917.1,29.359,29.359,0,0,0,4.93-4.93,1.442,1.442,0,0,0-.1-1.917L57.67,50.923a24.67,24.67,0,0,0,3.756-9.072Z" transform="translate(-6.607 -6.607)" fill="#c0bcc1"/>
      <g id="Grupo_1200156" data-name="Grupo 1200156" transform="translate(0.893 6.922)">
        <circle id="Elipse_13406" data-name="Elipse 13406" cx="20.992" cy="20.992" r="20.992" transform="translate(8.588 2.502)" fill="#aea8af"/>
        <path id="Trazado_1044074" data-name="Trazado 1044074" d="M57.67,95.541a24.691,24.691,0,0,0,1.678-2.911A28.6,28.6,0,0,1,26.074,59.468a24.7,24.7,0,0,0-2.836,1.641l-2.545-2.545a1.442,1.442,0,0,0-1.917-.1,29.353,29.353,0,0,0-4.93,4.93,1.442,1.442,0,0,0,.1,1.917l2.545,2.545a24.671,24.671,0,0,0-3.756,9.072h-3.6a1.442,1.442,0,0,0-1.426,1.285,29.361,29.361,0,0,0,0,6.973,1.442,1.442,0,0,0,1.426,1.285h3.6a24.669,24.669,0,0,0,3.756,9.072l-2.545,2.545a1.442,1.442,0,0,0-.1,1.917,29.358,29.358,0,0,0,4.93,4.93,1.442,1.442,0,0,0,1.917-.1l2.545-2.545a24.669,24.669,0,0,0,9.072,3.756v3.6a1.442,1.442,0,0,0,1.285,1.426,29.362,29.362,0,0,0,6.972,0,1.442,1.442,0,0,0,1.285-1.426v-3.6a24.669,24.669,0,0,0,9.072-3.756l2.545,2.545a1.443,1.443,0,0,0,1.917.1,29.358,29.358,0,0,0,4.93-4.93,1.442,1.442,0,0,0-.1-1.917Z" transform="translate(-7.5 -58.148)" fill="#aea8af"/>
      </g>
      <path id="Trazado_1044075" data-name="Trazado 1044075" d="M100.637,146.275a20.969,20.969,0,0,0,17.6-9.552c-.141,0-.28.01-.422.01a28.626,28.626,0,0,1-28.626-28.626c0-.141.007-.281.01-.422a20.99,20.99,0,0,0,11.441,38.589Z" transform="translate(-70.165 -94.868)" fill="#9c969e"/>
      <circle id="Elipse_13407" data-name="Elipse 13407" cx="18.13" cy="18.13" r="18.13" transform="translate(12.343 12.285)" fill="#87c37d"/>
      <circle id="Elipse_13408" data-name="Elipse 13408" cx="15.267" cy="15.267" r="15.267" transform="translate(15.205 15.148)" fill="#9bd278"/>
      <g id="Grupo_1200157" data-name="Grupo 1200157" transform="translate(18.068 19.919)">
        <circle id="Elipse_13409" data-name="Elipse 13409" cx="1.908" cy="1.908" r="1.908" transform="translate(1.908)" fill="#6f6571"/>
        <circle id="Elipse_13410" data-name="Elipse 13410" cx="1.908" cy="1.908" r="1.908" transform="translate(12.404 3.817)" fill="#6f6571"/>
        <circle id="Elipse_13411" data-name="Elipse 13411" cx="1.908" cy="1.908" r="1.908" transform="translate(6.68 12.404)" fill="#6f6571"/>
        <circle id="Elipse_13412" data-name="Elipse 13412" cx="1.908" cy="1.908" r="1.908" transform="translate(0 7.576)" fill="#6f6571"/>
      </g>
      <path id="Trazado_1044076" data-name="Trazado 1044076" d="M134.235,115.2a18.964,18.964,0,0,0-4.229-11.949.893.893,0,1,0-1.387,1.124c.107.133.212.267.315.4h-7.042a.062.062,0,0,1-.062-.062V99.295a17.143,17.143,0,0,1,4.219,2.514.893.893,0,1,0,1.124-1.387,19.024,19.024,0,0,0-26.754,26.754.893.893,0,1,0,1.387-1.124A17.238,17.238,0,0,1,114.361,98c.305-.015.61-.021.914-.02v4.041a1.009,1.009,0,0,1-.3.718l-2.7,2.7a1.009,1.009,0,0,1-.718.3h-2.28a2.8,2.8,0,1,0,0,1.785h2.28a2.783,2.783,0,0,0,1.981-.82l2.7-2.7a2.783,2.783,0,0,0,.821-1.981V98.076a17.233,17.233,0,0,1,2.985.59v6.052a1.849,1.849,0,0,0,1.847,1.847h8.234a17.137,17.137,0,0,1,1.37,2.985H119.776a2.8,2.8,0,1,0,0,1.786h12.235a17.263,17.263,0,0,1,.416,2.985h-9.743a2.783,2.783,0,0,0-1.981.82l-2.7,2.7a1.01,1.01,0,0,1-.718.3h-3.234a2.8,2.8,0,1,0,0,1.785h3.234a2.783,2.783,0,0,0,1.981-.82l2.7-2.7a1.009,1.009,0,0,1,.718-.3h9.744a17.252,17.252,0,0,1-.418,2.985h-7.418a2.783,2.783,0,0,0-1.981.82l-5.561,5.561a2.783,2.783,0,0,0-.82,1.981v4.965l-.163.01a17.3,17.3,0,0,1-4.73-.419v-4.557a2.783,2.783,0,0,0-.82-1.981l-4.607-4.607a1.009,1.009,0,0,1-.3-.718v-3.234a2.8,2.8,0,1,0-1.786,0v3.234a2.783,2.783,0,0,0,.821,1.981l4.607,4.607a1.009,1.009,0,0,1,.3.718V131.5a17.145,17.145,0,0,1-5.174-2.878.893.893,0,0,0-1.124,1.387,18.965,18.965,0,0,0,11.958,4.23q.471,0,.944-.023a19.023,19.023,0,0,0,18.059-18.059q.023-.466.023-.931s0-.006,0-.009A.109.109,0,0,0,134.235,115.2Zm-27.609-7.56a1.016,1.016,0,1,1,1.016-1.016A1.017,1.017,0,0,1,106.626,107.642Zm10.5,3.817a1.016,1.016,0,1,1,1.016-1.016A1.017,1.017,0,0,1,117.122,111.459Zm-5.725,8.588a1.016,1.016,0,1,1,1.016-1.016A1.017,1.017,0,0,1,111.4,120.046Zm-6.679-6.8a1.016,1.016,0,1,1-1.016,1.016A1.017,1.017,0,0,1,104.717,113.244ZM127.4,127.4a17.2,17.2,0,0,1-9.387,4.82v-4.768a1.009,1.009,0,0,1,.3-.718l5.561-5.561a1.009,1.009,0,0,1,.718-.3h6.9A17.216,17.216,0,0,1,127.4,127.4Z" transform="translate(-84.741 -84.742)"/>
      <path id="Trazado_1044077" data-name="Trazado 1044077" d="M60.731,26.881a2.339,2.339,0,0,0-2.312-2.072H55.543a25.409,25.409,0,0,0-3.337-8.06l2.032-2.032a2.339,2.339,0,0,0,.17-3.1,30.24,30.24,0,0,0-5.079-5.079,2.339,2.339,0,0,0-3.1.17L44.2,8.739A25.407,25.407,0,0,0,36.136,5.4V2.526A2.339,2.339,0,0,0,34.064.214a30.244,30.244,0,0,0-7.183,0,2.339,2.339,0,0,0-2.072,2.312V5.4a25.408,25.408,0,0,0-8.06,3.337L14.716,6.707a2.339,2.339,0,0,0-3.1-.17,30.228,30.228,0,0,0-5.079,5.079,2.339,2.339,0,0,0,.17,3.1l2.032,2.032A25.408,25.408,0,0,0,5.4,24.809H2.526A2.339,2.339,0,0,0,.214,26.881a30.246,30.246,0,0,0,0,7.184,2.339,2.339,0,0,0,2.312,2.072H5.4A25.4,25.4,0,0,0,8.739,44.2L6.707,46.229a2.339,2.339,0,0,0-.17,3.1,30.24,30.24,0,0,0,5.079,5.079,2.339,2.339,0,0,0,3.1-.17l2.032-2.032a25.41,25.41,0,0,0,8.06,3.337v2.876a2.339,2.339,0,0,0,2.072,2.312,30.252,30.252,0,0,0,7.183,0,2.339,2.339,0,0,0,2.072-2.312V55.543a25.408,25.408,0,0,0,8.06-3.337l2.032,2.032a2.339,2.339,0,0,0,3.1.17,30.24,30.24,0,0,0,5.079-5.079,2.339,2.339,0,0,0-.17-3.1L52.206,44.2a25.406,25.406,0,0,0,3.337-8.06h2.875a2.339,2.339,0,0,0,2.312-2.072,30.237,30.237,0,0,0,0-7.183Zm-1.773,6.973a.553.553,0,0,1-.539.5h-3.6a.893.893,0,0,0-.876.722,23.666,23.666,0,0,1-3.62,8.744.893.893,0,0,0,.109,1.13l2.545,2.545a.553.553,0,0,1,.03.733,28.464,28.464,0,0,1-4.781,4.781.552.552,0,0,1-.733-.03l-2.545-2.545a.893.893,0,0,0-1.13-.109,23.67,23.67,0,0,1-8.744,3.62.893.893,0,0,0-.722.876v3.6a.553.553,0,0,1-.5.539,28.463,28.463,0,0,1-6.762,0,.553.553,0,0,1-.5-.539v-3.6a.893.893,0,0,0-.722-.876,23.67,23.67,0,0,1-8.744-3.62.893.893,0,0,0-1.13.109l-2.545,2.545a.553.553,0,0,1-.733.03A28.471,28.471,0,0,1,7.94,48.224a.553.553,0,0,1,.03-.733l2.545-2.545a.893.893,0,0,0,.109-1.13A23.669,23.669,0,0,1,7,35.073a.893.893,0,0,0-.876-.722h-3.6a.553.553,0,0,1-.539-.5,28.468,28.468,0,0,1,0-6.762.553.553,0,0,1,.539-.5h3.6A.893.893,0,0,0,7,25.873a23.669,23.669,0,0,1,3.62-8.744A.893.893,0,0,0,10.514,16L7.969,13.454a.553.553,0,0,1-.03-.733A28.464,28.464,0,0,1,12.721,7.94a.553.553,0,0,1,.733.03L16,10.514a.893.893,0,0,0,1.13.109A23.667,23.667,0,0,1,25.872,7a.893.893,0,0,0,.722-.876v-3.6a.553.553,0,0,1,.5-.539,28.462,28.462,0,0,1,6.762,0,.553.553,0,0,1,.5.539v3.6A.893.893,0,0,0,35.073,7a23.667,23.667,0,0,1,8.744,3.62.893.893,0,0,0,1.13-.109l2.545-2.545a.553.553,0,0,1,.733-.03,28.465,28.465,0,0,1,4.781,4.781.553.553,0,0,1-.03.733L50.431,16a.893.893,0,0,0-.109,1.13,23.667,23.667,0,0,1,3.62,8.744.893.893,0,0,0,.876.722h3.6a.553.553,0,0,1,.539.5,28.46,28.46,0,0,1,0,6.762Z" transform="translate(0 0)"/>
    </g>
  </g>
</svg>
