<svg xmlns="http://www.w3.org/2000/svg" xmlns:xlink="http://www.w3.org/1999/xlink" width="110" height="110" viewBox="0 0 110 110">
  <defs>
    <filter id="Trazado_982547" x="0" y="0" width="110" height="110" filterUnits="userSpaceOnUse">
      <feOffset dy="3" input="SourceAlpha"/>
      <feGaussianBlur stdDeviation="3" result="blur"/>
      <feFlood flood-opacity="0.161"/>
      <feComposite operator="in" in2="blur"/>
      <feComposite in="SourceGraphic"/>
    </filter>
  </defs>
  <g id="Grupo_1200160" data-name="Grupo 1200160" transform="translate(1257 -3052)">
    <g id="Grupo_1185956" data-name="Grupo 1185956" transform="translate(-2055.461 2098.71)">
      <g id="Grupo_1184083" data-name="Grupo 1184083" transform="translate(-32.778 -1471.71)">
        <g id="Grupo_1183743" data-name="Grupo 1183743" transform="translate(459.195 -389)">
          <g id="Grupo_1181545" data-name="Grupo 1181545" transform="translate(-5.417 -130)">
            <g id="Grupo_1177562" data-name="Grupo 1177562" transform="translate(0 -12113)">
              <g id="Grupo_1173147" data-name="Grupo 1173147" transform="translate(386.461 15063)">
                <g id="Grupo_1163801" data-name="Grupo 1163801" transform="translate(0 0)">
                  <g id="Grupo_1163014" data-name="Grupo 1163014">
                    <g id="Grupo_1157015" data-name="Grupo 1157015" transform="translate(0 0)">
                      <g id="Grupo_1155792" data-name="Grupo 1155792" transform="translate(0 0)">
                        <g id="Grupo_1154703" data-name="Grupo 1154703">
                          <g id="Grupo_1150789" data-name="Grupo 1150789">
                            <g id="Grupo_1154212" data-name="Grupo 1154212">
                              <g id="Grupo_1152583" data-name="Grupo 1152583">
                                <g id="Grupo_1146973" data-name="Grupo 1146973" transform="translate(0 0)">
                                  <g id="Grupo_1146954" data-name="Grupo 1146954">
                                    <g transform="matrix(1, 0, 0, 1, -9, -6)" filter="url(#Trazado_982547)">
                                      <g id="Trazado_982547-2" data-name="Trazado 982547" transform="translate(9 6)" fill="#f2f7e5">
                                        <path d="M 46.00000381469727 90.49988555908203 C 39.99188232421875 90.49988555908203 34.16427230834961 89.32352447509766 28.67905807495117 87.00347137451172 C 23.38020324707031 84.76226043701172 18.62103080749512 81.55342864990234 14.53375053405762 77.46615600585938 C 10.44645690917969 73.37887573242188 7.237643718719482 68.61971282958984 4.996417045593262 63.32085800170898 C 2.676363706588745 57.83565902709961 1.500003814697266 52.00806045532227 1.500003814697266 45.99993896484375 C 1.500003814697266 39.99181747436523 2.676363706588745 34.16421890258789 4.996417045593262 28.67901802062988 C 7.237643718719482 23.38017845153809 10.44645690917969 18.62101936340332 14.53375053405762 14.53373908996582 C 18.62103080749512 10.44645881652832 23.38020324707031 7.237632274627686 28.67905807495117 4.996418952941895 C 34.16427230834961 2.676365613937378 39.99188232421875 1.500005602836609 46.00000381469727 1.500005602836609 C 52.00812530517578 1.500005602836609 57.83573532104492 2.676365613937378 63.32094955444336 4.996418952941895 C 68.61980438232422 7.237632274627686 73.37896728515625 10.44645881652832 77.46625518798828 14.53373908996582 C 81.55353546142578 18.62101936340332 84.76236724853516 23.38017845153809 87.00359344482422 28.67901802062988 C 89.32364654541016 34.16421890258789 90.5 39.99181747436523 90.5 45.99993896484375 C 90.5 52.00806045532227 89.32364654541016 57.83565902709961 87.00359344482422 63.32085800170898 C 84.76236724853516 68.61971282958984 81.55353546142578 73.37887573242188 77.46625518798828 77.46615600585938 C 73.37896728515625 81.55342864990234 68.61980438232422 84.76226043701172 63.32094955444336 87.00347137451172 C 57.83573532104492 89.32352447509766 52.00812530517578 90.49988555908203 46.00000381469727 90.49988555908203 Z" stroke="none"/>
                                        <path d="M 46.00000381469727 2.999992370605469 C 40.19371795654297 2.999992370605469 34.56270217895508 4.136497497558594 29.26338958740234 6.377906799316406 C 24.14333343505859 8.543510437011719 19.54441833496094 11.64437866210938 15.59440612792969 15.59439849853516 C 11.64440155029297 19.54439544677734 8.54351806640625 24.14329528808594 6.377914428710938 29.26335144042969 C 4.136505126953125 34.56266784667969 3.000007629394531 40.19366836547852 3.000007629394531 45.99993896484375 C 3.000007629394531 51.80620956420898 4.136505126953125 57.43722534179688 6.377914428710938 62.73654174804688 C 8.54351806640625 67.85658264160156 11.64440155029297 72.45548248291016 15.59440612792969 76.40549468994141 C 19.54441833496094 80.35549926757812 24.14333343505859 83.45636749267578 29.26337432861328 85.62196350097656 C 34.56270217895508 87.86338043212891 40.19371795654297 88.9998779296875 46.00000381469727 88.9998779296875 C 51.80628967285156 88.9998779296875 57.43730545043945 87.86338043212891 62.73663330078125 85.62196350097656 C 67.85667419433594 83.45636749267578 72.45558929443359 80.35549926757812 76.40560150146484 76.40549468994141 C 80.35560607910156 72.45548248291016 83.45648956298828 67.85658264160156 85.62208557128906 62.73654174804688 C 87.86350250244141 57.43722534179688 89 51.80620956420898 89 45.99993896484375 C 89 40.19366836547852 87.86350250244141 34.56266784667969 85.62208557128906 29.26335144042969 C 83.45648956298828 24.14329528808594 80.35560607910156 19.54439544677734 76.40560150146484 15.59439849853516 C 72.45558929443359 11.64437866210938 67.85667419433594 8.543510437011719 62.73661804199219 6.377906799316406 C 57.43730545043945 4.136497497558594 51.80628967285156 2.999992370605469 46.00000381469727 2.999992370605469 M 46.00000381469727 -7.62939453125e-06 C 71.40510559082031 -7.62939453125e-06 92 20.59487915039062 92 45.99993896484375 C 92 71.40501403808594 71.40510559082031 91.99988555908203 46.00000381469727 91.99988555908203 C 20.59490203857422 91.99988555908203 7.62939453125e-06 71.40501403808594 7.62939453125e-06 45.99993896484375 C 7.62939453125e-06 20.59487915039062 20.59490203857422 -7.62939453125e-06 46.00000381469727 -7.62939453125e-06 Z" stroke="none" fill="#86b60c"/>
                                      </g>
                                    </g>
                                  </g>
                                </g>
                              </g>
                            </g>
                          </g>
                        </g>
                      </g>
                    </g>
                  </g>
                </g>
              </g>
            </g>
          </g>
        </g>
      </g>
    </g>
    <g id="bombilla_2_" data-name="bombilla (2)" transform="translate(-1230 3076)">
      <path id="Trazado_1044078" data-name="Trazado 1044078" d="M119.938,26.6A19.1,19.1,0,1,0,94.267,44.538v6.316a3.954,3.954,0,0,0,3.954,3.954h5.243a3.954,3.954,0,0,0,3.954-3.954V44.538A19.1,19.1,0,0,0,119.938,26.6Zm0,0" transform="translate(-72.775 -6.684)" fill="#ffe469"/>
      <path id="Trazado_1044079" data-name="Trazado 1044079" d="M237.941,7.508a19.223,19.223,0,0,0-2.195.126,19.1,19.1,0,0,1,4.38,36.9v6.316a3.954,3.954,0,0,1-3.954,3.954h4.39a3.954,3.954,0,0,0,3.954-3.954V44.538a19.1,19.1,0,0,0-6.575-37.03Zm0,0" transform="translate(-209.874 -6.684)" fill="#ffda30"/>
      <path id="Trazado_1044080" data-name="Trazado 1044080" d="M144.963,188.162a10.149,10.149,0,0,0,6.316,2.5.587.587,0,0,0,.625-.625,8.55,8.55,0,0,0-8.816-8.816.588.588,0,0,0-.625.625A10.15,10.15,0,0,0,144.963,188.162Zm0,0" transform="translate(-126.827 -161.331)" fill="#09a66d"/>
      <path id="Trazado_1044081" data-name="Trazado 1044081" d="M151.91,190.033a8.551,8.551,0,0,0-8.816-8.816.588.588,0,0,0-.625.563,8.226,8.226,0,0,1,3.32,1.937,10.149,10.149,0,0,1,2.5,6.316.6.6,0,0,1,0,.062,12.634,12.634,0,0,0,3,.563A.588.588,0,0,0,151.91,190.033Zm0,0" transform="translate(-126.834 -161.328)" fill="#028f5d"/>
      <path id="Trazado_1044082" data-name="Trazado 1044082" d="M289.923,188.162a10.147,10.147,0,0,1-6.313,2.5.591.591,0,0,1-.628-.628,8.549,8.549,0,0,1,8.812-8.812.591.591,0,0,1,.628.628A10.148,10.148,0,0,1,289.923,188.162Zm0,0" transform="translate(-251.925 -161.331)" fill="#09a66d"/>
      <path id="Trazado_1044083" data-name="Trazado 1044083" d="M291.794,181.22a12.372,12.372,0,0,0-3.48.733,9.788,9.788,0,0,1-2.452,5.769,7.952,7.952,0,0,1-2.833,1.766c-.022.2-.037.386-.048.544a.591.591,0,0,0,.628.628,8.548,8.548,0,0,0,8.812-8.812A.59.59,0,0,0,291.794,181.22Zm0,0" transform="translate(-251.925 -161.33)" fill="#028f5d"/>
      <path id="Trazado_1044084" data-name="Trazado 1044084" d="M233.413,86.72a10.164,10.164,0,0,1-2.714,6.251.57.57,0,0,1-.854,0,10.164,10.164,0,0,1-2.714-6.251,10.164,10.164,0,0,1,2.714-6.251.569.569,0,0,1,.854,0A10.164,10.164,0,0,1,233.413,86.72Zm0,0" transform="translate(-202.206 -71.466)" fill="#09a66d"/>
      <path id="Trazado_1044085" data-name="Trazado 1044085" d="M241.488,80.469a.569.569,0,0,0-.854,0,12.861,12.861,0,0,0-1.384,1.9,7.789,7.789,0,0,1,0,8.706,12.885,12.885,0,0,0,1.384,1.9.57.57,0,0,0,.854,0A10.164,10.164,0,0,0,244.2,86.72a10.164,10.164,0,0,0-2.714-6.251Zm0,0" transform="translate(-212.994 -71.466)" fill="#028f5d"/>
      <path id="Trazado_1044086" data-name="Trazado 1044086" d="M205.029,388.2h-5.243a3.954,3.954,0,0,1-3.954-3.954v-6.428a3.954,3.954,0,0,1,3.954-3.954h5.243a3.954,3.954,0,0,1,3.954,3.954v6.428A3.954,3.954,0,0,1,205.029,388.2Zm0,0" transform="translate(-174.341 -332.836)" fill="#f0f0f0"/>
      <path id="Trazado_1044087" data-name="Trazado 1044087" d="M240.458,373.867h-4.829a3.954,3.954,0,0,1,3.954,3.954v6.428a3.954,3.954,0,0,1-3.954,3.954h4.829a3.954,3.954,0,0,0,3.954-3.954v-6.428A3.954,3.954,0,0,0,240.458,373.867Zm0,0" transform="translate(-209.77 -332.836)" fill="#e8e8e8"/>
      <g id="Grupo_1200159" data-name="Grupo 1200159" transform="translate(18.76 40.286)">
        <path id="Trazado_1044088" data-name="Trazado 1044088" d="M188.679,370.777l-15.774.935a1.851,1.851,0,0,1-.219-3.695l15.774-.935a1.851,1.851,0,0,1,.219,3.695Zm0,0" transform="translate(-170.945 -367.079)" fill="#9e9e9e"/>
        <path id="Trazado_1044089" data-name="Trazado 1044089" d="M188.679,438.609l-15.774.935a1.851,1.851,0,1,1-.219-3.695l15.774-.935a1.851,1.851,0,1,1,.219,3.695Zm0,0" transform="translate(-170.945 -427.466)" fill="#9e9e9e"/>
        <path id="Trazado_1044090" data-name="Trazado 1044090" d="M188.679,438.609l-15.774.935a1.851,1.851,0,1,1-.219-3.695l15.774-.935a1.851,1.851,0,1,1,.219,3.695Zm0,0" transform="translate(-170.945 -427.466)" fill="#9e9e9e"/>
      </g>
      <path id="Trazado_1044091" data-name="Trazado 1044091" d="M110.408,31.447A19.926,19.926,0,0,0,86.376,1.579a.824.824,0,0,0,.644,1.515,18.278,18.278,0,1,1,13.433,33.987.823.823,0,0,0-.539.773v1.757l-4.929.292V32.477l2.47-2.306c1.135-.034,4.8-.336,7.22-2.758,2.835-2.835,2.766-7.371,2.761-7.563a.823.823,0,0,0-.8-.8c-.192,0-4.728-.073-7.563,2.762-2.392,2.392-2.716,6-2.757,7.178l-1.327,1.239V22.293A13.48,13.48,0,0,0,96.924,19.6a.823.823,0,0,0-1.447-.785,11.794,11.794,0,0,1-1.233,1.823c-.027,0-.054,0-.082,0s-.055,0-.081,0a9.085,9.085,0,0,1-2.236-5.384,9.182,9.182,0,0,1,2.318-5.484,9.137,9.137,0,0,1,2.316,5.484c0,.191-.009.386-.029.58a.824.824,0,0,0,1.638.161c.024-.247.036-.5.036-.741,0-4.009-3.256-7.168-3.395-7.3a.823.823,0,0,0-1.137,0c-.139.132-3.395,3.291-3.395,7.3,0,3.4,2.348,6.195,3.141,7.041v7.927L92.01,28.976c-.042-1.191-.37-4.783-2.757-7.169-2.835-2.835-7.371-2.766-7.563-2.761a.823.823,0,0,0-.8.8c0,.192-.073,4.728,2.761,7.563,2.43,2.43,6.107,2.726,7.23,2.758l2.461,2.306V40l-4.93.292V37.854a.823.823,0,0,0-.54-.773,18.29,18.29,0,0,1-9.98-25.487,18.447,18.447,0,0,1,5.35-6.327.824.824,0,0,0-.985-1.319,20.1,20.1,0,0,0-5.83,6.9A19.932,19.932,0,0,0,86.763,38.42v1.97c-3.5.076-3.553,5.435,0,5.354v2.09c-3.644.119-3.352,5.6.337,5.337a4.783,4.783,0,0,0,4.44,3.019h5.243a4.784,4.784,0,0,0,4.69-3.871l1.166-.069c3.424-.2,3.147-5.542-.316-5.338l-.762.045V44.985c0-.039,0-.077,0-.115l1.082-.064c3.42-.2,3.155-5.544-.316-5.338l-.762.045V38.42a19.868,19.868,0,0,0,8.849-6.973Zm-10.175-8.476a9.179,9.179,0,0,1,5.517-2.238,9.143,9.143,0,0,1-2.24,5.516,9.18,9.18,0,0,1-5.517,2.238,9.137,9.137,0,0,1,2.24-5.516Zm-17.66-2.238a9.177,9.177,0,0,1,5.516,2.238,9.092,9.092,0,0,1,2.227,5.4.84.84,0,0,0-.079.073c-.01.011-.019.023-.029.035a9.054,9.054,0,0,1-5.4-2.229,9.182,9.182,0,0,1-2.238-5.515ZM102.482,41.11a1.029,1.029,0,0,1,.059,2.053L86.766,44.1a1.027,1.027,0,0,1-1.088-1.016,1.027,1.027,0,0,1,.967-1.035l15.775-.935.063,0Zm.7,7.721a1.039,1.039,0,0,1-.64,1.777l-3.929.233a.824.824,0,0,0,.1,1.644l1.036-.061a3.136,3.136,0,0,1-2.963,2.122H91.54a3.131,3.131,0,0,1-2.658-1.478l6.1-.361a.824.824,0,0,0-.1-1.643l-8.115.481a1.028,1.028,0,0,1-.122-2.051l15.775-.935a1.019,1.019,0,0,1,.762.274ZM88.409,47.737V45.65l11.5-.682c0,.006,0,.012,0,.017v2.07Zm0,0" transform="translate(-66.095)"/>
      <path id="Trazado_1044092" data-name="Trazado 1044092" d="M75.75,6.547A.824.824,0,0,0,76.928,5.4L73.707,2.1a.824.824,0,0,0-1.178,1.15Zm0,0" transform="translate(-64.361 -1.648)"/>
      <path id="Trazado_1044093" data-name="Trazado 1044093" d="M33.515,54.307,37.48,56.66a.824.824,0,0,0,.84-1.416l-3.965-2.353A.824.824,0,0,0,33.515,54.307Zm0,0" transform="translate(-29.489 -46.98)"/>
      <path id="Trazado_1044094" data-name="Trazado 1044094" d="M9.068,113.807l4.438,1.246a.824.824,0,0,0,.445-1.585l-4.438-1.246a.824.824,0,0,0-.445,1.585Zm0,0" transform="translate(-7.559 -99.875)"/>
      <path id="Trazado_1044095" data-name="Trazado 1044095" d="M5.4,177.705a.824.824,0,0,0,.01-1.646L.8,176a.823.823,0,0,0-.019,1.646l4.609.055H5.4Zm0,0" transform="translate(0 -156.688)"/>
      <path id="Trazado_1044096" data-name="Trazado 1044096" d="M14.309,230.053a.823.823,0,0,0-1-.594L8.841,230.6a.824.824,0,0,0,.407,1.595l4.467-1.14a.823.823,0,0,0,.594-1Zm0,0" transform="translate(-7.342 -204.254)"/>
      <path id="Trazado_1044097" data-name="Trazado 1044097" d="M38.188,279.178a.823.823,0,0,0-1.121-.315l-4.019,2.257a.824.824,0,0,0,.806,1.435l4.019-2.257a.823.823,0,0,0,.315-1.121Zm0,0" transform="translate(-29.059 -248.165)"/>
      <path id="Trazado_1044098" data-name="Trazado 1044098" d="M75.173,321.343l-3.3,3.221c-.746.728.388,1.921,1.15,1.178l3.3-3.22a.824.824,0,0,0-1.15-1.178Zm0,0" transform="translate(-63.77 -285.867)"/>
      <path id="Trazado_1044099" data-name="Trazado 1044099" d="M396.254,321.367a.823.823,0,0,0-1.178,1.15l3.22,3.3a.824.824,0,0,0,1.178-1.15Zm0,0" transform="translate(-351.51 -285.877)"/>
      <path id="Trazado_1044100" data-name="Trazado 1044100" d="M432.644,281.185l-3.965-2.352a.824.824,0,0,0-.84,1.416L431.8,282.6A.824.824,0,0,0,432.644,281.185Zm0,0" transform="translate(-380.537 -248.124)"/>
      <path id="Trazado_1044101" data-name="Trazado 1044101" d="M453.452,230.682l-4.438-1.246a.824.824,0,0,0-.445,1.585l4.438,1.246A.824.824,0,0,0,453.452,230.682Zm0,0" transform="translate(-398.827 -204.225)"/>
      <path id="Trazado_1044102" data-name="Trazado 1044102" d="M460.413,176.559,455.8,176.5a.823.823,0,0,0-.02,1.646l4.61.055A.823.823,0,0,0,460.413,176.559Zm0,0" transform="translate(-405.065 -157.133)"/>
      <path id="Trazado_1044103" data-name="Trazado 1044103" d="M447.8,115.327a.84.84,0,0,0,1,.594l4.467-1.14a.823.823,0,0,0-.407-1.595l-4.467,1.14A.823.823,0,0,0,447.8,115.327Zm0,0" transform="translate(-398.632 -100.738)"/>
      <path id="Trazado_1044104" data-name="Trazado 1044104" d="M427.449,57.123a.841.841,0,0,0,1.121.314l4.019-2.257a.824.824,0,0,0-.806-1.435L427.764,56a.823.823,0,0,0-.315,1.121Zm0,0" transform="translate(-380.445 -47.748)"/>
      <path id="Trazado_1044105" data-name="Trazado 1044105" d="M395.721,7.413a.821.821,0,0,0,.575-.234l3.3-3.22a.824.824,0,0,0-1.15-1.178L395.146,6a.829.829,0,0,0,.575,1.412Zm0,0" transform="translate(-351.565 -2.266)"/>
    </g>
  </g>
</svg>
